aaram-regular.ufo
<glyph name="exclam" format="1">
  <advance width="76"/>
  <unicode hex="0021"/>
  <outline>
    <contour>
      <point x="36" y="76" type="curve" smooth="yes"/>
      <point x="45" y="76"/>
      <point x="53" y="84"/>
      <point x="53" y="93" type="curve"/>
      <point x="53" y="183" type="line"/>
      <point x="53" y="631" type="line"/>
      <point x="53" y="714" type="line"/>
      <point x="53" y="723"/>
      <point x="45" y="731"/>
      <point x="36" y="731" type="curve" smooth="yes"/>
      <point x="26" y="731"/>
      <point x="19" y="723"/>
      <point x="19" y="714" type="curve"/>
      <point x="19" y="631" type="line"/>
      <point x="19" y="183" type="line"/>
      <point x="19" y="93" type="line"/>
      <point x="19" y="84"/>
      <point x="26" y="76"/>
    </contour>
    <contour>
      <point x="36" y="46" type="curve" smooth="yes"/>
      <point x="26" y="46"/>
      <point x="19" y="38"/>
      <point x="19" y="29" type="curve"/>
      <point x="19" y="16" type="line"/>
      <point x="19" y="7"/>
      <point x="26" y="-1"/>
      <point x="36" y="-1" type="curve" smooth="yes"/>
      <point x="45" y="-1"/>
      <point x="53" y="7"/>
      <point x="53" y="16" type="curve"/>
      <point x="53" y="29" type="line"/>
      <point x="53" y="38"/>
      <point x="45" y="46"/>
    </contour>
  </outline>
</glyph>
<glyph name="quotedbl" format="1">
  <advance width="159"/>
  <unicode hex="0022"/>
  <outline>
    <contour>
      <point x="65" y="693" type="line"/>
      <point x="63" y="750" type="line"/>
      <point x="63" y="762"/>
      <point x="53" y="772"/>
      <point x="40" y="772" type="curve" smooth="yes"/>
      <point x="28" y="772"/>
      <point x="18" y="761"/>
      <point x="18" y="749" type="curve"/>
      <point x="20" y="692" type="line"/>
      <point x="19" y="696" type="line"/>
      <point x="21" y="640" type="line"/>
      <point x="21" y="627"/>
      <point x="31" y="617"/>
      <point x="44" y="617" type="curve" smooth="yes"/>
      <point x="56" y="617"/>
      <point x="66" y="628"/>
      <point x="66" y="640" type="curve"/>
      <point x="64" y="697" type="line"/>
    </contour>
    <contour>
      <point x="138" y="699" type="line"/>
      <point x="139" y="695" type="line"/>
      <point x="137" y="752" type="line"/>
      <point x="137" y="764"/>
      <point x="127" y="774"/>
      <point x="114" y="774" type="curve" smooth="yes"/>
      <point x="102" y="774"/>
      <point x="92" y="763"/>
      <point x="92" y="751" type="curve"/>
      <point x="94" y="694" type="line"/>
      <point x="93" y="698" type="line"/>
      <point x="95" y="642" type="line"/>
      <point x="95" y="629"/>
      <point x="105" y="619"/>
      <point x="118" y="619" type="curve" smooth="yes"/>
      <point x="130" y="619"/>
      <point x="140" y="630"/>
      <point x="140" y="642" type="curve"/>
    </contour>
  </outline>
</glyph>
<glyph name="numbersign" format="1">
  <advance width="627"/>
  <unicode hex="0023"/>
  <outline>
    <contour>
      <point x="604" y="444" type="curve"/>
      <point x="603" y="444" type="line"/>
      <point x="451" y="477" type="line"/>
      <point x="468" y="558" type="line"/>
      <point x="489" y="621"/>
      <point x="474" y="664"/>
      <point x="427" y="680" type="curve" smooth="yes"/>
      <point x="425" y="680"/>
      <point x="422" y="681"/>
      <point x="420" y="681" type="curve" smooth="yes"/>
      <point x="411" y="681"/>
      <point x="403" y="675"/>
      <point x="400" y="666" type="curve" smooth="yes"/>
      <point x="399" y="661"/>
      <point x="399" y="655"/>
      <point x="401" y="650" type="curve" smooth="yes"/>
      <point x="404" y="645"/>
      <point x="408" y="642"/>
      <point x="413" y="640" type="curve" smooth="yes"/>
      <point x="427" y="635"/>
      <point x="435" y="627"/>
      <point x="436" y="615" type="curve" smooth="yes"/>
      <point x="438" y="602"/>
      <point x="433" y="585"/>
      <point x="428" y="571" type="curve"/>
      <point x="428" y="571" type="line"/>
      <point x="410" y="485" type="line"/>
      <point x="278" y="514" type="line"/>
      <point x="288" y="558" type="line"/>
      <point x="309" y="621"/>
      <point x="294" y="664"/>
      <point x="247" y="680" type="curve" smooth="yes"/>
      <point x="244" y="680"/>
      <point x="242" y="681"/>
      <point x="240" y="681" type="curve" smooth="yes"/>
      <point x="231" y="681"/>
      <point x="223" y="675"/>
      <point x="220" y="666" type="curve" smooth="yes"/>
      <point x="218" y="661"/>
      <point x="219" y="655"/>
      <point x="221" y="650" type="curve" smooth="yes"/>
      <point x="224" y="645"/>
      <point x="228" y="642"/>
      <point x="233" y="640" type="curve" smooth="yes"/>
      <point x="247" y="635"/>
      <point x="254" y="627"/>
      <point x="256" y="615" type="curve" smooth="yes"/>
      <point x="258" y="602"/>
      <point x="253" y="585"/>
      <point x="248" y="571" type="curve"/>
      <point x="248" y="571" type="line"/>
      <point x="237" y="523" type="line"/>
      <point x="152" y="541" type="line"/>
      <point x="134" y="547"/>
      <point x="117" y="550"/>
      <point x="102" y="550" type="curve" smooth="yes"/>
      <point x="66" y="550"/>
      <point x="42" y="533"/>
      <point x="30" y="500" type="curve" smooth="yes"/>
      <point x="29" y="494"/>
      <point x="29" y="489"/>
      <point x="32" y="484" type="curve" smooth="yes"/>
      <point x="34" y="479"/>
      <point x="38" y="475"/>
      <point x="44" y="473" type="curve" smooth="yes"/>
      <point x="46" y="472"/>
      <point x="48" y="472"/>
      <point x="50" y="472" type="curve" smooth="yes"/>
      <point x="59" y="472"/>
      <point x="67" y="478"/>
      <point x="70" y="486" type="curve" smooth="yes"/>
      <point x="75" y="502"/>
      <point x="85" y="509"/>
      <point x="101" y="509" type="curve" smooth="yes"/>
      <point x="113" y="509"/>
      <point x="127" y="505"/>
      <point x="139" y="501" type="curve"/>
      <point x="139" y="501" type="line"/>
      <point x="229" y="482" type="line"/>
      <point x="199" y="346" type="line"/>
      <point x="130" y="361" type="line"/>
      <point x="112" y="367"/>
      <point x="95" y="370"/>
      <point x="80" y="370" type="curve" smooth="yes"/>
      <point x="45" y="370"/>
      <point x="20" y="353"/>
      <point x="9" y="320" type="curve" smooth="yes"/>
      <point x="7" y="314"/>
      <point x="8" y="309"/>
      <point x="10" y="304" type="curve" smooth="yes"/>
      <point x="13" y="298"/>
      <point x="17" y="295"/>
      <point x="22" y="293" type="curve" smooth="yes"/>
      <point x="24" y="292"/>
      <point x="27" y="292"/>
      <point x="29" y="292" type="curve" smooth="yes"/>
      <point x="38" y="292"/>
      <point x="46" y="298"/>
      <point x="49" y="306" type="curve" smooth="yes"/>
      <point x="54" y="322"/>
      <point x="63" y="329"/>
      <point x="79" y="329" type="curve" smooth="yes"/>
      <point x="91" y="329"/>
      <point x="106" y="325"/>
      <point x="117" y="321" type="curve"/>
      <point x="118" y="321" type="line"/>
      <point x="191" y="305" type="line"/>
      <point x="151" y="119" type="line"/>
      <point x="149" y="114"/>
      <point x="149" y="109"/>
      <point x="152" y="104" type="curve" smooth="yes"/>
      <point x="154" y="99"/>
      <point x="159" y="95"/>
      <point x="164" y="93" type="curve" smooth="yes"/>
      <point x="166" y="92"/>
      <point x="168" y="92"/>
      <point x="171" y="92" type="curve" smooth="yes"/>
      <point x="180" y="92"/>
      <point x="188" y="98"/>
      <point x="190" y="106" type="curve"/>
      <point x="191" y="107" type="line"/>
      <point x="231" y="296" type="line"/>
      <point x="363" y="268" type="line"/>
      <point x="331" y="119" type="line"/>
      <point x="327" y="108"/>
      <point x="333" y="97"/>
      <point x="344" y="93" type="curve" smooth="yes"/>
      <point x="346" y="92"/>
      <point x="349" y="92"/>
      <point x="351" y="92" type="curve" smooth="yes"/>
      <point x="360" y="92"/>
      <point x="368" y="98"/>
      <point x="371" y="106" type="curve"/>
      <point x="371" y="107" type="line"/>
      <point x="404" y="259" type="line"/>
      <point x="569" y="224" type="line"/>
      <point x="571" y="223"/>
      <point x="573" y="223"/>
      <point x="576" y="223" type="curve" smooth="yes"/>
      <point x="585" y="223"/>
      <point x="593" y="228"/>
      <point x="595" y="237" type="curve" smooth="yes"/>
      <point x="599" y="248"/>
      <point x="593" y="260"/>
      <point x="582" y="263" type="curve"/>
      <point x="582" y="264" type="line"/>
      <point x="412" y="300" type="line"/>
      <point x="442" y="436" type="line"/>
      <point x="591" y="404" type="line"/>
      <point x="593" y="403"/>
      <point x="595" y="403"/>
      <point x="597" y="403" type="curve" smooth="yes"/>
      <point x="597" y="403" type="line"/>
      <point x="606" y="403"/>
      <point x="614" y="409"/>
      <point x="617" y="417" type="curve" smooth="yes"/>
      <point x="621" y="428"/>
      <point x="615" y="440"/>
    </contour>
    <contour>
      <point x="401" y="445" type="line"/>
      <point x="372" y="309" type="line"/>
      <point x="240" y="337" type="line"/>
      <point x="269" y="473" type="line"/>
    </contour>
  </outline>
</glyph>
<glyph name="dollar" format="1">
  <advance width="268"/>
  <unicode hex="0024"/>
  <outline>
    <contour>
      <point x="256" y="556" type="line"/>
      <point x="256" y="614" type="line"/>
      <point x="256" y="663"/>
      <point x="227" y="706"/>
      <point x="184" y="725" type="curve"/>
      <point x="184" y="796" type="line"/>
      <point x="184" y="807"/>
      <point x="176" y="815"/>
      <point x="165" y="815" type="curve" smooth="yes"/>
      <point x="155" y="815"/>
      <point x="147" y="807"/>
      <point x="147" y="796" type="curve"/>
      <point x="147" y="735" type="line"/>
      <point x="142" y="736"/>
      <point x="138" y="736"/>
      <point x="134" y="736" type="curve" smooth="yes"/>
      <point x="130" y="736"/>
      <point x="125" y="736"/>
      <point x="121" y="735" type="curve"/>
      <point x="121" y="796" type="line"/>
      <point x="121" y="807"/>
      <point x="113" y="815"/>
      <point x="102" y="815" type="curve" smooth="yes"/>
      <point x="92" y="815"/>
      <point x="83" y="807"/>
      <point x="83" y="796" type="curve"/>
      <point x="83" y="725" type="line"/>
      <point x="41" y="706"/>
      <point x="12" y="663"/>
      <point x="12" y="614" type="curve"/>
      <point x="12" y="465" type="line"/>
      <point x="12" y="464"/>
      <point x="12" y="463"/>
      <point x="12" y="462" type="curve" smooth="yes"/>
      <point x="12" y="459"/>
      <point x="12" y="456"/>
      <point x="12" y="454" type="curve" smooth="yes"/>
      <point x="14" y="428"/>
      <point x="22" y="405"/>
      <point x="36" y="387" type="curve" smooth="yes"/>
      <point x="40" y="382"/>
      <point x="45" y="377"/>
      <point x="50" y="372" type="curve" smooth="yes"/>
      <point x="60" y="363"/>
      <point x="71" y="357"/>
      <point x="83" y="353" type="curve"/>
      <point x="83" y="58" type="line"/>
      <point x="63" y="73"/>
      <point x="50" y="97"/>
      <point x="50" y="125" type="curve"/>
      <point x="50" y="161" type="line"/>
      <point x="12" y="161" type="line"/>
      <point x="12" y="125" type="line"/>
      <point x="12" y="76"/>
      <point x="41" y="33"/>
      <point x="83" y="14" type="curve"/>
      <point x="83" y="-57" type="line"/>
      <point x="83" y="-68"/>
      <point x="92" y="-76"/>
      <point x="102" y="-76" type="curve" smooth="yes"/>
      <point x="113" y="-76"/>
      <point x="121" y="-68"/>
      <point x="121" y="-57" type="curve"/>
      <point x="121" y="4" type="line"/>
      <point x="125" y="3"/>
      <point x="130" y="3"/>
      <point x="134" y="3" type="curve" smooth="yes"/>
      <point x="138" y="3"/>
      <point x="142" y="3"/>
      <point x="147" y="3" type="curve"/>
      <point x="147" y="-57" type="line"/>
      <point x="147" y="-68"/>
      <point x="155" y="-76"/>
      <point x="165" y="-76" type="curve" smooth="yes"/>
      <point x="176" y="-76"/>
      <point x="184" y="-68"/>
      <point x="184" y="-57" type="curve"/>
      <point x="184" y="14" type="line"/>
      <point x="227" y="33"/>
      <point x="256" y="76"/>
      <point x="256" y="125" type="curve"/>
      <point x="256" y="276" type="line"/>
      <point x="256" y="305"/>
      <point x="247" y="330"/>
      <point x="233" y="350" type="curve" smooth="yes"/>
      <point x="233" y="350"/>
      <point x="232" y="350"/>
      <point x="232" y="351" type="curve" smooth="yes"/>
      <point x="228" y="356"/>
      <point x="223" y="361"/>
      <point x="218" y="366" type="curve" smooth="yes"/>
      <point x="208" y="375"/>
      <point x="197" y="381"/>
      <point x="184" y="385" type="curve"/>
      <point x="184" y="681" type="line"/>
      <point x="205" y="666"/>
      <point x="218" y="642"/>
      <point x="218" y="614" type="curve"/>
      <point x="218" y="556" type="line"/>
    </contour>
    <contour>
      <point x="50" y="429" type="curve"/>
      <point x="50" y="614" type="line"/>
      <point x="50" y="642"/>
      <point x="63" y="666"/>
      <point x="83" y="681" type="curve"/>
      <point x="83" y="393" type="line"/>
      <point x="69" y="400"/>
      <point x="57" y="413"/>
    </contour>
    <contour>
      <point x="134" y="41" type="curve" smooth="yes"/>
      <point x="130" y="41"/>
      <point x="125" y="41"/>
      <point x="121" y="42" type="curve"/>
      <point x="121" y="42" type="line"/>
      <point x="121" y="350" type="line"/>
      <point x="147" y="350" type="line"/>
      <point x="147" y="42" type="line"/>
      <point x="147" y="42" type="line"/>
      <point x="142" y="41"/>
      <point x="138" y="41"/>
    </contour>
    <contour>
      <point x="218" y="308" type="curve"/>
      <point x="218" y="125" type="line"/>
      <point x="218" y="97"/>
      <point x="205" y="73"/>
      <point x="184" y="57" type="curve"/>
      <point x="184" y="345" type="line"/>
      <point x="199" y="339"/>
      <point x="211" y="325"/>
    </contour>
    <contour>
      <point x="147" y="697" type="line"/>
      <point x="147" y="388" type="line"/>
      <point x="121" y="388" type="line"/>
      <point x="121" y="697" type="line"/>
      <point x="121" y="697" type="line"/>
      <point x="125" y="698"/>
      <point x="130" y="698"/>
      <point x="134" y="698" type="curve" smooth="yes"/>
      <point x="138" y="698"/>
      <point x="142" y="698"/>
      <point x="147" y="697" type="curve"/>
    </contour>
  </outline>
</glyph>
<glyph name="percent" format="1">
  <advance width="535"/>
  <unicode hex="0025"/>
  <outline>
    <contour>
      <point x="238" y="451" type="curve"/>
      <point x="238" y="578" type="line"/>
      <point x="238" y="632"/>
      <point x="194" y="676"/>
      <point x="139" y="676" type="curve" smooth="yes"/>
      <point x="85" y="676"/>
      <point x="41" y="632"/>
      <point x="41" y="578" type="curve"/>
      <point x="41" y="451" type="line"/>
      <point x="41" y="396"/>
      <point x="85" y="352"/>
      <point x="139" y="352" type="curve" smooth="yes"/>
      <point x="194" y="352"/>
      <point x="238" y="396"/>
    </contour>
    <contour>
      <point x="139" y="393" type="curve" smooth="yes"/>
      <point x="107" y="393"/>
      <point x="81" y="419"/>
      <point x="81" y="451" type="curve"/>
      <point x="81" y="578" type="line"/>
      <point x="81" y="610"/>
      <point x="107" y="636"/>
      <point x="139" y="636" type="curve" smooth="yes"/>
      <point x="171" y="636"/>
      <point x="197" y="610"/>
      <point x="197" y="578" type="curve"/>
      <point x="197" y="451" type="line"/>
      <point x="197" y="419"/>
      <point x="171" y="393"/>
    </contour>
    <contour>
      <point x="404" y="341" type="curve" smooth="yes"/>
      <point x="350" y="341"/>
      <point x="306" y="296"/>
      <point x="306" y="242" type="curve"/>
      <point x="306" y="115" type="line"/>
      <point x="306" y="60"/>
      <point x="350" y="16"/>
      <point x="404" y="16" type="curve" smooth="yes"/>
      <point x="459" y="16"/>
      <point x="503" y="60"/>
      <point x="503" y="115" type="curve"/>
      <point x="503" y="242" type="line"/>
      <point x="503" y="296"/>
      <point x="459" y="341"/>
    </contour>
    <contour>
      <point x="404" y="57" type="curve" smooth="yes"/>
      <point x="372" y="57"/>
      <point x="346" y="83"/>
      <point x="346" y="115" type="curve"/>
      <point x="346" y="242" type="line"/>
      <point x="346" y="274"/>
      <point x="372" y="300"/>
      <point x="404" y="300" type="curve" smooth="yes"/>
      <point x="436" y="300"/>
      <point x="462" y="274"/>
      <point x="462" y="242" type="curve"/>
      <point x="462" y="115" type="line"/>
      <point x="462" y="83"/>
      <point x="436" y="57"/>
    </contour>
    <contour>
      <point x="355" y="731" type="curve" smooth="yes"/>
      <point x="346" y="736"/>
      <point x="334" y="732"/>
      <point x="329" y="722" type="curve" smooth="yes"/>
      <point x="324" y="712"/>
      <point x="328" y="701"/>
      <point x="338" y="696" type="curve" smooth="yes"/>
      <point x="380" y="675"/>
      <point x="369" y="637"/>
      <point x="348" y="594" type="curve"/>
      <point x="141" y="29" type="line"/>
      <point x="137" y="19"/>
      <point x="141" y="8"/>
      <point x="150" y="3" type="curve" smooth="yes"/>
      <point x="160" y="-2"/>
      <point x="172" y="2"/>
      <point x="176" y="12" type="curve"/>
      <point x="383" y="577" type="line"/>
      <point x="414" y="639"/>
      <point x="417" y="700"/>
    </contour>
  </outline>
</glyph>
<glyph name="ampersand" format="1">
  <advance width="383"/>
  <unicode hex="0026"/>
  <outline>
    <contour>
      <point x="377" y="429" type="curve" smooth="yes"/>
      <point x="377" y="439"/>
      <point x="369" y="448"/>
      <point x="358" y="448" type="curve" smooth="yes"/>
      <point x="348" y="448"/>
      <point x="339" y="439"/>
      <point x="339" y="429" type="curve" smooth="yes"/>
      <point x="339" y="388"/>
      <point x="306" y="355"/>
      <point x="265" y="355" type="curve"/>
      <point x="74" y="355" type="line"/>
      <point x="74" y="611" type="line"/>
      <point x="74" y="657"/>
      <point x="112" y="695"/>
      <point x="158" y="695" type="curve" smooth="yes"/>
      <point x="205" y="695"/>
      <point x="242" y="657"/>
      <point x="242" y="611" type="curve"/>
      <point x="242" y="571" type="line"/>
      <point x="242" y="570"/>
      <point x="242" y="570"/>
      <point x="242" y="570" type="curve" smooth="yes"/>
      <point x="242" y="569"/>
      <point x="242" y="568"/>
      <point x="242" y="567" type="curve"/>
      <point x="242" y="558" type="line"/>
      <point x="242" y="523"/>
      <point x="237" y="496"/>
      <point x="168" y="496" type="curve"/>
      <point x="166" y="496" type="line"/>
      <point x="155" y="496"/>
      <point x="147" y="488"/>
      <point x="147" y="477" type="curve" smooth="yes"/>
      <point x="147" y="467"/>
      <point x="155" y="459"/>
      <point x="166" y="459" type="curve"/>
      <point x="168" y="459" type="line"/>
      <point x="272" y="459"/>
      <point x="280" y="499"/>
      <point x="280" y="552" type="curve"/>
      <point x="280" y="552" type="line"/>
      <point x="280" y="555" type="line"/>
      <point x="280" y="560"/>
      <point x="280" y="565"/>
      <point x="280" y="570" type="curve"/>
      <point x="280" y="611" type="line"/>
      <point x="280" y="678"/>
      <point x="225" y="733"/>
      <point x="158" y="733" type="curve" smooth="yes"/>
      <point x="91" y="733"/>
      <point x="36" y="678"/>
      <point x="36" y="611" type="curve"/>
      <point x="36" y="355" type="line"/>
      <point x="33" y="355" type="line"/>
      <point x="23" y="355"/>
      <point x="15" y="346"/>
      <point x="15" y="336" type="curve" smooth="yes"/>
      <point x="15" y="325"/>
      <point x="23" y="317"/>
      <point x="33" y="317" type="curve"/>
      <point x="36" y="317" type="line"/>
      <point x="36" y="121" type="line"/>
      <point x="36" y="54"/>
      <point x="91" y="-1"/>
      <point x="158" y="-1" type="curve" smooth="yes"/>
      <point x="225" y="-1"/>
      <point x="280" y="54"/>
      <point x="280" y="121" type="curve"/>
      <point x="280" y="318" type="line"/>
      <point x="335" y="325"/>
      <point x="377" y="372"/>
    </contour>
    <contour>
      <point x="158" y="37" type="curve" smooth="yes"/>
      <point x="112" y="37"/>
      <point x="74" y="75"/>
      <point x="74" y="121" type="curve"/>
      <point x="74" y="317" type="line"/>
      <point x="242" y="317" type="line"/>
      <point x="242" y="121" type="line"/>
      <point x="242" y="75"/>
      <point x="205" y="37"/>
    </contour>
  </outline>
</glyph>
<glyph name="quotesingle" format="1">
  <advance width="151"/>
  <unicode hex="0027"/>
  <outline>
    <contour>
      <point x="80" y="617" type="curve" smooth="yes"/>
      <point x="92" y="617"/>
      <point x="102" y="628"/>
      <point x="102" y="640" type="curve"/>
      <point x="100" y="697" type="line"/>
      <point x="101" y="693" type="line"/>
      <point x="99" y="750" type="line"/>
      <point x="99" y="762"/>
      <point x="89" y="772"/>
      <point x="76" y="772" type="curve" smooth="yes"/>
      <point x="64" y="772"/>
      <point x="54" y="761"/>
      <point x="54" y="749" type="curve"/>
      <point x="56" y="692" type="line"/>
      <point x="55" y="696" type="line"/>
      <point x="57" y="640" type="line"/>
      <point x="57" y="627"/>
      <point x="67" y="617"/>
    </contour>
  </outline>
</glyph>
<glyph name="parenleft" format="1">
  <advance width="184"/>
  <unicode hex="0028"/>
  <outline>
    <contour>
      <point x="79" y="0" type="curve"/>
      <point x="162" y="0" type="line"/>
      <point x="172" y="0"/>
      <point x="181" y="9"/>
      <point x="181" y="19" type="curve" smooth="yes"/>
      <point x="181" y="30"/>
      <point x="172" y="39"/>
      <point x="162" y="39" type="curve"/>
      <point x="94" y="39" type="line"/>
      <point x="84" y="87"/>
      <point x="52" y="245"/>
      <point x="52" y="366" type="curve" smooth="yes"/>
      <point x="52" y="497"/>
      <point x="83" y="647"/>
      <point x="94" y="693" type="curve"/>
      <point x="162" y="693" type="line"/>
      <point x="172" y="693"/>
      <point x="181" y="702"/>
      <point x="181" y="713" type="curve" smooth="yes"/>
      <point x="181" y="723"/>
      <point x="172" y="732"/>
      <point x="162" y="732" type="curve"/>
      <point x="79" y="732" type="line"/>
      <point x="70" y="732"/>
      <point x="62" y="726"/>
      <point x="60" y="717" type="curve" smooth="yes"/>
      <point x="58" y="710"/>
      <point x="13" y="528"/>
      <point x="13" y="366" type="curve" smooth="yes"/>
      <point x="13" y="218"/>
      <point x="58" y="23"/>
      <point x="60" y="15" type="curve" smooth="yes"/>
      <point x="62" y="6"/>
      <point x="70" y="0"/>
    </contour>
  </outline>
</glyph>
<glyph name="parenright" format="1">
  <advance width="184"/>
  <unicode hex="0029"/>
  <outline>
    <contour>
      <point x="105" y="0" type="curve"/>
      <point x="22" y="0" type="line"/>
      <point x="12" y="0"/>
      <point x="3" y="9"/>
      <point x="3" y="19" type="curve" smooth="yes"/>
      <point x="3" y="30"/>
      <point x="12" y="39"/>
      <point x="22" y="39" type="curve"/>
      <point x="90" y="39" type="line"/>
      <point x="100" y="87"/>
      <point x="132" y="245"/>
      <point x="132" y="366" type="curve" smooth="yes"/>
      <point x="132" y="497"/>
      <point x="101" y="647"/>
      <point x="90" y="693" type="curve"/>
      <point x="22" y="693" type="line"/>
      <point x="12" y="693"/>
      <point x="3" y="702"/>
      <point x="3" y="713" type="curve" smooth="yes"/>
      <point x="3" y="723"/>
      <point x="12" y="732"/>
      <point x="22" y="732" type="curve"/>
      <point x="105" y="732" type="line"/>
      <point x="114" y="732"/>
      <point x="122" y="726"/>
      <point x="124" y="717" type="curve" smooth="yes"/>
      <point x="126" y="710"/>
      <point x="171" y="528"/>
      <point x="171" y="366" type="curve" smooth="yes"/>
      <point x="171" y="218"/>
      <point x="126" y="23"/>
      <point x="124" y="15" type="curve" smooth="yes"/>
      <point x="122" y="6"/>
      <point x="114" y="0"/>
    </contour>
  </outline>
</glyph>
<glyph name="asterisk" format="1">
  <advance width="570"/>
  <unicode hex="002A"/>
  <outline>
    <contour>
      <point x="545" y="507" type="curve"/>
      <point x="331" y="507" type="line"/>
      <point x="483" y="658" type="line"/>
      <point x="486" y="662"/>
      <point x="488" y="666"/>
      <point x="488" y="672" type="curve" smooth="yes"/>
      <point x="488" y="677"/>
      <point x="486" y="682"/>
      <point x="483" y="685" type="curve" smooth="yes"/>
      <point x="479" y="689"/>
      <point x="474" y="691"/>
      <point x="469" y="691" type="curve" smooth="yes"/>
      <point x="464" y="691"/>
      <point x="459" y="689"/>
      <point x="455" y="685" type="curve"/>
      <point x="304" y="534" type="line"/>
      <point x="304" y="748" type="line"/>
      <point x="304" y="758"/>
      <point x="296" y="767"/>
      <point x="285" y="767" type="curve" smooth="yes"/>
      <point x="274" y="767"/>
      <point x="266" y="758"/>
      <point x="266" y="748" type="curve"/>
      <point x="266" y="534" type="line"/>
      <point x="114" y="685" type="line"/>
      <point x="111" y="689"/>
      <point x="106" y="691"/>
      <point x="101" y="691" type="curve" smooth="yes"/>
      <point x="96" y="691"/>
      <point x="91" y="689"/>
      <point x="87" y="685" type="curve" smooth="yes"/>
      <point x="84" y="682"/>
      <point x="82" y="677"/>
      <point x="82" y="672" type="curve" smooth="yes"/>
      <point x="82" y="666"/>
      <point x="84" y="662"/>
      <point x="87" y="658" type="curve"/>
      <point x="239" y="507" type="line"/>
      <point x="25" y="507" type="line"/>
      <point x="14" y="507"/>
      <point x="5" y="498"/>
      <point x="5" y="488" type="curve" smooth="yes"/>
      <point x="5" y="477"/>
      <point x="14" y="468"/>
      <point x="25" y="468" type="curve"/>
      <point x="239" y="468" type="line"/>
      <point x="87" y="317" type="line"/>
      <point x="84" y="313"/>
      <point x="82" y="309"/>
      <point x="82" y="303" type="curve" smooth="yes"/>
      <point x="82" y="298"/>
      <point x="84" y="293"/>
      <point x="87" y="290" type="curve" smooth="yes"/>
      <point x="91" y="286"/>
      <point x="96" y="284"/>
      <point x="101" y="284" type="curve" smooth="yes"/>
      <point x="106" y="284"/>
      <point x="111" y="286"/>
      <point x="114" y="290" type="curve"/>
      <point x="266" y="441" type="line"/>
      <point x="266" y="227" type="line"/>
      <point x="266" y="217"/>
      <point x="274" y="208"/>
      <point x="285" y="208" type="curve" smooth="yes"/>
      <point x="296" y="208"/>
      <point x="304" y="217"/>
      <point x="304" y="227" type="curve"/>
      <point x="304" y="441" type="line"/>
      <point x="455" y="290" type="line"/>
      <point x="459" y="286"/>
      <point x="464" y="284"/>
      <point x="469" y="284" type="curve" smooth="yes"/>
      <point x="474" y="284"/>
      <point x="479" y="286"/>
      <point x="483" y="290" type="curve" smooth="yes"/>
      <point x="490" y="297"/>
      <point x="490" y="309"/>
      <point x="483" y="317" type="curve"/>
      <point x="331" y="468" type="line"/>
      <point x="545" y="468" type="line"/>
      <point x="556" y="468"/>
      <point x="565" y="477"/>
      <point x="565" y="488" type="curve" smooth="yes"/>
      <point x="565" y="498"/>
      <point x="556" y="507"/>
    </contour>
  </outline>
</glyph>
<glyph name="plus" format="1">
  <advance width="555"/>
  <unicode hex="002B"/>
  <outline>
    <contour>
      <point x="495" y="404" type="curve"/>
      <point x="454" y="404" type="line"/>
      <point x="299" y="404" type="line"/>
      <point x="299" y="559" type="line"/>
      <point x="299" y="600" type="line"/>
      <point x="299" y="610"/>
      <point x="291" y="619"/>
      <point x="281" y="619" type="curve" smooth="yes"/>
      <point x="271" y="619"/>
      <point x="263" y="610"/>
      <point x="263" y="600" type="curve"/>
      <point x="263" y="559" type="line"/>
      <point x="263" y="404" type="line"/>
      <point x="108" y="404" type="line"/>
      <point x="66" y="404" type="line"/>
      <point x="56" y="404"/>
      <point x="48" y="396"/>
      <point x="48" y="386" type="curve" smooth="yes"/>
      <point x="48" y="376"/>
      <point x="56" y="368"/>
      <point x="66" y="368" type="curve"/>
      <point x="108" y="368" type="line"/>
      <point x="263" y="368" type="line"/>
      <point x="263" y="213" type="line"/>
      <point x="263" y="171" type="line"/>
      <point x="263" y="161"/>
      <point x="271" y="153"/>
      <point x="281" y="153" type="curve" smooth="yes"/>
      <point x="291" y="153"/>
      <point x="299" y="161"/>
      <point x="299" y="171" type="curve"/>
      <point x="299" y="213" type="line"/>
      <point x="299" y="368" type="line"/>
      <point x="454" y="368" type="line"/>
      <point x="495" y="368" type="line"/>
      <point x="505" y="368"/>
      <point x="514" y="376"/>
      <point x="514" y="386" type="curve" smooth="yes"/>
      <point x="514" y="396"/>
      <point x="505" y="404"/>
    </contour>
  </outline>
</glyph>
<glyph name="comma" format="1">
  <advance width="64"/>
  <unicode hex="002C"/>
  <outline>
    <contour>
      <point x="36" y="51" type="curve" smooth="yes"/>
      <point x="25" y="51"/>
      <point x="17" y="42"/>
      <point x="17" y="32" type="curve"/>
      <point x="17" y="18" type="line"/>
      <point x="17" y="11"/>
      <point x="20" y="6"/>
      <point x="26" y="2" type="curve"/>
      <point x="16" y="-13" type="line"/>
      <point x="14" y="-16"/>
      <point x="15" y="-21"/>
      <point x="19" y="-24" type="curve" smooth="yes"/>
      <point x="20" y="-24"/>
      <point x="21" y="-25"/>
      <point x="23" y="-25" type="curve" smooth="yes"/>
      <point x="25" y="-25"/>
      <point x="28" y="-24"/>
      <point x="30" y="-21" type="curve"/>
      <point x="44" y="1" type="line"/>
      <point x="50" y="4"/>
      <point x="55" y="11"/>
      <point x="55" y="18" type="curve"/>
      <point x="55" y="32" type="line"/>
      <point x="55" y="42"/>
      <point x="46" y="51"/>
    </contour>
  </outline>
</glyph>
<glyph name="hyphen" format="1">
  <advance width="373"/>
  <unicode hex="002D"/>
  <outline>
    <contour>
      <point x="291" y="404" type="curve"/>
      <point x="249" y="404" type="line"/>
      <point x="124" y="404" type="line"/>
      <point x="82" y="404" type="line" smooth="yes"/>
      <point x="72" y="404"/>
      <point x="64" y="396"/>
      <point x="64" y="386" type="curve" smooth="yes"/>
      <point x="64" y="376"/>
      <point x="72" y="368"/>
      <point x="82" y="368" type="curve" smooth="yes"/>
      <point x="124" y="368" type="line"/>
      <point x="249" y="368" type="line"/>
      <point x="291" y="368" type="line" smooth="yes"/>
      <point x="301" y="368"/>
      <point x="309" y="376"/>
      <point x="309" y="386" type="curve" smooth="yes"/>
      <point x="309" y="396"/>
      <point x="301" y="404"/>
    </contour>
  </outline>
</glyph>
<glyph name="period" format="1">
  <advance width="71"/>
  <unicode hex="002E"/>
  <outline>
    <contour>
      <point x="35" y="48" type="curve" smooth="yes"/>
      <point x="25" y="48"/>
      <point x="17" y="40"/>
      <point x="17" y="30" type="curve"/>
      <point x="17" y="16" type="line"/>
      <point x="17" y="6"/>
      <point x="25" y="-2"/>
      <point x="35" y="-2" type="curve" smooth="yes"/>
      <point x="45" y="-2"/>
      <point x="53" y="6"/>
      <point x="53" y="16" type="curve"/>
      <point x="53" y="30" type="line"/>
      <point x="53" y="40"/>
      <point x="45" y="48"/>
    </contour>
  </outline>
</glyph>
<glyph name="slash" format="1">
  <advance width="318"/>
  <unicode hex="002F"/>
  <outline>
    <contour>
      <point x="313" y="742" type="curve" smooth="yes"/>
      <point x="275" y="639" type="line"/>
      <point x="82" y="73" type="line"/>
      <point x="45" y="-31" type="line"/>
      <point x="41" y="-42"/>
      <point x="29" y="-47"/>
      <point x="18" y="-43" type="curve" smooth="yes"/>
      <point x="7" y="-39"/>
      <point x="1" y="-27"/>
      <point x="5" y="-16" type="curve" smooth="yes"/>
      <point x="43" y="87" type="line"/>
      <point x="236" y="653" type="line"/>
      <point x="274" y="757" type="line"/>
      <point x="278" y="768"/>
      <point x="290" y="773"/>
      <point x="301" y="769" type="curve" smooth="yes"/>
      <point x="311" y="765"/>
      <point x="317" y="753"/>
    </contour>
  </outline>
</glyph>
<glyph name="zero" format="1">
  <advance width="278"/>
  <unicode hex="0030"/>
  <outline>
    <contour>
      <point x="139" y="720" type="curve" smooth="yes"/>
      <point x="73" y="720"/>
      <point x="19" y="666"/>
      <point x="19" y="600" type="curve"/>
      <point x="19" y="117" type="line"/>
      <point x="19" y="50"/>
      <point x="73" y="-4"/>
      <point x="139" y="-4" type="curve" smooth="yes"/>
      <point x="205" y="-4"/>
      <point x="259" y="50"/>
      <point x="259" y="117" type="curve"/>
      <point x="259" y="600" type="line"/>
      <point x="259" y="666"/>
      <point x="205" y="720"/>
    </contour>
    <contour>
      <point x="139" y="683" type="curve" smooth="yes"/>
      <point x="185" y="683"/>
      <point x="222" y="645"/>
      <point x="222" y="600" type="curve"/>
      <point x="222" y="441" type="line"/>
      <point x="222" y="441"/>
      <point x="222" y="441"/>
      <point x="222" y="440" type="curve"/>
      <point x="222" y="288" type="line"/>
      <point x="187" y="274"/>
      <point x="147" y="288"/>
      <point x="130" y="322" type="curve"/>
      <point x="58" y="461" type="line"/>
      <point x="57" y="462"/>
      <point x="57" y="463"/>
      <point x="56" y="464" type="curve"/>
      <point x="56" y="600" type="line"/>
      <point x="56" y="645"/>
      <point x="93" y="683"/>
    </contour>
    <contour>
      <point x="139" y="33" type="curve" smooth="yes"/>
      <point x="93" y="33"/>
      <point x="56" y="71"/>
      <point x="56" y="117" type="curve"/>
      <point x="56" y="383" type="line"/>
      <point x="96" y="305" type="line"/>
      <point x="120" y="258"/>
      <point x="173" y="236"/>
      <point x="222" y="249" type="curve"/>
      <point x="222" y="117" type="line"/>
      <point x="222" y="71"/>
      <point x="185" y="33"/>
    </contour>
  </outline>
</glyph>
<glyph name="one" format="1">
  <advance width="126"/>
  <unicode hex="0031"/>
  <outline>
    <contour>
      <point x="105" y="703" type="line"/>
      <point x="103" y="712"/>
      <point x="96" y="719"/>
      <point x="86" y="719" type="curve"/>
      <point x="80" y="719" type="line"/>
      <point x="20" y="719"/>
      <point x="1" y="719"/>
      <point x="1" y="659" type="curve" smooth="yes"/>
      <point x="1" y="649"/>
      <point x="9" y="640"/>
      <point x="19" y="640" type="curve" smooth="yes"/>
      <point x="30" y="640"/>
      <point x="38" y="649"/>
      <point x="38" y="659" type="curve" smooth="yes"/>
      <point x="38" y="694"/>
      <point x="40" y="685"/>
      <point x="68" y="682" type="curve"/>
      <point x="68" y="17" type="line"/>
      <point x="68" y="7"/>
      <point x="76" y="-2"/>
      <point x="86" y="-2" type="curve" smooth="yes"/>
      <point x="97" y="-2"/>
      <point x="105" y="7"/>
      <point x="105" y="17" type="curve"/>
      <point x="105" y="703" type="line"/>
    </contour>
  </outline>
</glyph>
<glyph name="two" format="1">
  <advance width="342"/>
  <unicode hex="0032"/>
  <outline>
    <contour>
      <point x="171" y="719" type="curve" smooth="yes"/>
      <point x="105" y="719"/>
      <point x="51" y="665"/>
      <point x="51" y="599" type="curve"/>
      <point x="51" y="540" type="line"/>
      <point x="88" y="540" type="line"/>
      <point x="88" y="599" type="line"/>
      <point x="88" y="645"/>
      <point x="125" y="682"/>
      <point x="171" y="682" type="curve" smooth="yes"/>
      <point x="216" y="682"/>
      <point x="253" y="645"/>
      <point x="253" y="599" type="curve"/>
      <point x="253" y="442" type="line"/>
      <point x="253" y="441"/>
      <point x="253" y="441"/>
      <point x="253" y="441" type="curve"/>
      <point x="253" y="377" type="line"/>
      <point x="199" y="377" type="line"/>
      <point x="88" y="377" type="line"/>
      <point x="74" y="377" type="line"/>
      <point x="51" y="377" type="line"/>
      <point x="51" y="340" type="line"/>
      <point x="51" y="119" type="line"/>
      <point x="51" y="53"/>
      <point x="105" y="-1"/>
      <point x="171" y="-1" type="curve" smooth="yes"/>
      <point x="237" y="-1"/>
      <point x="291" y="53"/>
      <point x="291" y="119" type="curve"/>
      <point x="291" y="152" type="line"/>
      <point x="253" y="152" type="line"/>
      <point x="253" y="119" type="line"/>
      <point x="253" y="73"/>
      <point x="216" y="36"/>
      <point x="171" y="36" type="curve" smooth="yes"/>
      <point x="125" y="36"/>
      <point x="88" y="73"/>
      <point x="88" y="119" type="curve"/>
      <point x="88" y="340" type="line"/>
      <point x="88" y="340" type="line"/>
      <point x="143" y="340" type="line"/>
      <point x="278" y="340" type="line"/>
      <point x="291" y="340" type="line"/>
      <point x="291" y="349" type="line"/>
      <point x="291" y="369" type="line"/>
      <point x="291" y="377" type="line"/>
      <point x="291" y="599" type="line"/>
      <point x="291" y="665"/>
      <point x="237" y="719"/>
    </contour>
  </outline>
</glyph>
<glyph name="three" format="1">
  <advance width="333"/>
  <unicode hex="0033"/>
  <outline>
    <contour>
      <point x="240" y="351" type="curve" smooth="yes"/>
      <point x="237" y="355"/>
      <point x="233" y="358"/>
      <point x="229" y="360" type="curve"/>
      <point x="233" y="363"/>
      <point x="237" y="366"/>
      <point x="240" y="369" type="curve" smooth="yes"/>
      <point x="255" y="382"/>
      <point x="267" y="399"/>
      <point x="273" y="419" type="curve" smooth="yes"/>
      <point x="275" y="428"/>
      <point x="277" y="437"/>
      <point x="277" y="446" type="curve"/>
      <point x="277" y="446" type="line"/>
      <point x="277" y="599" type="line"/>
      <point x="277" y="665"/>
      <point x="224" y="719"/>
      <point x="158" y="719" type="curve" smooth="yes"/>
      <point x="92" y="719"/>
      <point x="39" y="666"/>
      <point x="38" y="601" type="curve"/>
      <point x="38" y="601" type="line"/>
      <point x="75" y="601" type="line"/>
      <point x="75" y="599" type="line"/>
      <point x="75" y="645"/>
      <point x="112" y="682"/>
      <point x="158" y="682" type="curve" smooth="yes"/>
      <point x="203" y="682"/>
      <point x="240" y="645"/>
      <point x="240" y="599" type="curve"/>
      <point x="240" y="452" type="line"/>
      <point x="240" y="452"/>
      <point x="240" y="451"/>
      <point x="240" y="451" type="curve" smooth="yes"/>
      <point x="240" y="413"/>
      <point x="210" y="381"/>
      <point x="173" y="379" type="curve" smooth="yes"/>
      <point x="171" y="379"/>
      <point x="169" y="379"/>
      <point x="168" y="379" type="curve"/>
      <point x="97" y="379" type="line"/>
      <point x="97" y="342" type="line"/>
      <point x="168" y="342" type="line"/>
      <point x="169" y="342"/>
      <point x="171" y="342"/>
      <point x="173" y="342" type="curve" smooth="yes"/>
      <point x="210" y="339"/>
      <point x="240" y="308"/>
      <point x="240" y="269" type="curve" smooth="yes"/>
      <point x="240" y="269"/>
      <point x="240" y="269"/>
      <point x="240" y="268" type="curve"/>
      <point x="240" y="174" type="line"/>
      <point x="240" y="174"/>
      <point x="240" y="174"/>
      <point x="240" y="173" type="curve"/>
      <point x="240" y="118" type="line"/>
      <point x="240" y="73"/>
      <point x="203" y="36"/>
      <point x="158" y="36" type="curve" smooth="yes"/>
      <point x="112" y="36"/>
      <point x="75" y="73"/>
      <point x="75" y="118" type="curve"/>
      <point x="75" y="155" type="line"/>
      <point x="38" y="155" type="line"/>
      <point x="38" y="119" type="line"/>
      <point x="38" y="85"/>
      <point x="53" y="55"/>
      <point x="75" y="33" type="curve"/>
      <point x="75" y="32" type="line"/>
      <point x="97" y="11"/>
      <point x="126" y="-2"/>
      <point x="158" y="-2" type="curve" smooth="yes"/>
      <point x="224" y="-2"/>
      <point x="278" y="52"/>
      <point x="278" y="118" type="curve"/>
      <point x="278" y="269" type="line"/>
      <point x="278" y="302"/>
      <point x="263" y="331"/>
    </contour>
  </outline>
</glyph>
<glyph name="four" format="1">
  <advance width="371"/>
  <unicode hex="0034"/>
  <outline>
    <contour>
      <point x="279" y="719" type="curve" smooth="yes"/>
      <point x="269" y="719"/>
      <point x="260" y="711"/>
      <point x="260" y="701" type="curve"/>
      <point x="260" y="494" type="line"/>
      <point x="260" y="460" type="line"/>
      <point x="260" y="414"/>
      <point x="223" y="377"/>
      <point x="178" y="377" type="curve" smooth="yes"/>
      <point x="132" y="377"/>
      <point x="95" y="414"/>
      <point x="95" y="460" type="curve"/>
      <point x="95" y="701" type="line"/>
      <point x="95" y="711"/>
      <point x="87" y="719"/>
      <point x="77" y="719" type="curve" smooth="yes"/>
      <point x="67" y="719"/>
      <point x="58" y="711"/>
      <point x="58" y="701" type="curve"/>
      <point x="58" y="460" type="line"/>
      <point x="58" y="394"/>
      <point x="112" y="340"/>
      <point x="178" y="340" type="curve" smooth="yes"/>
      <point x="210" y="340"/>
      <point x="239" y="353"/>
      <point x="260" y="373" type="curve"/>
      <point x="260" y="17" type="line"/>
      <point x="260" y="7"/>
      <point x="269" y="-1"/>
      <point x="279" y="-1" type="curve" smooth="yes"/>
      <point x="289" y="-1"/>
      <point x="298" y="7"/>
      <point x="298" y="17" type="curve"/>
      <point x="298" y="460" type="line"/>
      <point x="298" y="494" type="line"/>
      <point x="298" y="701" type="line"/>
      <point x="298" y="711"/>
      <point x="289" y="719"/>
    </contour>
  </outline>
</glyph>
<glyph name="five" format="1">
  <advance width="272"/>
  <unicode hex="0035"/>
  <outline>
    <contour>
      <point x="255" y="564" type="line"/>
      <point x="255" y="597" type="line"/>
      <point x="255" y="663"/>
      <point x="202" y="717"/>
      <point x="136" y="717" type="curve" smooth="yes"/>
      <point x="70" y="717"/>
      <point x="17" y="663"/>
      <point x="17" y="597" type="curve"/>
      <point x="17" y="376" type="line"/>
      <point x="17" y="339" type="line"/>
      <point x="40" y="339" type="line"/>
      <point x="54" y="339" type="line"/>
      <point x="164" y="339" type="line"/>
      <point x="218" y="339" type="line"/>
      <point x="218" y="276" type="line"/>
      <point x="218" y="276"/>
      <point x="218" y="276"/>
      <point x="218" y="275" type="curve"/>
      <point x="218" y="118" type="line"/>
      <point x="218" y="73"/>
      <point x="181" y="36"/>
      <point x="136" y="36" type="curve" smooth="yes"/>
      <point x="91" y="36"/>
      <point x="54" y="73"/>
      <point x="54" y="118" type="curve"/>
      <point x="54" y="177" type="line"/>
      <point x="17" y="177" type="line"/>
      <point x="17" y="118" type="line"/>
      <point x="17" y="52"/>
      <point x="70" y="-1"/>
      <point x="136" y="-1" type="curve" smooth="yes"/>
      <point x="202" y="-1"/>
      <point x="255" y="52"/>
      <point x="255" y="118" type="curve"/>
      <point x="255" y="339" type="line"/>
      <point x="255" y="348" type="line"/>
      <point x="255" y="368" type="line"/>
      <point x="255" y="376" type="line"/>
      <point x="242" y="376" type="line"/>
      <point x="108" y="376" type="line"/>
      <point x="54" y="376" type="line"/>
      <point x="54" y="376" type="line"/>
      <point x="54" y="597" type="line"/>
      <point x="54" y="643"/>
      <point x="91" y="680"/>
      <point x="136" y="680" type="curve" smooth="yes"/>
      <point x="181" y="680"/>
      <point x="218" y="643"/>
      <point x="218" y="597" type="curve"/>
      <point x="218" y="564" type="line"/>
    </contour>
  </outline>
</glyph>
<glyph name="six" format="1">
  <advance width="276"/>
  <unicode hex="0036"/>
  <outline>
    <contour>
      <point x="259" y="542" type="line"/>
      <point x="259" y="599" type="line"/>
      <point x="259" y="665"/>
      <point x="205" y="719"/>
      <point x="139" y="719" type="curve" smooth="yes"/>
      <point x="73" y="719"/>
      <point x="19" y="665"/>
      <point x="19" y="599" type="curve"/>
      <point x="19" y="490" type="line"/>
      <point x="19" y="453" type="line"/>
      <point x="19" y="451"/>
      <point x="19" y="450"/>
      <point x="19" y="449" type="curve" smooth="yes"/>
      <point x="19" y="447"/>
      <point x="19" y="444"/>
      <point x="19" y="442" type="curve"/>
      <point x="19" y="119" type="line"/>
      <point x="19" y="53"/>
      <point x="73" y="-1"/>
      <point x="139" y="-1" type="curve" smooth="yes"/>
      <point x="205" y="-1"/>
      <point x="259" y="53"/>
      <point x="259" y="119" type="curve"/>
      <point x="259" y="268" type="line"/>
      <point x="259" y="295"/>
      <point x="250" y="320"/>
      <point x="236" y="340" type="curve" smooth="yes"/>
      <point x="236" y="340"/>
      <point x="236" y="340"/>
      <point x="235" y="340" type="curve" smooth="yes"/>
      <point x="231" y="346"/>
      <point x="227" y="351"/>
      <point x="222" y="355" type="curve" smooth="yes"/>
      <point x="208" y="367"/>
      <point x="192" y="375"/>
      <point x="175" y="377" type="curve" smooth="yes"/>
      <point x="172" y="377"/>
      <point x="169" y="377"/>
      <point x="166" y="377" type="curve"/>
      <point x="105" y="377" type="line"/>
      <point x="83" y="380"/>
      <point x="65" y="396"/>
      <point x="56" y="418" type="curve"/>
      <point x="56" y="490" type="line"/>
      <point x="56" y="599" type="line"/>
      <point x="56" y="645"/>
      <point x="94" y="682"/>
      <point x="139" y="682" type="curve" smooth="yes"/>
      <point x="185" y="682"/>
      <point x="222" y="645"/>
      <point x="222" y="599" type="curve"/>
      <point x="222" y="542" type="line"/>
    </contour>
    <contour>
      <point x="103" y="340" type="curve" smooth="yes"/>
      <point x="106" y="340"/>
      <point x="109" y="340"/>
      <point x="111" y="340" type="curve"/>
      <point x="173" y="340" type="line"/>
      <point x="195" y="337"/>
      <point x="213" y="321"/>
      <point x="222" y="299" type="curve"/>
      <point x="222" y="119" type="line"/>
      <point x="222" y="73"/>
      <point x="185" y="36"/>
      <point x="139" y="36" type="curve" smooth="yes"/>
      <point x="94" y="36"/>
      <point x="56" y="73"/>
      <point x="56" y="119" type="curve"/>
      <point x="56" y="361" type="line"/>
      <point x="70" y="349"/>
      <point x="86" y="342"/>
    </contour>
  </outline>
</glyph>
<glyph name="seven" format="1">
  <advance width="259"/>
  <unicode hex="0037"/>
  <outline>
    <contour>
      <point x="258" y="699" type="curve" smooth="yes"/>
      <point x="258" y="710"/>
      <point x="250" y="718"/>
      <point x="239" y="718" type="curve"/>
      <point x="106" y="718" type="line"/>
      <point x="45" y="718"/>
      <point x="19" y="691"/>
      <point x="19" y="630" type="curve" smooth="yes"/>
      <point x="19" y="620"/>
      <point x="27" y="612"/>
      <point x="37" y="612" type="curve" smooth="yes"/>
      <point x="48" y="612"/>
      <point x="56" y="620"/>
      <point x="56" y="630" type="curve" smooth="yes"/>
      <point x="56" y="671"/>
      <point x="66" y="680"/>
      <point x="106" y="680" type="curve"/>
      <point x="217" y="680" type="line"/>
      <point x="20" y="30" type="line"/>
      <point x="19" y="22"/>
      <point x="14" y="13"/>
      <point x="23" y="4" type="curve" smooth="yes"/>
      <point x="30" y="-3"/>
      <point x="43" y="-1"/>
      <point x="49" y="7" type="curve"/>
      <point x="257" y="693" type="line"/>
      <point x="257" y="693" type="line"/>
      <point x="258" y="695"/>
      <point x="258" y="697"/>
    </contour>
  </outline>
</glyph>
<glyph name="eight" format="1">
  <advance width="350"/>
  <unicode hex="0038"/>
  <outline>
    <contour>
      <point x="294" y="560" type="curve"/>
      <point x="294" y="602" type="line"/>
      <point x="294" y="669"/>
      <point x="240" y="723"/>
      <point x="174" y="723" type="curve" smooth="yes"/>
      <point x="108" y="723"/>
      <point x="54" y="669"/>
      <point x="54" y="602" type="curve"/>
      <point x="54" y="560" type="line"/>
      <point x="54" y="516"/>
      <point x="77" y="478"/>
      <point x="112" y="457" type="curve"/>
      <point x="77" y="436"/>
      <point x="54" y="397"/>
      <point x="54" y="353" type="curve"/>
      <point x="54" y="119" type="line"/>
      <point x="54" y="53"/>
      <point x="108" y="-1"/>
      <point x="174" y="-1" type="curve" smooth="yes"/>
      <point x="240" y="-1"/>
      <point x="294" y="53"/>
      <point x="294" y="119" type="curve"/>
      <point x="294" y="353" type="line"/>
      <point x="294" y="397"/>
      <point x="271" y="436"/>
      <point x="236" y="457" type="curve"/>
      <point x="271" y="478"/>
      <point x="294" y="516"/>
    </contour>
    <contour>
      <point x="257" y="119" type="line"/>
      <point x="257" y="74"/>
      <point x="220" y="36"/>
      <point x="174" y="36" type="curve" smooth="yes"/>
      <point x="128" y="36"/>
      <point x="91" y="74"/>
      <point x="91" y="119" type="curve"/>
      <point x="91" y="175" type="line"/>
      <point x="91" y="175"/>
      <point x="91" y="175"/>
      <point x="91" y="176" type="curve"/>
      <point x="91" y="353" type="line"/>
      <point x="91" y="399"/>
      <point x="128" y="436"/>
      <point x="174" y="436" type="curve" smooth="yes"/>
      <point x="220" y="436"/>
      <point x="257" y="399"/>
      <point x="257" y="353" type="curve"/>
    </contour>
    <contour>
      <point x="257" y="560" type="line"/>
      <point x="257" y="514"/>
      <point x="220" y="477"/>
      <point x="174" y="477" type="curve" smooth="yes"/>
      <point x="128" y="477"/>
      <point x="91" y="514"/>
      <point x="91" y="560" type="curve"/>
      <point x="91" y="615" type="line"/>
      <point x="91" y="616"/>
      <point x="91" y="616"/>
      <point x="91" y="616" type="curve"/>
      <point x="91" y="602" type="line"/>
      <point x="91" y="648"/>
      <point x="128" y="685"/>
      <point x="174" y="685" type="curve" smooth="yes"/>
      <point x="220" y="685"/>
      <point x="257" y="648"/>
      <point x="257" y="602" type="curve"/>
    </contour>
  </outline>
</glyph>
<glyph name="nine" format="1">
  <advance width="350"/>
  <unicode hex="0039"/>
  <outline>
    <contour>
      <point x="287" y="276" type="curve"/>
      <point x="287" y="599" type="line"/>
      <point x="287" y="665"/>
      <point x="233" y="719"/>
      <point x="167" y="719" type="curve" smooth="yes"/>
      <point x="101" y="719"/>
      <point x="47" y="665"/>
      <point x="47" y="599" type="curve"/>
      <point x="47" y="450" type="line"/>
      <point x="47" y="423"/>
      <point x="56" y="398"/>
      <point x="70" y="378" type="curve" smooth="yes"/>
      <point x="70" y="378"/>
      <point x="70" y="378"/>
      <point x="70" y="377" type="curve" smooth="yes"/>
      <point x="75" y="372"/>
      <point x="79" y="367"/>
      <point x="84" y="362" type="curve" smooth="yes"/>
      <point x="98" y="351"/>
      <point x="114" y="343"/>
      <point x="131" y="341" type="curve"/>
      <point x="194" y="341" type="line"/>
      <point x="197" y="341"/>
      <point x="199" y="341"/>
      <point x="201" y="341" type="curve" smooth="yes"/>
      <point x="222" y="338"/>
      <point x="240" y="322"/>
      <point x="249" y="300" type="curve"/>
      <point x="249" y="228" type="line"/>
      <point x="249" y="119" type="line"/>
      <point x="249" y="73"/>
      <point x="212" y="36"/>
      <point x="167" y="36" type="curve" smooth="yes"/>
      <point x="121" y="36"/>
      <point x="84" y="73"/>
      <point x="84" y="119" type="curve"/>
      <point x="84" y="176" type="line"/>
      <point x="47" y="176" type="line"/>
      <point x="47" y="119" type="line"/>
      <point x="47" y="53"/>
      <point x="101" y="-1"/>
      <point x="167" y="-1" type="curve" smooth="yes"/>
      <point x="233" y="-1"/>
      <point x="287" y="53"/>
      <point x="287" y="119" type="curve"/>
      <point x="287" y="228" type="line"/>
      <point x="287" y="265" type="line"/>
      <point x="287" y="266"/>
      <point x="287" y="267"/>
      <point x="287" y="268" type="curve" smooth="yes"/>
      <point x="287" y="271"/>
      <point x="287" y="274"/>
    </contour>
    <contour>
      <point x="249" y="357" type="line"/>
      <point x="236" y="368"/>
      <point x="220" y="376"/>
      <point x="203" y="378" type="curve"/>
      <point x="139" y="378" type="line"/>
      <point x="137" y="378"/>
      <point x="135" y="378"/>
      <point x="133" y="378" type="curve" smooth="yes"/>
      <point x="111" y="381"/>
      <point x="93" y="397"/>
      <point x="84" y="419" type="curve"/>
      <point x="84" y="599" type="line"/>
      <point x="84" y="645"/>
      <point x="121" y="682"/>
      <point x="167" y="682" type="curve" smooth="yes"/>
      <point x="212" y="682"/>
      <point x="249" y="645"/>
      <point x="249" y="599" type="curve"/>
    </contour>
  </outline>
</glyph>
<glyph name="colon" format="1">
  <advance width="150"/>
  <unicode hex="003A"/>
  <outline>
    <contour>
      <point x="60" y="463" type="curve"/>
      <point x="90" y="463" type="line"/>
      <point x="113" y="463"/>
      <point x="132" y="482"/>
      <point x="132" y="506" type="curve" smooth="yes"/>
      <point x="132" y="529"/>
      <point x="113" y="548"/>
      <point x="90" y="548" type="curve"/>
      <point x="60" y="548" type="line"/>
      <point x="36" y="548"/>
      <point x="17" y="529"/>
      <point x="17" y="506" type="curve" smooth="yes"/>
      <point x="17" y="482"/>
      <point x="36" y="463"/>
    </contour>
    <contour>
      <point x="90" y="309" type="curve"/>
      <point x="60" y="309" type="line"/>
      <point x="36" y="309"/>
      <point x="17" y="290"/>
      <point x="17" y="267" type="curve" smooth="yes"/>
      <point x="17" y="244"/>
      <point x="36" y="225"/>
      <point x="60" y="225" type="curve"/>
      <point x="90" y="225" type="line"/>
      <point x="113" y="225"/>
      <point x="132" y="244"/>
      <point x="132" y="267" type="curve" smooth="yes"/>
      <point x="132" y="290"/>
      <point x="113" y="309"/>
    </contour>
  </outline>
</glyph>
<glyph name="semicolon" format="1">
  <advance width="200"/>
  <unicode hex="003B"/>
  <outline>
    <contour>
      <point x="90" y="395" type="curve"/>
      <point x="120" y="395" type="line"/>
      <point x="143" y="395"/>
      <point x="162" y="414"/>
      <point x="162" y="438" type="curve" smooth="yes"/>
      <point x="162" y="461"/>
      <point x="143" y="480"/>
      <point x="120" y="480" type="curve"/>
      <point x="90" y="480" type="line"/>
      <point x="66" y="480"/>
      <point x="47" y="461"/>
      <point x="47" y="438" type="curve" smooth="yes"/>
      <point x="47" y="414"/>
      <point x="66" y="395"/>
    </contour>
    <contour>
      <point x="120" y="241" type="curve"/>
      <point x="90" y="241" type="line"/>
      <point x="66" y="241"/>
      <point x="47" y="222"/>
      <point x="47" y="199" type="curve" smooth="yes"/>
      <point x="47" y="176"/>
      <point x="66" y="157"/>
      <point x="90" y="157" type="curve"/>
      <point x="90" y="157" type="line"/>
      <point x="66" y="120" type="line"/>
      <point x="60" y="111"/>
      <point x="62" y="99"/>
      <point x="72" y="93" type="curve" smooth="yes"/>
      <point x="75" y="90"/>
      <point x="79" y="89"/>
      <point x="83" y="89" type="curve" smooth="yes"/>
      <point x="89" y="89"/>
      <point x="96" y="92"/>
      <point x="99" y="98" type="curve"/>
      <point x="143" y="164" type="line"/>
      <point x="155" y="171"/>
      <point x="162" y="184"/>
      <point x="162" y="199" type="curve" smooth="yes"/>
      <point x="162" y="222"/>
      <point x="143" y="241"/>
    </contour>
  </outline>
</glyph>
<glyph name="less" format="1">
  <advance width="426"/>
  <unicode hex="003C"/>
  <outline>
    <contour>
      <point x="368" y="1" type="curve"/>
      <point x="373" y="1"/>
      <point x="377" y="2"/>
      <point x="381" y="5" type="curve" smooth="yes"/>
      <point x="389" y="12"/>
      <point x="390" y="25"/>
      <point x="383" y="33" type="curve"/>
      <point x="92" y="366" type="line"/>
      <point x="383" y="699" type="line"/>
      <point x="390" y="707"/>
      <point x="389" y="720"/>
      <point x="381" y="727" type="curve" smooth="yes"/>
      <point x="373" y="734"/>
      <point x="361" y="733"/>
      <point x="354" y="725" type="curve"/>
      <point x="40" y="366" type="line"/>
      <point x="354" y="7" type="line"/>
      <point x="357" y="3"/>
      <point x="363" y="1"/>
    </contour>
  </outline>
</glyph>
<glyph name="equal" format="1">
  <advance width="516"/>
  <unicode hex="003D"/>
  <outline>
    <contour>
      <point x="70" y="392" type="curve" smooth="yes"/>
      <point x="70" y="385"/>
      <point x="74" y="378"/>
      <point x="79" y="378" type="curve"/>
      <point x="131" y="378" type="line"/>
      <point x="387" y="378" type="line"/>
      <point x="438" y="378" type="line"/>
      <point x="444" y="378"/>
      <point x="448" y="385"/>
      <point x="448" y="392" type="curve" smooth="yes"/>
      <point x="448" y="400"/>
      <point x="444" y="407"/>
      <point x="438" y="407" type="curve"/>
      <point x="387" y="407" type="line"/>
      <point x="131" y="407" type="line"/>
      <point x="79" y="407" type="line"/>
      <point x="74" y="407"/>
      <point x="70" y="400"/>
    </contour>
    <contour>
      <point x="68" y="285" type="curve" smooth="yes"/>
      <point x="68" y="277"/>
      <point x="72" y="270"/>
      <point x="77" y="270" type="curve"/>
      <point x="129" y="270" type="line"/>
      <point x="385" y="270" type="line"/>
      <point x="436" y="270" type="line"/>
      <point x="442" y="270"/>
      <point x="446" y="277"/>
      <point x="446" y="285" type="curve" smooth="yes"/>
      <point x="446" y="291"/>
      <point x="442" y="299"/>
      <point x="436" y="299" type="curve"/>
      <point x="385" y="299" type="line"/>
      <point x="129" y="299" type="line"/>
      <point x="77" y="299" type="line"/>
      <point x="72" y="299"/>
      <point x="68" y="291"/>
    </contour>
  </outline>
</glyph>
<glyph name="greater" format="1">
  <advance width="424"/>
  <unicode hex="003E"/>
  <outline>
    <contour>
      <point x="59" y="-1" type="curve"/>
      <point x="55" y="-1"/>
      <point x="50" y="0"/>
      <point x="47" y="3" type="curve" smooth="yes"/>
      <point x="38" y="10"/>
      <point x="38" y="23"/>
      <point x="45" y="31" type="curve"/>
      <point x="338" y="367" type="line"/>
      <point x="45" y="703" type="line"/>
      <point x="38" y="711"/>
      <point x="38" y="723"/>
      <point x="47" y="731" type="curve" smooth="yes"/>
      <point x="55" y="738"/>
      <point x="67" y="737"/>
      <point x="74" y="729" type="curve"/>
      <point x="390" y="367" type="line"/>
      <point x="74" y="5" type="line"/>
      <point x="70" y="1"/>
      <point x="65" y="-1"/>
    </contour>
  </outline>
</glyph>
<glyph name="question" format="1">
  <advance width="311"/>
  <unicode hex="003F"/>
  <outline>
    <contour>
      <point x="278" y="462" type="curve"/>
      <point x="278" y="611" type="line"/>
      <point x="278" y="678"/>
      <point x="223" y="733"/>
      <point x="156" y="733" type="curve" smooth="yes"/>
      <point x="89" y="733"/>
      <point x="34" y="678"/>
      <point x="34" y="611" type="curve"/>
      <point x="34" y="553" type="line"/>
      <point x="72" y="553" type="line"/>
      <point x="72" y="611" type="line"/>
      <point x="72" y="657"/>
      <point x="110" y="695"/>
      <point x="156" y="695" type="curve" smooth="yes"/>
      <point x="202" y="695"/>
      <point x="240" y="657"/>
      <point x="240" y="611" type="curve"/>
      <point x="240" y="427" type="line"/>
      <point x="231" y="404"/>
      <point x="212" y="388"/>
      <point x="191" y="386" type="curve"/>
      <point x="128" y="386" type="line"/>
      <point x="125" y="386"/>
      <point x="123" y="385"/>
      <point x="120" y="385" type="curve" smooth="yes"/>
      <point x="102" y="383"/>
      <point x="86" y="375"/>
      <point x="72" y="363" type="curve" smooth="yes"/>
      <point x="67" y="359"/>
      <point x="62" y="354"/>
      <point x="58" y="348" type="curve" smooth="yes"/>
      <point x="58" y="348"/>
      <point x="58" y="348"/>
      <point x="57" y="347" type="curve" smooth="yes"/>
      <point x="43" y="328"/>
      <point x="34" y="302"/>
      <point x="34" y="274" type="curve"/>
      <point x="34" y="100" type="line"/>
      <point x="72" y="100" type="line"/>
      <point x="72" y="306" type="line"/>
      <point x="81" y="328"/>
      <point x="100" y="344"/>
      <point x="121" y="347" type="curve"/>
      <point x="184" y="347" type="line"/>
      <point x="187" y="347"/>
      <point x="190" y="347"/>
      <point x="193" y="348" type="curve" smooth="yes"/>
      <point x="210" y="350"/>
      <point x="226" y="357"/>
      <point x="240" y="369" type="curve" smooth="yes"/>
      <point x="245" y="374"/>
      <point x="250" y="379"/>
      <point x="254" y="385" type="curve" smooth="yes"/>
      <point x="268" y="403"/>
      <point x="276" y="426"/>
      <point x="278" y="451" type="curve" smooth="yes"/>
      <point x="278" y="454"/>
      <point x="278" y="456"/>
      <point x="278" y="459" type="curve" smooth="yes"/>
      <point x="278" y="460"/>
      <point x="278" y="461"/>
    </contour>
    <contour>
      <point x="53" y="53" type="curve" smooth="yes"/>
      <point x="42" y="53"/>
      <point x="34" y="44"/>
      <point x="34" y="34" type="curve"/>
      <point x="34" y="20" type="line"/>
      <point x="34" y="9"/>
      <point x="42" y="1"/>
      <point x="53" y="1" type="curve" smooth="yes"/>
      <point x="63" y="1"/>
      <point x="72" y="9"/>
      <point x="72" y="20" type="curve"/>
      <point x="72" y="34" type="line"/>
      <point x="72" y="44"/>
      <point x="63" y="53"/>
    </contour>
  </outline>
</glyph>
<glyph name="at" format="1">
  <advance width="283"/>
  <unicode hex="0040"/>
  <outline>
    <contour>
      <point x="141" y="735" type="curve" smooth="yes"/>
      <point x="73" y="735"/>
      <point x="18" y="680"/>
      <point x="18" y="612" type="curve"/>
      <point x="18" y="522" type="line"/>
      <point x="18" y="522"/>
      <point x="18" y="522"/>
      <point x="18" y="522" type="curve"/>
      <point x="18" y="437" type="line"/>
      <point x="18" y="427"/>
      <point x="27" y="418"/>
      <point x="37" y="418" type="curve" smooth="yes"/>
      <point x="48" y="418"/>
      <point x="56" y="427"/>
      <point x="56" y="437" type="curve"/>
      <point x="56" y="464" type="line"/>
      <point x="56" y="464" type="line"/>
      <point x="56" y="612" type="line"/>
      <point x="56" y="659"/>
      <point x="94" y="697"/>
      <point x="141" y="697" type="curve" smooth="yes"/>
      <point x="188" y="697"/>
      <point x="226" y="659"/>
      <point x="226" y="612" type="curve"/>
      <point x="226" y="120" type="line"/>
      <point x="226" y="73"/>
      <point x="188" y="35"/>
      <point x="141" y="35" type="curve" smooth="yes"/>
      <point x="94" y="35"/>
      <point x="56" y="73"/>
      <point x="56" y="120" type="curve"/>
      <point x="56" y="349" type="line"/>
      <point x="91" y="349" type="line"/>
      <point x="77" y="337"/>
      <point x="68" y="319"/>
      <point x="68" y="299" type="curve"/>
      <point x="68" y="214" type="line"/>
      <point x="68" y="177"/>
      <point x="98" y="147"/>
      <point x="134" y="147" type="curve" smooth="yes"/>
      <point x="171" y="147"/>
      <point x="201" y="177"/>
      <point x="201" y="214" type="curve"/>
      <point x="201" y="299" type="line"/>
      <point x="200" y="306"/>
      <point x="198" y="312"/>
      <point x="196" y="318" type="curve"/>
      <point x="187" y="361"/>
      <point x="164" y="387"/>
      <point x="122" y="387" type="curve"/>
      <point x="37" y="387" type="line"/>
      <point x="27" y="387"/>
      <point x="18" y="379"/>
      <point x="18" y="368" type="curve" smooth="yes"/>
      <point x="18" y="368"/>
      <point x="18" y="368"/>
      <point x="18" y="368" type="curve"/>
      <point x="18" y="368"/>
      <point x="18" y="367"/>
      <point x="18" y="367" type="curve"/>
      <point x="18" y="120" type="line"/>
      <point x="18" y="52"/>
      <point x="73" y="-3"/>
      <point x="141" y="-3" type="curve" smooth="yes"/>
      <point x="209" y="-3"/>
      <point x="264" y="52"/>
      <point x="264" y="120" type="curve"/>
      <point x="264" y="612" type="line"/>
      <point x="264" y="680"/>
      <point x="209" y="735"/>
    </contour>
    <contour>
      <point x="134" y="175" type="curve" smooth="yes"/>
      <point x="113" y="175"/>
      <point x="95" y="192"/>
      <point x="95" y="214" type="curve"/>
      <point x="95" y="299" type="line"/>
      <point x="95" y="321"/>
      <point x="113" y="338"/>
      <point x="134" y="338" type="curve" smooth="yes"/>
      <point x="156" y="338"/>
      <point x="173" y="321"/>
      <point x="173" y="299" type="curve"/>
      <point x="173" y="214" type="line"/>
      <point x="173" y="192"/>
      <point x="156" y="175"/>
    </contour>
  </outline>
</glyph>
<glyph name="A" format="1">
  <advance width="365"/>
  <unicode hex="0041"/>
  <outline>
    <contour>
      <point x="181" y="733" type="curve" smooth="yes"/>
      <point x="114" y="733"/>
      <point x="60" y="678"/>
      <point x="60" y="611" type="curve"/>
      <point x="60" y="20" type="line"/>
      <point x="60" y="9"/>
      <point x="68" y="1"/>
      <point x="79" y="1" type="curve" smooth="yes"/>
      <point x="89" y="1"/>
      <point x="97" y="9"/>
      <point x="97" y="20" type="curve"/>
      <point x="97" y="349" type="line"/>
      <point x="191" y="349" type="line"/>
      <point x="219" y="349"/>
      <point x="245" y="359"/>
      <point x="265" y="376" type="curve"/>
      <point x="265" y="20" type="line"/>
      <point x="265" y="9"/>
      <point x="273" y="1"/>
      <point x="283" y="1" type="curve" smooth="yes"/>
      <point x="294" y="1"/>
      <point x="302" y="9"/>
      <point x="302" y="20" type="curve"/>
      <point x="302" y="611" type="line"/>
      <point x="302" y="678"/>
      <point x="248" y="733"/>
    </contour>
    <contour>
      <point x="265" y="460" type="curve" smooth="yes"/>
      <point x="265" y="419"/>
      <point x="232" y="386"/>
      <point x="191" y="386" type="curve"/>
      <point x="97" y="386" type="line"/>
      <point x="97" y="611" type="line"/>
      <point x="97" y="657"/>
      <point x="135" y="695"/>
      <point x="181" y="695" type="curve" smooth="yes"/>
      <point x="227" y="695"/>
      <point x="265" y="657"/>
      <point x="265" y="611" type="curve"/>
      <point x="265" y="460" type="line"/>
      <point x="265" y="460"/>
      <point x="265" y="460"/>
    </contour>
  </outline>
</glyph>
<glyph name="B" format="1">
  <advance width="355"/>
  <unicode hex="0042"/>
  <outline>
    <contour>
      <point x="265" y="359" type="curve" smooth="yes"/>
      <point x="261" y="362"/>
      <point x="257" y="365"/>
      <point x="253" y="368" type="curve"/>
      <point x="257" y="371"/>
      <point x="261" y="374"/>
      <point x="265" y="377" type="curve" smooth="yes"/>
      <point x="280" y="390"/>
      <point x="291" y="408"/>
      <point x="297" y="427" type="curve" smooth="yes"/>
      <point x="300" y="436"/>
      <point x="302" y="445"/>
      <point x="302" y="455" type="curve"/>
      <point x="302" y="455" type="line"/>
      <point x="302" y="611" type="line"/>
      <point x="302" y="677"/>
      <point x="248" y="732"/>
      <point x="181" y="732" type="curve" smooth="yes"/>
      <point x="114" y="732"/>
      <point x="60" y="678"/>
      <point x="60" y="612" type="curve" smooth="yes"/>
      <point x="60" y="612"/>
      <point x="60" y="612"/>
      <point x="60" y="612" type="curve"/>
      <point x="60" y="612" type="line"/>
      <point x="60" y="611" type="line"/>
      <point x="60" y="611"/>
      <point x="60" y="611"/>
      <point x="60" y="611" type="curve"/>
      <point x="60" y="427" type="line"/>
      <point x="60" y="123" type="line"/>
      <point x="60" y="122" type="line"/>
      <point x="60" y="122"/>
      <point x="60" y="122"/>
      <point x="60" y="122" type="curve"/>
      <point x="60" y="19" type="line"/>
      <point x="60" y="9"/>
      <point x="68" y="0"/>
      <point x="78" y="0" type="curve" smooth="yes"/>
      <point x="89" y="0"/>
      <point x="97" y="9"/>
      <point x="97" y="19" type="curve"/>
      <point x="97" y="34" type="line"/>
      <point x="119" y="13"/>
      <point x="149" y="0"/>
      <point x="181" y="0" type="curve" smooth="yes"/>
      <point x="248" y="0"/>
      <point x="302" y="55"/>
      <point x="302" y="122" type="curve"/>
      <point x="302" y="275" type="line"/>
      <point x="302" y="309"/>
      <point x="288" y="338"/>
    </contour>
    <contour>
      <point x="181" y="694" type="curve" smooth="yes"/>
      <point x="227" y="694"/>
      <point x="265" y="657"/>
      <point x="265" y="611" type="curve"/>
      <point x="265" y="461" type="line"/>
      <point x="265" y="461"/>
      <point x="265" y="460"/>
      <point x="265" y="460" type="curve" smooth="yes"/>
      <point x="265" y="421"/>
      <point x="234" y="389"/>
      <point x="196" y="387" type="curve"/>
      <point x="194" y="387"/>
      <point x="193" y="387"/>
      <point x="191" y="387" type="curve"/>
      <point x="97" y="387" type="line"/>
      <point x="97" y="611" type="line"/>
      <point x="97" y="657"/>
      <point x="135" y="694"/>
    </contour>
    <contour>
      <point x="265" y="122" type="line"/>
      <point x="265" y="76"/>
      <point x="227" y="38"/>
      <point x="181" y="38" type="curve" smooth="yes"/>
      <point x="135" y="38"/>
      <point x="97" y="76"/>
      <point x="97" y="122" type="curve"/>
      <point x="97" y="349" type="line"/>
      <point x="191" y="349" type="line"/>
      <point x="193" y="349"/>
      <point x="194" y="349"/>
      <point x="196" y="349" type="curve"/>
      <point x="234" y="346"/>
      <point x="265" y="314"/>
      <point x="265" y="275" type="curve" smooth="yes"/>
      <point x="265" y="275"/>
      <point x="265" y="275"/>
      <point x="265" y="274" type="curve"/>
      <point x="265" y="179" type="line"/>
      <point x="265" y="179"/>
      <point x="265" y="178"/>
      <point x="265" y="178" type="curve"/>
    </contour>
  </outline>
</glyph>
<glyph name="C" format="1">
  <advance width="276"/>
  <unicode hex="0043"/>
  <outline>
    <contour>
      <point x="262" y="552" type="line"/>
      <point x="262" y="611" type="line"/>
      <point x="262" y="678"/>
      <point x="207" y="733"/>
      <point x="140" y="733" type="curve" smooth="yes"/>
      <point x="73" y="733"/>
      <point x="18" y="678"/>
      <point x="18" y="611" type="curve"/>
      <point x="18" y="122" type="line"/>
      <point x="18" y="55"/>
      <point x="73" y="0"/>
      <point x="140" y="0" type="curve" smooth="yes"/>
      <point x="207" y="0"/>
      <point x="262" y="55"/>
      <point x="262" y="122" type="curve"/>
      <point x="262" y="157" type="line"/>
      <point x="224" y="157" type="line"/>
      <point x="224" y="122" type="line"/>
      <point x="224" y="75"/>
      <point x="186" y="38"/>
      <point x="140" y="38" type="curve" smooth="yes"/>
      <point x="94" y="38"/>
      <point x="56" y="75"/>
      <point x="56" y="122" type="curve"/>
      <point x="56" y="611" type="line"/>
      <point x="56" y="657"/>
      <point x="94" y="695"/>
      <point x="140" y="695" type="curve" smooth="yes"/>
      <point x="186" y="695"/>
      <point x="224" y="657"/>
      <point x="224" y="611" type="curve"/>
      <point x="224" y="552" type="line"/>
    </contour>
  </outline>
</glyph>
<glyph name="D" format="1">
  <advance width="368"/>
  <unicode hex="0044"/>
  <outline>
    <contour>
      <point x="187" y="733" type="curve" smooth="yes"/>
      <point x="154" y="733"/>
      <point x="125" y="720"/>
      <point x="103" y="699" type="curve"/>
      <point x="103" y="713" type="line"/>
      <point x="103" y="724"/>
      <point x="94" y="732"/>
      <point x="84" y="732" type="curve" smooth="yes"/>
      <point x="74" y="732"/>
      <point x="65" y="724"/>
      <point x="65" y="713" type="curve"/>
      <point x="65" y="614" type="line"/>
      <point x="65" y="611" type="line"/>
      <point x="65" y="122" type="line"/>
      <point x="65" y="119" type="line"/>
      <point x="65" y="20" type="line"/>
      <point x="65" y="9"/>
      <point x="74" y="1"/>
      <point x="84" y="1" type="curve" smooth="yes"/>
      <point x="94" y="1"/>
      <point x="103" y="9"/>
      <point x="103" y="20" type="curve"/>
      <point x="103" y="34" type="line"/>
      <point x="125" y="13"/>
      <point x="154" y="0"/>
      <point x="187" y="0" type="curve" smooth="yes"/>
      <point x="254" y="0"/>
      <point x="309" y="55"/>
      <point x="309" y="122" type="curve"/>
      <point x="309" y="611" type="line"/>
      <point x="309" y="678"/>
      <point x="254" y="733"/>
    </contour>
    <contour>
      <point x="271" y="122" type="line"/>
      <point x="271" y="76"/>
      <point x="233" y="38"/>
      <point x="187" y="38" type="curve" smooth="yes"/>
      <point x="141" y="38"/>
      <point x="103" y="76"/>
      <point x="103" y="122" type="curve"/>
      <point x="103" y="611" type="line"/>
      <point x="103" y="657"/>
      <point x="141" y="695"/>
      <point x="187" y="695" type="curve" smooth="yes"/>
      <point x="233" y="695"/>
      <point x="271" y="657"/>
      <point x="271" y="611" type="curve"/>
      <point x="271" y="451" type="line"/>
      <point x="271" y="450"/>
      <point x="271" y="450"/>
      <point x="271" y="450" type="curve"/>
    </contour>
  </outline>
</glyph>
<glyph name="E" format="1">
  <advance width="277"/>
  <unicode hex="0045"/>
  <outline>
    <contour>
      <point x="262" y="552" type="line"/>
      <point x="262" y="611" type="line"/>
      <point x="262" y="678"/>
      <point x="207" y="733"/>
      <point x="140" y="733" type="curve" smooth="yes"/>
      <point x="73" y="733"/>
      <point x="18" y="678"/>
      <point x="18" y="611" type="curve"/>
      <point x="18" y="122" type="line"/>
      <point x="18" y="55"/>
      <point x="73" y="0"/>
      <point x="140" y="0" type="curve" smooth="yes"/>
      <point x="207" y="0"/>
      <point x="262" y="55"/>
      <point x="262" y="122" type="curve"/>
      <point x="262" y="157" type="line"/>
      <point x="224" y="157" type="line"/>
      <point x="224" y="122" type="line"/>
      <point x="224" y="76"/>
      <point x="186" y="38"/>
      <point x="140" y="38" type="curve" smooth="yes"/>
      <point x="94" y="38"/>
      <point x="56" y="76"/>
      <point x="56" y="122" type="curve"/>
      <point x="56" y="348" type="line"/>
      <point x="150" y="348" type="line"/>
      <point x="212" y="348"/>
      <point x="262" y="399"/>
      <point x="262" y="460" type="curve" smooth="yes"/>
      <point x="262" y="471"/>
      <point x="253" y="479"/>
      <point x="243" y="479" type="curve" smooth="yes"/>
      <point x="232" y="479"/>
      <point x="224" y="471"/>
      <point x="224" y="460" type="curve" smooth="yes"/>
      <point x="224" y="419"/>
      <point x="191" y="386"/>
      <point x="150" y="386" type="curve"/>
      <point x="56" y="386" type="line"/>
      <point x="56" y="611" type="line"/>
      <point x="56" y="657"/>
      <point x="94" y="695"/>
      <point x="140" y="695" type="curve" smooth="yes"/>
      <point x="186" y="695"/>
      <point x="224" y="657"/>
      <point x="224" y="611" type="curve"/>
      <point x="224" y="552" type="line"/>
    </contour>
  </outline>
</glyph>
<glyph name="F" format="1">
  <advance width="368"/>
  <unicode hex="0046"/>
  <outline>
    <contour>
      <point x="305" y="551" type="line"/>
      <point x="305" y="610" type="line"/>
      <point x="305" y="677"/>
      <point x="250" y="732"/>
      <point x="183" y="732" type="curve" smooth="yes"/>
      <point x="116" y="732"/>
      <point x="62" y="678"/>
      <point x="61" y="611" type="curve"/>
      <point x="61" y="611" type="line"/>
      <point x="61" y="610" type="line"/>
      <point x="61" y="122" type="line"/>
      <point x="61" y="17" type="line"/>
      <point x="61" y="7"/>
      <point x="70" y="-2"/>
      <point x="80" y="-2" type="curve" smooth="yes"/>
      <point x="91" y="-2"/>
      <point x="99" y="7"/>
      <point x="99" y="17" type="curve"/>
      <point x="99" y="34" type="line"/>
      <point x="99" y="348" type="line"/>
      <point x="193" y="348" type="line"/>
      <point x="255" y="348"/>
      <point x="305" y="398"/>
      <point x="305" y="459" type="curve" smooth="yes"/>
      <point x="305" y="470"/>
      <point x="296" y="478"/>
      <point x="286" y="478" type="curve" smooth="yes"/>
      <point x="275" y="478"/>
      <point x="267" y="470"/>
      <point x="267" y="459" type="curve" smooth="yes"/>
      <point x="267" y="419"/>
      <point x="234" y="386"/>
      <point x="193" y="386" type="curve"/>
      <point x="99" y="386" type="line"/>
      <point x="99" y="610" type="line"/>
      <point x="99" y="656"/>
      <point x="137" y="694"/>
      <point x="183" y="694" type="curve" smooth="yes"/>
      <point x="229" y="694"/>
      <point x="267" y="656"/>
      <point x="267" y="610" type="curve"/>
      <point x="267" y="551" type="line"/>
    </contour>
  </outline>
</glyph>
<glyph name="G" format="1">
  <advance width="359"/>
  <unicode hex="0047"/>
  <outline>
    <contour>
      <point x="310" y="554" type="line"/>
      <point x="310" y="612" type="line"/>
      <point x="310" y="679"/>
      <point x="255" y="734"/>
      <point x="188" y="734" type="curve" smooth="yes"/>
      <point x="121" y="734"/>
      <point x="66" y="679"/>
      <point x="66" y="612" type="curve"/>
      <point x="66" y="123" type="line"/>
      <point x="66" y="56"/>
      <point x="121" y="1"/>
      <point x="188" y="1" type="curve" smooth="yes"/>
      <point x="255" y="1"/>
      <point x="310" y="56"/>
      <point x="310" y="123" type="curve"/>
      <point x="310" y="369" type="line"/>
      <point x="310" y="379"/>
      <point x="301" y="388"/>
      <point x="291" y="388" type="curve"/>
      <point x="272" y="388" type="line"/>
      <point x="234" y="388" type="line"/>
      <point x="172" y="388"/>
      <point x="149" y="310"/>
      <point x="149" y="249" type="curve" smooth="yes"/>
      <point x="149" y="238"/>
      <point x="158" y="230"/>
      <point x="168" y="230" type="curve" smooth="yes"/>
      <point x="179" y="230"/>
      <point x="187" y="238"/>
      <point x="187" y="249" type="curve" smooth="yes"/>
      <point x="187" y="290"/>
      <point x="193" y="350"/>
      <point x="234" y="350" type="curve"/>
      <point x="272" y="350" type="line"/>
      <point x="272" y="123" type="line"/>
      <point x="272" y="77"/>
      <point x="234" y="39"/>
      <point x="188" y="39" type="curve" smooth="yes"/>
      <point x="142" y="39"/>
      <point x="104" y="77"/>
      <point x="104" y="123" type="curve"/>
      <point x="104" y="612" type="line"/>
      <point x="104" y="658"/>
      <point x="142" y="696"/>
      <point x="188" y="696" type="curve" smooth="yes"/>
      <point x="234" y="696"/>
      <point x="272" y="658"/>
      <point x="272" y="612" type="curve"/>
      <point x="272" y="554" type="line"/>
    </contour>
  </outline>
</glyph>
<glyph name="H" format="1">
  <advance width="380"/>
  <unicode hex="0048"/>
  <outline>
    <contour>
      <point x="291" y="733" type="curve" smooth="yes"/>
      <point x="280" y="733"/>
      <point x="272" y="724"/>
      <point x="272" y="714" type="curve"/>
      <point x="272" y="615" type="line"/>
      <point x="272" y="460" type="line"/>
      <point x="272" y="460"/>
      <point x="272" y="460"/>
      <point x="272" y="460" type="curve" smooth="yes"/>
      <point x="272" y="419"/>
      <point x="239" y="386"/>
      <point x="198" y="386" type="curve"/>
      <point x="104" y="386" type="line"/>
      <point x="104" y="614" type="line"/>
      <point x="104" y="713" type="line"/>
      <point x="104" y="724"/>
      <point x="95" y="732"/>
      <point x="85" y="732" type="curve" smooth="yes"/>
      <point x="75" y="732"/>
      <point x="66" y="724"/>
      <point x="66" y="713" type="curve"/>
      <point x="66" y="614" type="line"/>
      <point x="66" y="118" type="line"/>
      <point x="66" y="19" type="line"/>
      <point x="66" y="9"/>
      <point x="75" y="0"/>
      <point x="85" y="0" type="curve" smooth="yes"/>
      <point x="95" y="0"/>
      <point x="104" y="9"/>
      <point x="104" y="19" type="curve"/>
      <point x="104" y="118" type="line"/>
      <point x="104" y="348" type="line"/>
      <point x="198" y="348" type="line"/>
      <point x="226" y="348"/>
      <point x="252" y="359"/>
      <point x="272" y="376" type="curve"/>
      <point x="272" y="119" type="line"/>
      <point x="272" y="20" type="line"/>
      <point x="272" y="10"/>
      <point x="280" y="1"/>
      <point x="291" y="1" type="curve" smooth="yes"/>
      <point x="301" y="1"/>
      <point x="310" y="10"/>
      <point x="310" y="20" type="curve"/>
      <point x="310" y="119" type="line"/>
      <point x="310" y="615" type="line"/>
      <point x="310" y="714" type="line"/>
      <point x="310" y="724"/>
      <point x="301" y="733"/>
    </contour>
  </outline>
</glyph>
<glyph name="I" format="1">
  <advance width="238"/>
  <unicode hex="0049"/>
  <outline>
    <contour>
      <point x="186" y="61" type="curve" smooth="yes"/>
      <point x="186" y="71"/>
      <point x="178" y="80"/>
      <point x="167" y="80" type="curve" smooth="yes"/>
      <point x="157" y="80"/>
      <point x="149" y="71"/>
      <point x="149" y="61" type="curve" smooth="yes"/>
      <point x="149" y="46"/>
      <point x="145" y="38"/>
      <point x="138" y="36" type="curve"/>
      <point x="138" y="117" type="line"/>
      <point x="138" y="612" type="line"/>
      <point x="138" y="695" type="line"/>
      <point x="144" y="695"/>
      <point x="151" y="694"/>
      <point x="157" y="694" type="curve"/>
      <point x="164" y="694" type="line"/>
      <point x="175" y="694"/>
      <point x="183" y="703"/>
      <point x="183" y="713" type="curve" smooth="yes"/>
      <point x="183" y="724"/>
      <point x="175" y="732"/>
      <point x="164" y="732" type="curve"/>
      <point x="157" y="732" type="line"/>
      <point x="96" y="732"/>
      <point x="54" y="732"/>
      <point x="54" y="671" type="curve" smooth="yes"/>
      <point x="54" y="660"/>
      <point x="62" y="652"/>
      <point x="72" y="652" type="curve" smooth="yes"/>
      <point x="83" y="652"/>
      <point x="91" y="660"/>
      <point x="91" y="671" type="curve" smooth="yes"/>
      <point x="91" y="685"/>
      <point x="95" y="692"/>
      <point x="101" y="696" type="curve"/>
      <point x="101" y="612" type="line"/>
      <point x="101" y="117" type="line"/>
      <point x="101" y="36" type="line"/>
      <point x="95" y="37"/>
      <point x="89" y="37"/>
      <point x="82" y="37" type="curve"/>
      <point x="76" y="37" type="line"/>
      <point x="65" y="37"/>
      <point x="57" y="29"/>
      <point x="57" y="18" type="curve" smooth="yes"/>
      <point x="57" y="8"/>
      <point x="65" y="0"/>
      <point x="76" y="0" type="curve"/>
      <point x="82" y="0" type="line"/>
      <point x="93" y="0"/>
      <point x="104" y="0"/>
      <point x="113" y="0" type="curve"/>
      <point x="115" y="-1"/>
      <point x="117" y="-1"/>
      <point x="120" y="-1" type="curve" smooth="yes"/>
      <point x="122" y="-1"/>
      <point x="125" y="-1"/>
      <point x="128" y="1" type="curve"/>
      <point x="164" y="4"/>
      <point x="186" y="16"/>
    </contour>
  </outline>
</glyph>
<glyph name="J" format="1">
  <advance width="197"/>
  <unicode hex="004A"/>
  <outline>
    <contour>
      <point x="172" y="734" type="curve"/>
      <point x="165" y="734" type="line"/>
      <point x="104" y="734"/>
      <point x="61" y="734"/>
      <point x="61" y="672" type="curve" smooth="yes"/>
      <point x="61" y="662"/>
      <point x="70" y="654"/>
      <point x="80" y="654" type="curve" smooth="yes"/>
      <point x="91" y="654"/>
      <point x="99" y="662"/>
      <point x="99" y="672" type="curve" smooth="yes"/>
      <point x="99" y="685"/>
      <point x="102" y="692"/>
      <point x="106" y="696" type="curve"/>
      <point x="106" y="123" type="line"/>
      <point x="106" y="76"/>
      <point x="69" y="39"/>
      <point x="22" y="39" type="curve" smooth="yes"/>
      <point x="12" y="39"/>
      <point x="3" y="30"/>
      <point x="3" y="20" type="curve" smooth="yes"/>
      <point x="3" y="9"/>
      <point x="12" y="1"/>
      <point x="22" y="1" type="curve" smooth="yes"/>
      <point x="89" y="1"/>
      <point x="144" y="56"/>
      <point x="144" y="123" type="curve"/>
      <point x="144" y="697" type="line"/>
      <point x="150" y="696"/>
      <point x="158" y="696"/>
      <point x="165" y="696" type="curve"/>
      <point x="172" y="696" type="line"/>
      <point x="182" y="696"/>
      <point x="191" y="704"/>
      <point x="191" y="715" type="curve" smooth="yes"/>
      <point x="191" y="725"/>
      <point x="182" y="734"/>
    </contour>
  </outline>
</glyph>
<glyph name="K" format="1">
  <advance width="395"/>
  <unicode hex="004B"/>
  <outline>
    <contour>
      <point x="347" y="723" type="curve" smooth="yes"/>
      <point x="284" y="747"/>
      <point x="214" y="715"/>
      <point x="190" y="653" type="curve"/>
      <point x="98" y="458" type="line"/>
      <point x="98" y="609" type="line"/>
      <point x="98" y="656"/>
      <point x="97" y="693"/>
      <point x="144" y="693" type="curve" smooth="yes"/>
      <point x="154" y="693"/>
      <point x="162" y="702"/>
      <point x="162" y="712" type="curve" smooth="yes"/>
      <point x="162" y="723"/>
      <point x="154" y="731"/>
      <point x="144" y="731" type="curve" smooth="yes"/>
      <point x="77" y="731"/>
      <point x="61" y="676"/>
      <point x="61" y="609" type="curve"/>
      <point x="61" y="19" type="line"/>
      <point x="61" y="8"/>
      <point x="69" y="0"/>
      <point x="80" y="0" type="curve" smooth="yes"/>
      <point x="90" y="0"/>
      <point x="98" y="8"/>
      <point x="98" y="19" type="curve"/>
      <point x="98" y="323" type="line"/>
      <point x="202" y="77" type="line"/>
      <point x="227" y="15"/>
      <point x="275" y="-16"/>
      <point x="337" y="9" type="curve" smooth="yes"/>
      <point x="347" y="13"/>
      <point x="352" y="24"/>
      <point x="348" y="34" type="curve" smooth="yes"/>
      <point x="344" y="44"/>
      <point x="333" y="48"/>
      <point x="323" y="44" type="curve" smooth="yes"/>
      <point x="280" y="27"/>
      <point x="255" y="48"/>
      <point x="237" y="91" type="curve"/>
      <point x="113" y="385" type="line"/>
      <point x="112" y="388"/>
      <point x="110" y="391"/>
      <point x="107" y="393" type="curve"/>
      <point x="110" y="395"/>
      <point x="112" y="398"/>
      <point x="113" y="401" type="curve"/>
      <point x="226" y="639" type="line"/>
      <point x="242" y="682"/>
      <point x="290" y="704"/>
      <point x="334" y="688" type="curve" smooth="yes"/>
      <point x="343" y="684"/>
      <point x="354" y="689"/>
      <point x="358" y="699" type="curve" smooth="yes"/>
      <point x="362" y="708"/>
      <point x="357" y="719"/>
    </contour>
  </outline>
</glyph>
<glyph name="L" format="1">
  <advance width="320"/>
  <unicode hex="004C"/>
  <outline>
    <contour>
      <point x="258" y="38" type="curve" smooth="yes"/>
      <point x="211" y="38"/>
      <point x="115" y="35"/>
      <point x="115" y="79" type="curve"/>
      <point x="115" y="645" type="line"/>
      <point x="115" y="645" type="line"/>
      <point x="115" y="714" type="line"/>
      <point x="115" y="724"/>
      <point x="107" y="733"/>
      <point x="96" y="733" type="curve" smooth="yes"/>
      <point x="86" y="733"/>
      <point x="77" y="724"/>
      <point x="77" y="714" type="curve"/>
      <point x="77" y="668" type="line"/>
      <point x="77" y="668"/>
      <point x="77" y="668"/>
      <point x="77" y="668" type="curve"/>
      <point x="77" y="79" type="line"/>
      <point x="77" y="7"/>
      <point x="190" y="0"/>
      <point x="258" y="0" type="curve" smooth="yes"/>
      <point x="268" y="0"/>
      <point x="276" y="8"/>
      <point x="276" y="19" type="curve" smooth="yes"/>
      <point x="276" y="29"/>
      <point x="268" y="38"/>
    </contour>
  </outline>
</glyph>
<glyph name="M" format="1">
  <advance width="579"/>
  <unicode hex="004D"/>
  <outline>
    <contour>
      <point x="391" y="734" type="curve" smooth="yes"/>
      <point x="348" y="734"/>
      <point x="311" y="711"/>
      <point x="289" y="677" type="curve"/>
      <point x="267" y="711"/>
      <point x="230" y="734"/>
      <point x="187" y="734" type="curve" smooth="yes"/>
      <point x="120" y="734"/>
      <point x="65" y="679"/>
      <point x="65" y="612" type="curve"/>
      <point x="65" y="20" type="line"/>
      <point x="65" y="9"/>
      <point x="74" y="1"/>
      <point x="84" y="1" type="curve" smooth="yes"/>
      <point x="94" y="1"/>
      <point x="103" y="9"/>
      <point x="103" y="20" type="curve"/>
      <point x="103" y="612" type="line"/>
      <point x="103" y="658"/>
      <point x="140" y="696"/>
      <point x="187" y="696" type="curve" smooth="yes"/>
      <point x="231" y="696"/>
      <point x="268" y="661"/>
      <point x="270" y="617" type="curve"/>
      <point x="270" y="615"/>
      <point x="270" y="614"/>
      <point x="270" y="612" type="curve"/>
      <point x="270" y="368" type="line"/>
      <point x="270" y="360"/>
      <point x="275" y="353"/>
      <point x="282" y="350" type="curve" smooth="yes"/>
      <point x="284" y="349"/>
      <point x="286" y="349"/>
      <point x="289" y="349" type="curve" smooth="yes"/>
      <point x="299" y="349"/>
      <point x="308" y="357"/>
      <point x="308" y="367" type="curve"/>
      <point x="308" y="612" type="line"/>
      <point x="308" y="614"/>
      <point x="308" y="616"/>
      <point x="308" y="617" type="curve"/>
      <point x="310" y="661"/>
      <point x="347" y="696"/>
      <point x="391" y="696" type="curve" smooth="yes"/>
      <point x="438" y="696"/>
      <point x="475" y="658"/>
      <point x="475" y="612" type="curve"/>
      <point x="475" y="20" type="line"/>
      <point x="475" y="9"/>
      <point x="484" y="1"/>
      <point x="494" y="1" type="curve" smooth="yes"/>
      <point x="504" y="1"/>
      <point x="513" y="9"/>
      <point x="513" y="20" type="curve"/>
      <point x="513" y="612" type="line"/>
      <point x="513" y="679"/>
      <point x="458" y="734"/>
    </contour>
  </outline>
</glyph>
<glyph name="N" format="1">
  <advance width="280"/>
  <unicode hex="004E"/>
  <outline>
    <contour>
      <point x="140" y="733" type="curve" smooth="yes"/>
      <point x="73" y="733"/>
      <point x="18" y="678"/>
      <point x="18" y="611" type="curve"/>
      <point x="18" y="19" type="line"/>
      <point x="18" y="8"/>
      <point x="27" y="0"/>
      <point x="37" y="0" type="curve" smooth="yes"/>
      <point x="48" y="0"/>
      <point x="56" y="8"/>
      <point x="56" y="19" type="curve"/>
      <point x="56" y="611" type="line"/>
      <point x="56" y="658"/>
      <point x="94" y="695"/>
      <point x="140" y="695" type="curve" smooth="yes"/>
      <point x="186" y="695"/>
      <point x="224" y="658"/>
      <point x="224" y="611" type="curve"/>
      <point x="224" y="19" type="line"/>
      <point x="224" y="8"/>
      <point x="232" y="0"/>
      <point x="243" y="0" type="curve" smooth="yes"/>
      <point x="253" y="0"/>
      <point x="261" y="8"/>
      <point x="261" y="19" type="curve"/>
      <point x="261" y="611" type="line"/>
      <point x="261" y="678"/>
      <point x="207" y="733"/>
    </contour>
  </outline>
</glyph>
<glyph name="O" format="1">
  <advance width="280"/>
  <unicode hex="004F"/>
  <outline>
    <contour>
      <point x="140" y="734" type="curve" smooth="yes"/>
      <point x="73" y="734"/>
      <point x="18" y="679"/>
      <point x="18" y="612" type="curve"/>
      <point x="18" y="123" type="line"/>
      <point x="18" y="56"/>
      <point x="73" y="1"/>
      <point x="140" y="1" type="curve" smooth="yes"/>
      <point x="207" y="1"/>
      <point x="262" y="56"/>
      <point x="262" y="123" type="curve"/>
      <point x="262" y="612" type="line"/>
      <point x="262" y="679"/>
      <point x="207" y="734"/>
    </contour>
    <contour>
      <point x="224" y="123" type="line"/>
      <point x="224" y="76"/>
      <point x="186" y="39"/>
      <point x="140" y="39" type="curve" smooth="yes"/>
      <point x="94" y="39"/>
      <point x="56" y="76"/>
      <point x="56" y="123" type="curve"/>
      <point x="56" y="612" type="line"/>
      <point x="56" y="658"/>
      <point x="94" y="696"/>
      <point x="140" y="696" type="curve" smooth="yes"/>
      <point x="186" y="696"/>
      <point x="224" y="658"/>
      <point x="224" y="612" type="curve"/>
      <point x="224" y="452" type="line"/>
      <point x="224" y="451"/>
      <point x="224" y="451"/>
      <point x="224" y="451" type="curve"/>
    </contour>
  </outline>
</glyph>
<glyph name="P" format="1">
  <advance width="266"/>
  <unicode hex="0050"/>
  <outline>
    <contour>
      <point x="263" y="611" type="line"/>
      <point x="263" y="678"/>
      <point x="208" y="732"/>
      <point x="141" y="732" type="curve" smooth="yes"/>
      <point x="74" y="732"/>
      <point x="20" y="679"/>
      <point x="19" y="612" type="curve"/>
      <point x="19" y="612" type="line"/>
      <point x="19" y="611" type="line"/>
      <point x="19" y="123" type="line"/>
      <point x="19" y="19" type="line"/>
      <point x="19" y="8"/>
      <point x="28" y="0"/>
      <point x="38" y="0" type="curve" smooth="yes"/>
      <point x="49" y="0"/>
      <point x="57" y="8"/>
      <point x="57" y="19" type="curve"/>
      <point x="57" y="35" type="line"/>
      <point x="57" y="349" type="line"/>
      <point x="151" y="349" type="line"/>
      <point x="211" y="349"/>
      <point x="260" y="396"/>
      <point x="262" y="455" type="curve"/>
      <point x="263" y="455" type="line"/>
    </contour>
    <contour>
      <point x="151" y="387" type="curve"/>
      <point x="57" y="387" type="line"/>
      <point x="57" y="611" type="line"/>
      <point x="57" y="657"/>
      <point x="95" y="695"/>
      <point x="141" y="695" type="curve" smooth="yes"/>
      <point x="187" y="695"/>
      <point x="225" y="657"/>
      <point x="225" y="611" type="curve"/>
      <point x="225" y="461" type="line"/>
      <point x="225" y="461"/>
      <point x="225" y="460"/>
      <point x="225" y="460" type="curve" smooth="yes"/>
      <point x="225" y="420"/>
      <point x="192" y="387"/>
    </contour>
  </outline>
</glyph>
<glyph name="Q" format="1">
  <advance width="343"/>
  <unicode hex="0051"/>
  <outline>
    <contour>
      <point x="316" y="38" type="curve" smooth="yes"/>
      <point x="270" y="38"/>
      <point x="263" y="76"/>
      <point x="263" y="122" type="curve"/>
      <point x="263" y="250" type="line"/>
      <point x="263" y="250"/>
      <point x="263" y="250"/>
      <point x="263" y="250" type="curve"/>
      <point x="263" y="611" type="line"/>
      <point x="263" y="678"/>
      <point x="208" y="733"/>
      <point x="141" y="733" type="curve" smooth="yes"/>
      <point x="74" y="733"/>
      <point x="19" y="678"/>
      <point x="19" y="611" type="curve"/>
      <point x="19" y="122" type="line"/>
      <point x="19" y="55"/>
      <point x="74" y="0"/>
      <point x="141" y="0" type="curve" smooth="yes"/>
      <point x="181" y="0"/>
      <point x="216" y="19"/>
      <point x="238" y="49" type="curve"/>
      <point x="252" y="19"/>
      <point x="276" y="0"/>
      <point x="316" y="0" type="curve" smooth="yes"/>
      <point x="326" y="0"/>
      <point x="335" y="9"/>
      <point x="335" y="19" type="curve" smooth="yes"/>
      <point x="335" y="30"/>
      <point x="326" y="38"/>
    </contour>
    <contour>
      <point x="141" y="38" type="curve" smooth="yes"/>
      <point x="95" y="38"/>
      <point x="57" y="76"/>
      <point x="57" y="122" type="curve"/>
      <point x="57" y="611" type="line"/>
      <point x="57" y="657"/>
      <point x="95" y="695"/>
      <point x="141" y="695" type="curve" smooth="yes"/>
      <point x="187" y="695"/>
      <point x="225" y="657"/>
      <point x="225" y="611" type="curve"/>
      <point x="225" y="451" type="line"/>
      <point x="225" y="450"/>
      <point x="225" y="450"/>
      <point x="225" y="450" type="curve"/>
      <point x="225" y="250" type="line"/>
      <point x="225" y="250"/>
      <point x="225" y="250"/>
      <point x="225" y="250" type="curve"/>
      <point x="225" y="142" type="line"/>
      <point x="212" y="152"/>
      <point x="194" y="158"/>
      <point x="172" y="158" type="curve" smooth="yes"/>
      <point x="162" y="158"/>
      <point x="153" y="150"/>
      <point x="153" y="139" type="curve" smooth="yes"/>
      <point x="153" y="129"/>
      <point x="162" y="120"/>
      <point x="172" y="120" type="curve" smooth="yes"/>
      <point x="198" y="120"/>
      <point x="212" y="108"/>
      <point x="219" y="89" type="curve"/>
      <point x="206" y="59"/>
      <point x="176" y="38"/>
    </contour>
  </outline>
</glyph>
<glyph name="R" format="1">
  <advance width="353"/>
  <unicode hex="0052"/>
  <outline>
    <contour>
      <point x="306" y="455" type="curve"/>
      <point x="307" y="455" type="line"/>
      <point x="307" y="611" type="line"/>
      <point x="307" y="678"/>
      <point x="252" y="732"/>
      <point x="185" y="732" type="curve" smooth="yes"/>
      <point x="118" y="732"/>
      <point x="64" y="679"/>
      <point x="63" y="612" type="curve"/>
      <point x="63" y="612" type="line"/>
      <point x="63" y="611" type="line"/>
      <point x="63" y="123" type="line"/>
      <point x="63" y="19" type="line"/>
      <point x="63" y="8"/>
      <point x="72" y="0"/>
      <point x="82" y="0" type="curve" smooth="yes"/>
      <point x="93" y="0"/>
      <point x="101" y="8"/>
      <point x="101" y="19" type="curve"/>
      <point x="101" y="35" type="line"/>
      <point x="101" y="349" type="line"/>
      <point x="158" y="349" type="line"/>
      <point x="186" y="112" type="line"/>
      <point x="194" y="46"/>
      <point x="223" y="-6"/>
      <point x="290" y="2" type="curve" smooth="yes"/>
      <point x="300" y="3"/>
      <point x="308" y="13"/>
      <point x="306" y="23" type="curve" smooth="yes"/>
      <point x="305" y="33"/>
      <point x="296" y="41"/>
      <point x="285" y="39" type="curve" smooth="yes"/>
      <point x="240" y="34"/>
      <point x="229" y="71"/>
      <point x="223" y="117" type="curve"/>
      <point x="196" y="349" type="line"/>
      <point x="255" y="349"/>
      <point x="304" y="396"/>
    </contour>
    <contour>
      <point x="195" y="387" type="curve"/>
      <point x="101" y="387" type="line"/>
      <point x="101" y="611" type="line"/>
      <point x="101" y="657"/>
      <point x="139" y="695"/>
      <point x="185" y="695" type="curve" smooth="yes"/>
      <point x="231" y="695"/>
      <point x="269" y="657"/>
      <point x="269" y="611" type="curve"/>
      <point x="269" y="461" type="line"/>
      <point x="269" y="461"/>
      <point x="269" y="461"/>
      <point x="269" y="460" type="curve" smooth="yes"/>
      <point x="269" y="420"/>
      <point x="236" y="387"/>
    </contour>
  </outline>
</glyph>
<glyph name="S" format="1">
  <advance width="338"/>
  <unicode hex="0053"/>
  <outline>
    <contour>
      <point x="289" y="553" type="line"/>
      <point x="289" y="611" type="line"/>
      <point x="289" y="678"/>
      <point x="234" y="733"/>
      <point x="167" y="733" type="curve" smooth="yes"/>
      <point x="100" y="733"/>
      <point x="45" y="678"/>
      <point x="45" y="611" type="curve"/>
      <point x="45" y="462" type="line"/>
      <point x="45" y="461"/>
      <point x="45" y="460"/>
      <point x="45" y="459" type="curve" smooth="yes"/>
      <point x="45" y="456"/>
      <point x="45" y="454"/>
      <point x="45" y="451" type="curve" smooth="yes"/>
      <point x="47" y="426"/>
      <point x="55" y="403"/>
      <point x="69" y="385" type="curve" smooth="yes"/>
      <point x="73" y="379"/>
      <point x="78" y="374"/>
      <point x="83" y="369" type="curve" smooth="yes"/>
      <point x="97" y="357"/>
      <point x="113" y="349"/>
      <point x="131" y="348" type="curve" smooth="yes"/>
      <point x="133" y="347"/>
      <point x="136" y="347"/>
      <point x="139" y="347" type="curve"/>
      <point x="202" y="347" type="line"/>
      <point x="224" y="344"/>
      <point x="242" y="328"/>
      <point x="251" y="305" type="curve"/>
      <point x="251" y="122" type="line"/>
      <point x="251" y="76"/>
      <point x="213" y="38"/>
      <point x="167" y="38" type="curve" smooth="yes"/>
      <point x="121" y="38"/>
      <point x="83" y="76"/>
      <point x="83" y="122" type="curve"/>
      <point x="83" y="158" type="line"/>
      <point x="45" y="158" type="line"/>
      <point x="45" y="122" type="line"/>
      <point x="45" y="55"/>
      <point x="100" y="0"/>
      <point x="167" y="0" type="curve" smooth="yes"/>
      <point x="234" y="0"/>
      <point x="289" y="55"/>
      <point x="289" y="122" type="curve"/>
      <point x="289" y="274" type="line"/>
      <point x="289" y="302"/>
      <point x="280" y="327"/>
      <point x="266" y="347" type="curve" smooth="yes"/>
      <point x="266" y="347"/>
      <point x="265" y="348"/>
      <point x="265" y="348" type="curve" smooth="yes"/>
      <point x="261" y="353"/>
      <point x="256" y="359"/>
      <point x="251" y="363" type="curve" smooth="yes"/>
      <point x="238" y="375"/>
      <point x="221" y="383"/>
      <point x="203" y="385" type="curve" smooth="yes"/>
      <point x="201" y="385"/>
      <point x="198" y="385"/>
      <point x="195" y="385" type="curve"/>
      <point x="132" y="385" type="line"/>
      <point x="111" y="388"/>
      <point x="92" y="404"/>
      <point x="83" y="427" type="curve"/>
      <point x="83" y="611" type="line"/>
      <point x="83" y="657"/>
      <point x="121" y="695"/>
      <point x="167" y="695" type="curve" smooth="yes"/>
      <point x="213" y="695"/>
      <point x="251" y="657"/>
      <point x="251" y="611" type="curve"/>
      <point x="251" y="553" type="line"/>
    </contour>
  </outline>
</glyph>
<glyph name="T" format="1">
  <advance width="406"/>
  <unicode hex="0054"/>
  <outline>
    <contour>
      <point x="336" y="732" type="curve"/>
      <point x="167" y="732" type="line"/>
      <point x="105" y="732"/>
      <point x="55" y="683"/>
      <point x="55" y="621" type="curve" smooth="yes"/>
      <point x="55" y="611"/>
      <point x="64" y="602"/>
      <point x="74" y="602" type="curve" smooth="yes"/>
      <point x="85" y="602"/>
      <point x="93" y="611"/>
      <point x="93" y="621" type="curve" smooth="yes"/>
      <point x="93" y="662"/>
      <point x="126" y="695"/>
      <point x="167" y="695" type="curve"/>
      <point x="192" y="695" type="line"/>
      <point x="192" y="20" type="line"/>
      <point x="192" y="9"/>
      <point x="200" y="1"/>
      <point x="210" y="1" type="curve" smooth="yes"/>
      <point x="221" y="1"/>
      <point x="229" y="9"/>
      <point x="229" y="20" type="curve"/>
      <point x="229" y="695" type="line"/>
      <point x="336" y="695" type="line"/>
      <point x="346" y="695"/>
      <point x="355" y="703"/>
      <point x="355" y="714" type="curve" smooth="yes"/>
      <point x="355" y="724"/>
      <point x="346" y="732"/>
    </contour>
  </outline>
</glyph>
<glyph name="U" format="1">
  <advance width="281"/>
  <unicode hex="0055"/>
  <outline>
    <contour>
      <point x="242" y="732" type="curve" smooth="yes"/>
      <point x="232" y="732"/>
      <point x="224" y="724"/>
      <point x="224" y="713" type="curve"/>
      <point x="224" y="122" type="line"/>
      <point x="224" y="76"/>
      <point x="186" y="39"/>
      <point x="140" y="39" type="curve" smooth="yes"/>
      <point x="94" y="39"/>
      <point x="56" y="76"/>
      <point x="56" y="122" type="curve"/>
      <point x="56" y="713" type="line"/>
      <point x="56" y="724"/>
      <point x="48" y="732"/>
      <point x="38" y="732" type="curve" smooth="yes"/>
      <point x="27" y="732"/>
      <point x="19" y="724"/>
      <point x="19" y="713" type="curve"/>
      <point x="19" y="122" type="line"/>
      <point x="19" y="55"/>
      <point x="73" y="1"/>
      <point x="140" y="1" type="curve" smooth="yes"/>
      <point x="207" y="1"/>
      <point x="261" y="55"/>
      <point x="261" y="122" type="curve"/>
      <point x="261" y="713" type="line"/>
      <point x="261" y="724"/>
      <point x="253" y="732"/>
    </contour>
  </outline>
</glyph>
<glyph name="V" format="1">
  <advance width="359"/>
  <unicode hex="0056"/>
  <outline>
    <contour>
      <point x="253" y="730" type="curve" smooth="yes"/>
      <point x="243" y="733"/>
      <point x="232" y="727"/>
      <point x="229" y="717" type="curve" smooth="yes"/>
      <point x="226" y="707"/>
      <point x="232" y="697"/>
      <point x="241" y="694" type="curve" smooth="yes"/>
      <point x="285" y="680"/>
      <point x="280" y="643"/>
      <point x="267" y="599" type="curve"/>
      <point x="178" y="90" type="line"/>
      <point x="95" y="600" type="line"/>
      <point x="82" y="644"/>
      <point x="78" y="682"/>
      <point x="121" y="694" type="curve" smooth="yes"/>
      <point x="131" y="697"/>
      <point x="137" y="708"/>
      <point x="134" y="718" type="curve" smooth="yes"/>
      <point x="131" y="727"/>
      <point x="121" y="733"/>
      <point x="111" y="730" type="curve" smooth="yes"/>
      <point x="47" y="712"/>
      <point x="40" y="653"/>
      <point x="59" y="589" type="curve"/>
      <point x="158" y="14" type="line"/>
      <point x="161" y="5"/>
      <point x="171" y="-1"/>
      <point x="181" y="2" type="curve" smooth="yes"/>
      <point x="181" y="2"/>
      <point x="182" y="2"/>
      <point x="182" y="2" type="curve"/>
      <point x="188" y="3"/>
      <point x="194" y="8"/>
      <point x="196" y="15" type="curve"/>
      <point x="302" y="588" type="line"/>
      <point x="322" y="651"/>
      <point x="316" y="710"/>
    </contour>
  </outline>
</glyph>
<glyph name="W" format="1">
  <advance width="588"/>
  <unicode hex="0057"/>
  <outline>
    <contour>
      <point x="482" y="732" type="curve" smooth="yes"/>
      <point x="472" y="735"/>
      <point x="461" y="729"/>
      <point x="458" y="719" type="curve" smooth="yes"/>
      <point x="455" y="709"/>
      <point x="461" y="699"/>
      <point x="471" y="695" type="curve" smooth="yes"/>
      <point x="515" y="682"/>
      <point x="510" y="644"/>
      <point x="496" y="599" type="curve"/>
      <point x="406" y="90" type="line"/>
      <point x="322" y="347" type="line"/>
      <point x="308" y="392"/>
      <point x="304" y="430"/>
      <point x="349" y="443" type="curve" smooth="yes"/>
      <point x="359" y="446"/>
      <point x="365" y="456"/>
      <point x="362" y="466" type="curve" smooth="yes"/>
      <point x="359" y="477"/>
      <point x="348" y="482"/>
      <point x="338" y="479" type="curve" smooth="yes"/>
      <point x="319" y="474"/>
      <point x="304" y="464"/>
      <point x="295" y="452" type="curve"/>
      <point x="285" y="465"/>
      <point x="271" y="474"/>
      <point x="251" y="480" type="curve" smooth="yes"/>
      <point x="241" y="483"/>
      <point x="231" y="478"/>
      <point x="228" y="468" type="curve" smooth="yes"/>
      <point x="224" y="458"/>
      <point x="230" y="447"/>
      <point x="240" y="444" type="curve" smooth="yes"/>
      <point x="284" y="430"/>
      <point x="280" y="392"/>
      <point x="266" y="348" type="curve"/>
      <point x="175" y="92" type="line"/>
      <point x="91" y="602" type="line"/>
      <point x="78" y="646"/>
      <point x="73" y="684"/>
      <point x="118" y="698" type="curve" smooth="yes"/>
      <point x="128" y="701"/>
      <point x="134" y="711"/>
      <point x="131" y="721" type="curve" smooth="yes"/>
      <point x="128" y="731"/>
      <point x="117" y="737"/>
      <point x="107" y="734" type="curve" smooth="yes"/>
      <point x="43" y="715"/>
      <point x="35" y="656"/>
      <point x="54" y="591" type="curve"/>
      <point x="155" y="14" type="line"/>
      <point x="158" y="4"/>
      <point x="169" y="-1"/>
      <point x="179" y="2" type="curve" smooth="yes"/>
      <point x="179" y="2"/>
      <point x="179" y="2"/>
      <point x="179" y="2" type="curve"/>
      <point x="186" y="3"/>
      <point x="192" y="8"/>
      <point x="194" y="15" type="curve"/>
      <point x="293" y="310" type="line"/>
      <point x="386" y="13" type="line"/>
      <point x="389" y="3"/>
      <point x="400" y="-3"/>
      <point x="410" y="0" type="curve" smooth="yes"/>
      <point x="410" y="0"/>
      <point x="410" y="0"/>
      <point x="410" y="0" type="curve"/>
      <point x="417" y="1"/>
      <point x="422" y="6"/>
      <point x="425" y="13" type="curve"/>
      <point x="533" y="588" type="line"/>
      <point x="553" y="652"/>
      <point x="546" y="712"/>
    </contour>
  </outline>
</glyph>
<glyph name="X" format="1">
  <advance width="450"/>
  <unicode hex="0058"/>
  <outline>
    <contour>
      <point x="397" y="30" type="curve"/>
      <point x="247" y="331" type="line"/>
      <point x="369" y="576" type="line"/>
      <point x="407" y="633"/>
      <point x="418" y="692"/>
      <point x="361" y="730" type="curve" smooth="yes"/>
      <point x="352" y="736"/>
      <point x="340" y="733"/>
      <point x="335" y="725" type="curve" smooth="yes"/>
      <point x="329" y="716"/>
      <point x="331" y="704"/>
      <point x="340" y="698" type="curve" smooth="yes"/>
      <point x="379" y="672"/>
      <point x="363" y="637"/>
      <point x="337" y="598" type="curve"/>
      <point x="226" y="374" type="line"/>
      <point x="115" y="598" type="line"/>
      <point x="89" y="637"/>
      <point x="73" y="672"/>
      <point x="112" y="698" type="curve" smooth="yes"/>
      <point x="121" y="704"/>
      <point x="123" y="716"/>
      <point x="117" y="725" type="curve" smooth="yes"/>
      <point x="112" y="733"/>
      <point x="100" y="736"/>
      <point x="91" y="730" type="curve" smooth="yes"/>
      <point x="34" y="692"/>
      <point x="45" y="633"/>
      <point x="83" y="576" type="curve"/>
      <point x="205" y="331" type="line"/>
      <point x="55" y="30" type="line"/>
      <point x="49" y="21"/>
      <point x="51" y="9"/>
      <point x="60" y="3" type="curve" smooth="yes"/>
      <point x="69" y="-3"/>
      <point x="81" y="0"/>
      <point x="87" y="9" type="curve"/>
      <point x="226" y="289" type="line"/>
      <point x="365" y="9" type="line"/>
      <point x="371" y="0"/>
      <point x="383" y="-3"/>
      <point x="392" y="3" type="curve" smooth="yes"/>
      <point x="401" y="9"/>
      <point x="403" y="21"/>
    </contour>
  </outline>
</glyph>
<glyph name="Y" format="1">
  <advance width="264"/>
  <unicode hex="0059"/>
  <outline>
    <contour>
      <point x="235" y="734" type="curve" smooth="yes"/>
      <point x="224" y="734"/>
      <point x="216" y="725"/>
      <point x="216" y="715" type="curve"/>
      <point x="216" y="470" type="line"/>
      <point x="216" y="423"/>
      <point x="178" y="386"/>
      <point x="132" y="386" type="curve" smooth="yes"/>
      <point x="86" y="386"/>
      <point x="48" y="423"/>
      <point x="48" y="470" type="curve"/>
      <point x="48" y="715" type="line"/>
      <point x="48" y="726"/>
      <point x="40" y="734"/>
      <point x="29" y="734" type="curve" smooth="yes"/>
      <point x="19" y="734"/>
      <point x="10" y="726"/>
      <point x="10" y="715" type="curve"/>
      <point x="10" y="470" type="line"/>
      <point x="10" y="409"/>
      <point x="55" y="359"/>
      <point x="113" y="349" type="curve"/>
      <point x="113" y="19" type="line"/>
      <point x="113" y="9"/>
      <point x="122" y="0"/>
      <point x="132" y="0" type="curve" smooth="yes"/>
      <point x="142" y="0"/>
      <point x="151" y="9"/>
      <point x="151" y="19" type="curve"/>
      <point x="151" y="349" type="line"/>
      <point x="209" y="359"/>
      <point x="254" y="409"/>
      <point x="254" y="470" type="curve"/>
      <point x="254" y="715" type="line"/>
      <point x="254" y="725"/>
      <point x="245" y="734"/>
    </contour>
  </outline>
</glyph>
<glyph name="Z" format="1">
  <advance width="356"/>
  <unicode hex="005A"/>
  <outline>
    <contour>
      <point x="286" y="109" type="curve" smooth="yes"/>
      <point x="275" y="109"/>
      <point x="267" y="100"/>
      <point x="267" y="89" type="curve" smooth="yes"/>
      <point x="267" y="48"/>
      <point x="257" y="38"/>
      <point x="216" y="38" type="curve"/>
      <point x="98" y="38" type="line"/>
      <point x="301" y="707" type="line"/>
      <point x="301" y="707" type="line"/>
      <point x="302" y="709"/>
      <point x="302" y="711"/>
      <point x="302" y="713" type="curve" smooth="yes"/>
      <point x="302" y="724"/>
      <point x="293" y="732"/>
      <point x="283" y="732" type="curve"/>
      <point x="147" y="732" type="line"/>
      <point x="85" y="732"/>
      <point x="58" y="705"/>
      <point x="58" y="643" type="curve" smooth="yes"/>
      <point x="58" y="633"/>
      <point x="67" y="624"/>
      <point x="77" y="624" type="curve" smooth="yes"/>
      <point x="88" y="624"/>
      <point x="96" y="633"/>
      <point x="96" y="643" type="curve" smooth="yes"/>
      <point x="96" y="684"/>
      <point x="106" y="694"/>
      <point x="147" y="694" type="curve"/>
      <point x="260" y="694" type="line"/>
      <point x="59" y="32" type="line"/>
      <point x="59" y="32"/>
      <point x="59" y="31"/>
      <point x="59" y="30" type="curve"/>
      <point x="58" y="28"/>
      <point x="57" y="24"/>
      <point x="57" y="19" type="curve" smooth="yes"/>
      <point x="57" y="19"/>
      <point x="57" y="18"/>
      <point x="57" y="17" type="curve"/>
      <point x="57" y="13"/>
      <point x="59" y="9"/>
      <point x="62" y="5" type="curve" smooth="yes"/>
      <point x="65" y="3"/>
      <point x="68" y="1"/>
      <point x="72" y="1" type="curve"/>
      <point x="73" y="1"/>
      <point x="75" y="0"/>
      <point x="76" y="0" type="curve"/>
      <point x="216" y="0" type="line"/>
      <point x="278" y="0"/>
      <point x="305" y="27"/>
      <point x="305" y="89" type="curve" smooth="yes"/>
      <point x="305" y="100"/>
      <point x="296" y="109"/>
    </contour>
  </outline>
</glyph>
<glyph name="bracketleft" format="1">
  <advance width="224"/>
  <unicode hex="005B"/>
  <outline>
    <contour>
      <point x="69" y="0" type="line"/>
      <point x="160" y="0" type="line"/>
      <point x="171" y="0"/>
      <point x="179" y="8"/>
      <point x="179" y="19" type="curve" smooth="yes"/>
      <point x="179" y="30"/>
      <point x="171" y="39"/>
      <point x="160" y="39" type="curve"/>
      <point x="107" y="39" type="line"/>
      <point x="107" y="694" type="line"/>
      <point x="160" y="694" type="line"/>
      <point x="171" y="694"/>
      <point x="179" y="703"/>
      <point x="179" y="713" type="curve" smooth="yes"/>
      <point x="179" y="724"/>
      <point x="171" y="733"/>
      <point x="160" y="733" type="curve"/>
      <point x="69" y="733" type="line"/>
    </contour>
  </outline>
</glyph>
<glyph name="backslash" format="1">
  <advance width="318"/>
  <unicode hex="005C"/>
  <outline>
    <contour>
      <point x="17" y="732" type="curve" smooth="yes"/>
      <point x="28" y="736"/>
      <point x="40" y="731"/>
      <point x="44" y="720" type="curve"/>
      <point x="82" y="616" type="line"/>
      <point x="275" y="50" type="line"/>
      <point x="313" y="-53" type="line"/>
      <point x="317" y="-64"/>
      <point x="311" y="-76"/>
      <point x="300" y="-80" type="curve" smooth="yes"/>
      <point x="289" y="-84"/>
      <point x="277" y="-79"/>
      <point x="273" y="-68" type="curve"/>
      <point x="236" y="36" type="line"/>
      <point x="43" y="602" type="line"/>
      <point x="5" y="705" type="line"/>
      <point x="1" y="716"/>
      <point x="7" y="728"/>
    </contour>
  </outline>
</glyph>
<glyph name="bracketright" format="1">
  <advance width="252"/>
  <unicode hex="005D"/>
  <outline>
    <contour>
      <point x="174" y="0" type="line"/>
      <point x="83" y="0" type="line"/>
      <point x="72" y="0"/>
      <point x="63" y="9"/>
      <point x="63" y="19" type="curve" smooth="yes"/>
      <point x="63" y="30"/>
      <point x="72" y="39"/>
      <point x="83" y="39" type="curve"/>
      <point x="135" y="39" type="line"/>
      <point x="135" y="695" type="line"/>
      <point x="83" y="695" type="line"/>
      <point x="72" y="695"/>
      <point x="63" y="704"/>
      <point x="63" y="714" type="curve" smooth="yes"/>
      <point x="63" y="725"/>
      <point x="72" y="734"/>
      <point x="83" y="734" type="curve"/>
      <point x="174" y="734" type="line"/>
    </contour>
  </outline>
</glyph>
<glyph name="asciicircum" format="1">
  <advance width="453"/>
  <unicode hex="005E"/>
  <outline>
    <contour>
      <point x="398" y="561" type="curve" smooth="yes"/>
      <point x="398" y="566"/>
      <point x="395" y="571"/>
      <point x="392" y="574" type="curve"/>
      <point x="230" y="770" type="line"/>
      <point x="74" y="574" type="line"/>
      <point x="70" y="571"/>
      <point x="68" y="565"/>
      <point x="68" y="560" type="curve" smooth="yes"/>
      <point x="68" y="555"/>
      <point x="70" y="550"/>
      <point x="73" y="546" type="curve" smooth="yes"/>
      <point x="77" y="541"/>
      <point x="82" y="539"/>
      <point x="88" y="539" type="curve" smooth="yes"/>
      <point x="88" y="539" type="line" smooth="yes"/>
      <point x="93" y="539"/>
      <point x="98" y="541"/>
      <point x="102" y="544" type="curve"/>
      <point x="103" y="545" type="line"/>
      <point x="231" y="710" type="line"/>
      <point x="363" y="545" type="line"/>
      <point x="364" y="544" type="line"/>
      <point x="368" y="541"/>
      <point x="373" y="539"/>
      <point x="377" y="539" type="curve" smooth="yes"/>
      <point x="383" y="539"/>
      <point x="389" y="541"/>
      <point x="393" y="546" type="curve" smooth="yes"/>
      <point x="397" y="550"/>
      <point x="398" y="555"/>
    </contour>
  </outline>
</glyph>
<glyph name="underscore" format="1">
  <advance width="716"/>
  <unicode hex="005F"/>
  <outline>
    <contour>
      <point x="696" y="-17" type="curve" smooth="yes"/>
      <point x="696" y="-6"/>
      <point x="687" y="2"/>
      <point x="677" y="2" type="curve"/>
      <point x="634" y="2" type="line"/>
      <point x="138" y="2" type="line"/>
      <point x="39" y="2" type="line" smooth="yes"/>
      <point x="28" y="2"/>
      <point x="20" y="-6"/>
      <point x="20" y="-17" type="curve" smooth="yes"/>
      <point x="20" y="-27"/>
      <point x="28" y="-36"/>
      <point x="39" y="-36" type="curve"/>
      <point x="138" y="-36" type="line"/>
      <point x="634" y="-36" type="line"/>
      <point x="677" y="-36" type="line" smooth="yes"/>
      <point x="687" y="-36"/>
      <point x="696" y="-27"/>
    </contour>
  </outline>
</glyph>
<glyph name="grave" format="1">
  <advance width="169"/>
  <unicode hex="0060"/>
  <outline>
    <contour>
      <point x="7" y="641" type="curve" smooth="yes"/>
      <point x="12" y="650"/>
      <point x="23" y="653"/>
      <point x="32" y="648" type="curve"/>
      <point x="116" y="603" type="line"/>
      <point x="69" y="628" type="line"/>
      <point x="153" y="583" type="line"/>
      <point x="162" y="578"/>
      <point x="165" y="567"/>
      <point x="161" y="559" type="curve" smooth="yes"/>
      <point x="156" y="550"/>
      <point x="145" y="546"/>
      <point x="136" y="551" type="curve"/>
      <point x="52" y="596" type="line"/>
      <point x="99" y="571" type="line"/>
      <point x="15" y="616" type="line"/>
      <point x="6" y="621"/>
      <point x="3" y="632"/>
    </contour>
  </outline>
</glyph>
<glyph name="a" format="1">
  <advance width="352"/>
  <unicode hex="0061"/>
  <outline>
    <contour>
      <point x="329" y="35" type="curve" smooth="yes"/>
      <point x="285" y="35"/>
      <point x="249" y="70"/>
      <point x="249" y="114" type="curve"/>
      <point x="249" y="403" type="line"/>
      <point x="249" y="406"/>
      <point x="249" y="408"/>
      <point x="248" y="410" type="curve"/>
      <point x="248" y="474"/>
      <point x="196" y="525"/>
      <point x="133" y="525" type="curve" smooth="yes"/>
      <point x="69" y="525"/>
      <point x="18" y="473"/>
      <point x="18" y="410" type="curve"/>
      <point x="18" y="120" type="line"/>
      <point x="18" y="56"/>
      <point x="69" y="5"/>
      <point x="133" y="5" type="curve" smooth="yes"/>
      <point x="173" y="5"/>
      <point x="208" y="26"/>
      <point x="229" y="57" type="curve"/>
      <point x="249" y="22"/>
      <point x="286" y="-1"/>
      <point x="329" y="-1" type="curve" smooth="yes"/>
      <point x="338" y="-1"/>
      <point x="346" y="7"/>
      <point x="346" y="17" type="curve" smooth="yes"/>
      <point x="346" y="27"/>
      <point x="338" y="35"/>
    </contour>
    <contour>
      <point x="212" y="120" type="line"/>
      <point x="212" y="76"/>
      <point x="176" y="41"/>
      <point x="133" y="41" type="curve" smooth="yes"/>
      <point x="89" y="41"/>
      <point x="53" y="76"/>
      <point x="53" y="120" type="curve"/>
      <point x="53" y="410" type="line"/>
      <point x="53" y="454"/>
      <point x="89" y="489"/>
      <point x="133" y="489" type="curve" smooth="yes"/>
      <point x="176" y="489"/>
      <point x="212" y="454"/>
      <point x="212" y="410" type="curve"/>
    </contour>
  </outline>
</glyph>
<glyph name="b" format="1">
  <advance width="343"/>
  <unicode hex="0062"/>
  <outline>
    <contour>
      <point x="180" y="534" type="curve" smooth="yes"/>
      <point x="149" y="534"/>
      <point x="120" y="521"/>
      <point x="99" y="501" type="curve"/>
      <point x="99" y="655" type="line"/>
      <point x="99" y="700"/>
      <point x="135" y="736"/>
      <point x="180" y="736" type="curve" smooth="yes"/>
      <point x="190" y="736"/>
      <point x="198" y="745"/>
      <point x="198" y="755" type="curve" smooth="yes"/>
      <point x="198" y="765"/>
      <point x="190" y="773"/>
      <point x="180" y="773" type="curve" smooth="yes"/>
      <point x="115" y="773"/>
      <point x="62" y="720"/>
      <point x="62" y="655" type="curve"/>
      <point x="62" y="119" type="line"/>
      <point x="62" y="54"/>
      <point x="115" y="1"/>
      <point x="180" y="1" type="curve" smooth="yes"/>
      <point x="245" y="1"/>
      <point x="298" y="54"/>
      <point x="298" y="119" type="curve"/>
      <point x="298" y="416" type="line"/>
      <point x="298" y="481"/>
      <point x="245" y="534"/>
    </contour>
    <contour>
      <point x="261" y="119" type="line"/>
      <point x="261" y="74"/>
      <point x="225" y="37"/>
      <point x="180" y="37" type="curve" smooth="yes"/>
      <point x="135" y="37"/>
      <point x="99" y="74"/>
      <point x="99" y="119" type="curve"/>
      <point x="99" y="416" type="line"/>
      <point x="99" y="460"/>
      <point x="135" y="497"/>
      <point x="180" y="497" type="curve" smooth="yes"/>
      <point x="225" y="497"/>
      <point x="261" y="460"/>
      <point x="261" y="416" type="curve"/>
      <point x="261" y="174" type="line"/>
      <point x="261" y="174"/>
      <point x="261" y="173"/>
      <point x="261" y="173" type="curve"/>
    </contour>
  </outline>
</glyph>
<glyph name="c" format="1">
  <advance width="333"/>
  <unicode hex="0063"/>
  <outline>
    <contour>
      <point x="290" y="390" type="line"/>
      <point x="290" y="412" type="line"/>
      <point x="290" y="477"/>
      <point x="238" y="530"/>
      <point x="173" y="530" type="curve" smooth="yes"/>
      <point x="108" y="530"/>
      <point x="56" y="477"/>
      <point x="56" y="412" type="curve"/>
      <point x="56" y="117" type="line"/>
      <point x="56" y="53"/>
      <point x="108" y="0"/>
      <point x="173" y="0" type="curve" smooth="yes"/>
      <point x="238" y="0"/>
      <point x="290" y="53"/>
      <point x="290" y="117" type="curve"/>
      <point x="290" y="140" type="line"/>
      <point x="254" y="140" type="line"/>
      <point x="254" y="117" type="line"/>
      <point x="254" y="73"/>
      <point x="218" y="36"/>
      <point x="173" y="36" type="curve" smooth="yes"/>
      <point x="128" y="36"/>
      <point x="92" y="73"/>
      <point x="92" y="117" type="curve"/>
      <point x="92" y="412" type="line"/>
      <point x="92" y="457"/>
      <point x="128" y="493"/>
      <point x="173" y="493" type="curve" smooth="yes"/>
      <point x="218" y="493"/>
      <point x="254" y="457"/>
      <point x="254" y="412" type="curve"/>
      <point x="254" y="390" type="line"/>
    </contour>
  </outline>
</glyph>
<glyph name="d" format="1">
  <advance width="263"/>
  <unicode hex="0064"/>
  <outline>
    <contour>
      <point x="126" y="772" type="curve" smooth="yes"/>
      <point x="116" y="772"/>
      <point x="108" y="764"/>
      <point x="108" y="754" type="curve" smooth="yes"/>
      <point x="108" y="744"/>
      <point x="116" y="735"/>
      <point x="126" y="735" type="curve" smooth="yes"/>
      <point x="171" y="735"/>
      <point x="207" y="699"/>
      <point x="207" y="654" type="curve"/>
      <point x="207" y="500" type="line"/>
      <point x="186" y="520"/>
      <point x="158" y="532"/>
      <point x="126" y="532" type="curve" smooth="yes"/>
      <point x="61" y="532"/>
      <point x="8" y="479"/>
      <point x="8" y="414" type="curve"/>
      <point x="8" y="117" type="line"/>
      <point x="8" y="52"/>
      <point x="61" y="-1"/>
      <point x="126" y="-1" type="curve" smooth="yes"/>
      <point x="191" y="-1"/>
      <point x="244" y="52"/>
      <point x="244" y="117" type="curve"/>
      <point x="244" y="654" type="line"/>
      <point x="244" y="719"/>
      <point x="191" y="772"/>
    </contour>
    <contour>
      <point x="207" y="117" type="line"/>
      <point x="207" y="72"/>
      <point x="171" y="35"/>
      <point x="126" y="35" type="curve" smooth="yes"/>
      <point x="81" y="35"/>
      <point x="45" y="72"/>
      <point x="45" y="117" type="curve"/>
      <point x="45" y="171" type="line"/>
      <point x="45" y="172"/>
      <point x="45" y="172"/>
      <point x="45" y="172" type="curve"/>
      <point x="45" y="414" type="line"/>
      <point x="45" y="459"/>
      <point x="81" y="496"/>
      <point x="126" y="496" type="curve" smooth="yes"/>
      <point x="171" y="496"/>
      <point x="207" y="459"/>
      <point x="207" y="414" type="curve"/>
    </contour>
  </outline>
</glyph>
<glyph name="e" format="1">
  <advance width="265"/>
  <unicode hex="0065"/>
  <outline>
    <contour>
      <point x="161" y="236" type="line"/>
      <point x="181" y="236"/>
      <point x="199" y="244"/>
      <point x="214" y="258" type="curve" smooth="yes"/>
      <point x="236" y="277"/>
      <point x="250" y="308"/>
      <point x="250" y="343" type="curve"/>
      <point x="250" y="411" type="line"/>
      <point x="250" y="475"/>
      <point x="198" y="527"/>
      <point x="134" y="527" type="curve" smooth="yes"/>
      <point x="70" y="527"/>
      <point x="18" y="475"/>
      <point x="18" y="411" type="curve"/>
      <point x="18" y="118" type="line"/>
      <point x="18" y="53"/>
      <point x="70" y="1"/>
      <point x="134" y="1" type="curve" smooth="yes"/>
      <point x="198" y="1"/>
      <point x="250" y="53"/>
      <point x="250" y="118" type="curve"/>
      <point x="250" y="144" type="line"/>
      <point x="214" y="144" type="line"/>
      <point x="214" y="118" type="line"/>
      <point x="214" y="73"/>
      <point x="178" y="37"/>
      <point x="134" y="37" type="curve" smooth="yes"/>
      <point x="90" y="37"/>
      <point x="54" y="73"/>
      <point x="54" y="118" type="curve"/>
      <point x="54" y="236" type="line"/>
    </contour>
    <contour>
      <point x="54" y="411" type="line"/>
      <point x="54" y="455"/>
      <point x="90" y="491"/>
      <point x="134" y="491" type="curve" smooth="yes"/>
      <point x="178" y="491"/>
      <point x="214" y="455"/>
      <point x="214" y="411" type="curve"/>
      <point x="214" y="313" type="line"/>
      <point x="205" y="289"/>
      <point x="184" y="273"/>
      <point x="161" y="273" type="curve"/>
      <point x="54" y="273" type="line"/>
    </contour>
  </outline>
</glyph>
<glyph name="f" format="1">
  <advance width="294"/>
  <unicode hex="0066"/>
  <outline>
    <contour>
      <point x="159" y="573" type="curve"/>
      <point x="159" y="656" type="line"/>
      <point x="159" y="700"/>
      <point x="195" y="737"/>
      <point x="240" y="737" type="curve" smooth="yes"/>
      <point x="250" y="737"/>
      <point x="258" y="745"/>
      <point x="258" y="755" type="curve" smooth="yes"/>
      <point x="258" y="765"/>
      <point x="250" y="773"/>
      <point x="240" y="773" type="curve" smooth="yes"/>
      <point x="175" y="773"/>
      <point x="122" y="720"/>
      <point x="122" y="656" type="curve"/>
      <point x="122" y="573" type="line"/>
      <point x="54" y="573" type="line"/>
      <point x="44" y="573"/>
      <point x="36" y="565"/>
      <point x="36" y="555" type="curve" smooth="yes"/>
      <point x="36" y="545"/>
      <point x="44" y="536"/>
      <point x="54" y="536" type="curve"/>
      <point x="122" y="536" type="line"/>
      <point x="122" y="19" type="line"/>
      <point x="122" y="9"/>
      <point x="130" y="1"/>
      <point x="140" y="1" type="curve" smooth="yes"/>
      <point x="150" y="1"/>
      <point x="159" y="9"/>
      <point x="159" y="19" type="curve"/>
      <point x="159" y="536" type="line"/>
      <point x="192" y="535"/>
      <point x="218" y="527"/>
      <point x="218" y="491" type="curve" smooth="yes"/>
      <point x="218" y="481"/>
      <point x="226" y="473"/>
      <point x="236" y="473" type="curve" smooth="yes"/>
      <point x="247" y="473"/>
      <point x="255" y="481"/>
      <point x="255" y="491" type="curve" smooth="yes"/>
      <point x="255" y="547"/>
      <point x="213" y="570"/>
    </contour>
  </outline>
</glyph>
<glyph name="g" format="1">
  <advance width="259"/>
  <unicode hex="0067"/>
  <outline>
    <contour>
      <point x="124" y="527" type="curve" smooth="yes"/>
      <point x="60" y="527"/>
      <point x="8" y="474"/>
      <point x="8" y="410" type="curve"/>
      <point x="8" y="117" type="line"/>
      <point x="8" y="53"/>
      <point x="60" y="1"/>
      <point x="124" y="1" type="curve" smooth="yes"/>
      <point x="155" y="1"/>
      <point x="183" y="13"/>
      <point x="204" y="33" type="curve"/>
      <point x="204" y="-122" type="line"/>
      <point x="204" y="-166"/>
      <point x="168" y="-202"/>
      <point x="124" y="-202" type="curve" smooth="yes"/>
      <point x="114" y="-202"/>
      <point x="106" y="-210"/>
      <point x="106" y="-220" type="curve" smooth="yes"/>
      <point x="106" y="-230"/>
      <point x="114" y="-238"/>
      <point x="124" y="-238" type="curve" smooth="yes"/>
      <point x="188" y="-238"/>
      <point x="240" y="-186"/>
      <point x="240" y="-122" type="curve"/>
      <point x="240" y="410" type="line"/>
      <point x="240" y="474"/>
      <point x="188" y="527"/>
    </contour>
    <contour>
      <point x="204" y="117" type="line"/>
      <point x="204" y="73"/>
      <point x="168" y="37"/>
      <point x="124" y="37" type="curve" smooth="yes"/>
      <point x="80" y="37"/>
      <point x="44" y="73"/>
      <point x="44" y="117" type="curve"/>
      <point x="44" y="356" type="line"/>
      <point x="44" y="356"/>
      <point x="44" y="356"/>
      <point x="44" y="357" type="curve"/>
      <point x="44" y="410" type="line"/>
      <point x="44" y="455"/>
      <point x="80" y="491"/>
      <point x="124" y="491" type="curve" smooth="yes"/>
      <point x="168" y="491"/>
      <point x="204" y="455"/>
      <point x="204" y="410" type="curve"/>
    </contour>
  </outline>
</glyph>
<glyph name="h" format="1">
  <advance width="262"/>
  <unicode hex="0068"/>
  <outline>
    <contour>
      <point x="253" y="420" type="curve"/>
      <point x="253" y="18" type="line"/>
      <point x="253" y="8"/>
      <point x="245" y="0"/>
      <point x="235" y="0" type="curve" smooth="yes"/>
      <point x="225" y="0"/>
      <point x="217" y="8"/>
      <point x="217" y="18" type="curve"/>
      <point x="217" y="420" type="line"/>
      <point x="217" y="464"/>
      <point x="181" y="501"/>
      <point x="136" y="501" type="curve" smooth="yes"/>
      <point x="91" y="501"/>
      <point x="55" y="464"/>
      <point x="55" y="420" type="curve"/>
      <point x="55" y="18" type="line"/>
      <point x="55" y="8"/>
      <point x="47" y="0"/>
      <point x="37" y="0" type="curve" smooth="yes"/>
      <point x="27" y="0"/>
      <point x="19" y="8"/>
      <point x="19" y="18" type="curve"/>
      <point x="19" y="657" type="line"/>
      <point x="19" y="721"/>
      <point x="71" y="774"/>
      <point x="136" y="774" type="curve" smooth="yes"/>
      <point x="146" y="774"/>
      <point x="154" y="766"/>
      <point x="154" y="756" type="curve" smooth="yes"/>
      <point x="154" y="746"/>
      <point x="146" y="738"/>
      <point x="136" y="738" type="curve" smooth="yes"/>
      <point x="91" y="738"/>
      <point x="55" y="701"/>
      <point x="55" y="657" type="curve"/>
      <point x="55" y="505" type="line"/>
      <point x="76" y="525"/>
      <point x="105" y="537"/>
      <point x="136" y="537" type="curve" smooth="yes"/>
      <point x="201" y="537"/>
      <point x="253" y="484"/>
    </contour>
  </outline>
</glyph>
<glyph name="i" format="1">
  <advance width="215"/>
  <unicode hex="0069"/>
  <outline>
    <contour>
      <point x="64" y="528" type="curve" smooth="yes"/>
      <point x="128" y="528"/>
      <point x="150" y="476"/>
      <point x="150" y="412" type="curve"/>
      <point x="150" y="18" type="line"/>
      <point x="150" y="8"/>
      <point x="142" y="0"/>
      <point x="132" y="0" type="curve" smooth="yes"/>
      <point x="122" y="0"/>
      <point x="114" y="8"/>
      <point x="114" y="18" type="curve"/>
      <point x="114" y="412" type="line"/>
      <point x="114" y="456"/>
      <point x="108" y="492"/>
      <point x="64" y="492" type="curve" smooth="yes"/>
      <point x="54" y="492"/>
      <point x="46" y="500"/>
      <point x="46" y="510" type="curve" smooth="yes"/>
      <point x="46" y="519"/>
      <point x="54" y="528"/>
    </contour>
    <contour>
      <point x="132" y="561" type="curve" smooth="yes"/>
      <point x="142" y="561"/>
      <point x="150" y="569"/>
      <point x="150" y="579" type="curve"/>
      <point x="150" y="592" type="line"/>
      <point x="150" y="602"/>
      <point x="142" y="610"/>
      <point x="132" y="610" type="curve" smooth="yes"/>
      <point x="122" y="610"/>
      <point x="114" y="602"/>
      <point x="114" y="592" type="curve"/>
      <point x="114" y="579" type="line"/>
      <point x="114" y="569"/>
      <point x="122" y="561"/>
    </contour>
  </outline>
</glyph>
<glyph name="j" format="1">
  <advance width="235"/>
  <unicode hex="006A"/>
  <outline>
    <contour>
      <point x="152" y="528" type="curve" smooth="yes"/>
      <point x="142" y="528"/>
      <point x="134" y="520"/>
      <point x="134" y="510" type="curve"/>
      <point x="134" y="-120" type="line"/>
      <point x="134" y="-164"/>
      <point x="98" y="-200"/>
      <point x="54" y="-200" type="curve" smooth="yes"/>
      <point x="44" y="-200"/>
      <point x="36" y="-208"/>
      <point x="36" y="-218" type="curve" smooth="yes"/>
      <point x="36" y="-228"/>
      <point x="44" y="-236"/>
      <point x="54" y="-236" type="curve" smooth="yes"/>
      <point x="118" y="-236"/>
      <point x="170" y="-184"/>
      <point x="170" y="-120" type="curve"/>
      <point x="170" y="510" type="line"/>
      <point x="170" y="520"/>
      <point x="162" y="528"/>
    </contour>
    <contour>
      <point x="152" y="609" type="curve" smooth="yes"/>
      <point x="142" y="609"/>
      <point x="134" y="601"/>
      <point x="134" y="591" type="curve"/>
      <point x="134" y="578" type="line"/>
      <point x="134" y="568"/>
      <point x="142" y="559"/>
      <point x="152" y="559" type="curve" smooth="yes"/>
      <point x="162" y="559"/>
      <point x="170" y="568"/>
      <point x="170" y="578" type="curve"/>
      <point x="170" y="591" type="line"/>
      <point x="170" y="601"/>
      <point x="162" y="609"/>
    </contour>
  </outline>
</glyph>
<glyph name="k" format="1">
  <advance width="280"/>
  <unicode hex="006B"/>
  <outline>
    <contour>
      <point x="276" y="32" type="curve" smooth="yes"/>
      <point x="272" y="41"/>
      <point x="262" y="46"/>
      <point x="252" y="42" type="curve" smooth="yes"/>
      <point x="211" y="25"/>
      <point x="163" y="46"/>
      <point x="147" y="87" type="curve"/>
      <point x="60" y="301" type="line"/>
      <point x="59" y="304"/>
      <point x="57" y="306"/>
      <point x="55" y="308" type="curve"/>
      <point x="61" y="309"/>
      <point x="66" y="313"/>
      <point x="69" y="319" type="curve"/>
      <point x="122" y="451" type="line"/>
      <point x="138" y="492"/>
      <point x="186" y="512"/>
      <point x="227" y="496" type="curve" smooth="yes"/>
      <point x="237" y="492"/>
      <point x="247" y="496"/>
      <point x="251" y="506" type="curve" smooth="yes"/>
      <point x="255" y="515"/>
      <point x="250" y="526"/>
      <point x="241" y="530" type="curve" smooth="yes"/>
      <point x="181" y="554"/>
      <point x="112" y="525"/>
      <point x="88" y="464" type="curve"/>
      <point x="55" y="383" type="line"/>
      <point x="55" y="655" type="line"/>
      <point x="55" y="700"/>
      <point x="92" y="736"/>
      <point x="136" y="736" type="curve" smooth="yes"/>
      <point x="147" y="736"/>
      <point x="155" y="745"/>
      <point x="155" y="755" type="curve" smooth="yes"/>
      <point x="155" y="765"/>
      <point x="147" y="773"/>
      <point x="136" y="773" type="curve" smooth="yes"/>
      <point x="71" y="773"/>
      <point x="19" y="720"/>
      <point x="19" y="655" type="curve"/>
      <point x="19" y="18" type="line"/>
      <point x="19" y="8"/>
      <point x="27" y="0"/>
      <point x="37" y="0" type="curve" smooth="yes"/>
      <point x="47" y="0"/>
      <point x="55" y="8"/>
      <point x="55" y="18" type="curve"/>
      <point x="55" y="215" type="line"/>
      <point x="113" y="74" type="line"/>
      <point x="137" y="13"/>
      <point x="206" y="-16"/>
      <point x="266" y="8" type="curve" smooth="yes"/>
      <point x="275" y="12"/>
      <point x="280" y="23"/>
    </contour>
  </outline>
</glyph>
<glyph name="l" format="1">
  <advance width="155"/>
  <unicode hex="006C"/>
  <outline>
    <contour>
      <point x="137" y="772" type="curve" smooth="yes"/>
      <point x="72" y="772"/>
      <point x="19" y="719"/>
      <point x="19" y="654" type="curve"/>
      <point x="19" y="18" type="line"/>
      <point x="19" y="8"/>
      <point x="27" y="0"/>
      <point x="37" y="0" type="curve" smooth="yes"/>
      <point x="47" y="0"/>
      <point x="56" y="8"/>
      <point x="56" y="18" type="curve"/>
      <point x="56" y="654" type="line"/>
      <point x="56" y="699"/>
      <point x="92" y="735"/>
      <point x="137" y="735" type="curve" smooth="yes"/>
      <point x="147" y="735"/>
      <point x="155" y="744"/>
      <point x="155" y="754" type="curve" smooth="yes"/>
      <point x="155" y="764"/>
      <point x="147" y="772"/>
    </contour>
  </outline>
</glyph>
<glyph name="m" format="1">
  <advance width="598"/>
  <unicode hex="006D"/>
  <outline>
    <contour>
      <point x="415" y="526" type="curve" smooth="yes"/>
      <point x="373" y="526"/>
      <point x="336" y="504"/>
      <point x="316" y="471" type="curve"/>
      <point x="295" y="504"/>
      <point x="258" y="526"/>
      <point x="217" y="526" type="curve" smooth="yes"/>
      <point x="178" y="526"/>
      <point x="145" y="508"/>
      <point x="123" y="479" type="curve"/>
      <point x="111" y="508"/>
      <point x="87" y="526"/>
      <point x="49" y="526" type="curve" smooth="yes"/>
      <point x="39" y="526"/>
      <point x="31" y="518"/>
      <point x="31" y="508" type="curve" smooth="yes"/>
      <point x="31" y="498"/>
      <point x="39" y="490"/>
      <point x="49" y="490" type="curve" smooth="yes"/>
      <point x="93" y="490"/>
      <point x="100" y="454"/>
      <point x="100" y="410" type="curve"/>
      <point x="100" y="288" type="line"/>
      <point x="100" y="287"/>
      <point x="100" y="285"/>
      <point x="100" y="284" type="curve"/>
      <point x="100" y="16" type="line"/>
      <point x="100" y="6"/>
      <point x="108" y="-2"/>
      <point x="118" y="-2" type="curve" smooth="yes"/>
      <point x="128" y="-2"/>
      <point x="136" y="6"/>
      <point x="136" y="16" type="curve"/>
      <point x="136" y="410" type="line"/>
      <point x="136" y="454"/>
      <point x="172" y="490"/>
      <point x="217" y="490" type="curve" smooth="yes"/>
      <point x="261" y="490"/>
      <point x="297" y="454"/>
      <point x="297" y="410" type="curve"/>
      <point x="297" y="16" type="line"/>
      <point x="297" y="6"/>
      <point x="305" y="-2"/>
      <point x="315" y="-2" type="curve" smooth="yes"/>
      <point x="316" y="-2"/>
      <point x="316" y="-2"/>
      <point x="317" y="-2" type="curve"/>
      <point x="327" y="-2"/>
      <point x="334" y="6"/>
      <point x="334" y="16" type="curve"/>
      <point x="334" y="410" type="line"/>
      <point x="334" y="454"/>
      <point x="370" y="490"/>
      <point x="415" y="490" type="curve" smooth="yes"/>
      <point x="459" y="490"/>
      <point x="495" y="454"/>
      <point x="495" y="410" type="curve"/>
      <point x="495" y="16" type="line"/>
      <point x="495" y="6"/>
      <point x="503" y="-2"/>
      <point x="513" y="-2" type="curve" smooth="yes"/>
      <point x="523" y="-2"/>
      <point x="531" y="6"/>
      <point x="531" y="16" type="curve"/>
      <point x="531" y="410" type="line"/>
      <point x="531" y="474"/>
      <point x="479" y="526"/>
    </contour>
  </outline>
</glyph>
<glyph name="n" format="1">
  <advance width="332"/>
  <unicode hex="006E"/>
  <outline>
    <contour>
      <point x="196" y="527" type="curve" smooth="yes"/>
      <point x="158" y="527"/>
      <point x="124" y="509"/>
      <point x="103" y="480" type="curve"/>
      <point x="90" y="509"/>
      <point x="66" y="527"/>
      <point x="28" y="527" type="curve" smooth="yes"/>
      <point x="18" y="527"/>
      <point x="10" y="519"/>
      <point x="10" y="509" type="curve" smooth="yes"/>
      <point x="10" y="499"/>
      <point x="18" y="491"/>
      <point x="28" y="491" type="curve" smooth="yes"/>
      <point x="73" y="491"/>
      <point x="79" y="455"/>
      <point x="79" y="411" type="curve"/>
      <point x="79" y="289" type="line"/>
      <point x="79" y="288"/>
      <point x="79" y="286"/>
      <point x="79" y="285" type="curve"/>
      <point x="79" y="18" type="line"/>
      <point x="79" y="8"/>
      <point x="87" y="0"/>
      <point x="97" y="0" type="curve" smooth="yes"/>
      <point x="107" y="0"/>
      <point x="115" y="8"/>
      <point x="115" y="18" type="curve"/>
      <point x="115" y="411" type="line"/>
      <point x="115" y="455"/>
      <point x="151" y="491"/>
      <point x="196" y="491" type="curve" smooth="yes"/>
      <point x="240" y="491"/>
      <point x="276" y="455"/>
      <point x="276" y="411" type="curve"/>
      <point x="276" y="18" type="line"/>
      <point x="276" y="8"/>
      <point x="284" y="0"/>
      <point x="294" y="0" type="curve" smooth="yes"/>
      <point x="304" y="0"/>
      <point x="312" y="8"/>
      <point x="312" y="18" type="curve"/>
      <point x="312" y="411" type="line"/>
      <point x="312" y="475"/>
      <point x="260" y="527"/>
    </contour>
  </outline>
</glyph>
<glyph name="o" format="1">
  <advance width="270"/>
  <unicode hex="006F"/>
  <outline>
    <contour>
      <point x="135" y="-2" type="curve" smooth="yes"/>
      <point x="199" y="-2"/>
      <point x="252" y="51"/>
      <point x="252" y="115" type="curve"/>
      <point x="252" y="409" type="line"/>
      <point x="252" y="474"/>
      <point x="199" y="526"/>
      <point x="135" y="526" type="curve" smooth="yes"/>
      <point x="71" y="526"/>
      <point x="18" y="474"/>
      <point x="18" y="409" type="curve"/>
      <point x="18" y="115" type="line"/>
      <point x="18" y="51"/>
      <point x="71" y="-2"/>
    </contour>
    <contour>
      <point x="54" y="409" type="line"/>
      <point x="54" y="454"/>
      <point x="91" y="490"/>
      <point x="135" y="490" type="curve" smooth="yes"/>
      <point x="179" y="490"/>
      <point x="216" y="454"/>
      <point x="216" y="409" type="curve"/>
      <point x="216" y="115" type="line"/>
      <point x="216" y="71"/>
      <point x="179" y="34"/>
      <point x="135" y="34" type="curve" smooth="yes"/>
      <point x="91" y="34"/>
      <point x="54" y="71"/>
      <point x="54" y="115" type="curve"/>
      <point x="54" y="354" type="line"/>
      <point x="54" y="355"/>
      <point x="54" y="355"/>
      <point x="54" y="355" type="curve"/>
    </contour>
  </outline>
</glyph>
<glyph name="p" format="1">
  <advance width="365"/>
  <unicode hex="0070"/>
  <outline>
    <contour>
      <point x="197" y="528" type="curve" smooth="yes"/>
      <point x="165" y="528"/>
      <point x="137" y="515"/>
      <point x="115" y="495" type="curve"/>
      <point x="115" y="508" type="line"/>
      <point x="115" y="519"/>
      <point x="107" y="527"/>
      <point x="97" y="527" type="curve" smooth="yes"/>
      <point x="87" y="527"/>
      <point x="79" y="519"/>
      <point x="79" y="508" type="curve"/>
      <point x="79" y="-125" type="line"/>
      <point x="79" y="-169"/>
      <point x="43" y="-206"/>
      <point x="-2" y="-206" type="curve" smooth="yes"/>
      <point x="-12" y="-206"/>
      <point x="-20" y="-214"/>
      <point x="-20" y="-224" type="curve" smooth="yes"/>
      <point x="-20" y="-234"/>
      <point x="-12" y="-242"/>
      <point x="-2" y="-242" type="curve" smooth="yes"/>
      <point x="63" y="-242"/>
      <point x="115" y="-189"/>
      <point x="115" y="-125" type="curve"/>
      <point x="115" y="32" type="line"/>
      <point x="137" y="11"/>
      <point x="165" y="-1"/>
      <point x="197" y="-1" type="curve" smooth="yes"/>
      <point x="261" y="-1"/>
      <point x="314" y="51"/>
      <point x="314" y="116" type="curve"/>
      <point x="314" y="411" type="line"/>
      <point x="314" y="475"/>
      <point x="261" y="528"/>
    </contour>
    <contour>
      <point x="278" y="116" type="line"/>
      <point x="278" y="71"/>
      <point x="241" y="35"/>
      <point x="197" y="35" type="curve" smooth="yes"/>
      <point x="152" y="35"/>
      <point x="116" y="71"/>
      <point x="116" y="116" type="curve"/>
      <point x="116" y="411" type="line"/>
      <point x="116" y="455"/>
      <point x="152" y="492"/>
      <point x="197" y="492" type="curve" smooth="yes"/>
      <point x="241" y="492"/>
      <point x="278" y="455"/>
      <point x="278" y="411" type="curve"/>
    </contour>
  </outline>
</glyph>
<glyph name="q" format="1">
  <advance width="368"/>
  <unicode hex="0071"/>
  <outline>
    <contour>
      <point x="369" y="-207" type="curve" smooth="yes"/>
      <point x="325" y="-207"/>
      <point x="288" y="-170"/>
      <point x="288" y="-126" type="curve"/>
      <point x="288" y="507" type="line"/>
      <point x="288" y="517"/>
      <point x="280" y="526"/>
      <point x="270" y="526" type="curve" smooth="yes"/>
      <point x="260" y="526"/>
      <point x="252" y="517"/>
      <point x="252" y="507" type="curve"/>
      <point x="252" y="494" type="line"/>
      <point x="231" y="514"/>
      <point x="202" y="527"/>
      <point x="171" y="527" type="curve" smooth="yes"/>
      <point x="106" y="527"/>
      <point x="53" y="474"/>
      <point x="53" y="410" type="curve"/>
      <point x="53" y="115" type="line"/>
      <point x="53" y="50"/>
      <point x="106" y="-2"/>
      <point x="171" y="-2" type="curve" smooth="yes"/>
      <point x="202" y="-2"/>
      <point x="231" y="10"/>
      <point x="252" y="31" type="curve"/>
      <point x="252" y="-126" type="line"/>
      <point x="252" y="-190"/>
      <point x="304" y="-243"/>
      <point x="369" y="-243" type="curve" smooth="yes"/>
      <point x="379" y="-243"/>
      <point x="387" y="-235"/>
      <point x="387" y="-225" type="curve" smooth="yes"/>
      <point x="387" y="-215"/>
      <point x="379" y="-207"/>
    </contour>
    <contour>
      <point x="251" y="356" type="line"/>
      <point x="251" y="355"/>
      <point x="251" y="355"/>
      <point x="251" y="355" type="curve"/>
      <point x="251" y="115" type="line"/>
      <point x="251" y="70"/>
      <point x="215" y="34"/>
      <point x="171" y="34" type="curve" smooth="yes"/>
      <point x="126" y="34"/>
      <point x="90" y="70"/>
      <point x="90" y="115" type="curve"/>
      <point x="90" y="410" type="line"/>
      <point x="90" y="454"/>
      <point x="126" y="491"/>
      <point x="171" y="491" type="curve" smooth="yes"/>
      <point x="215" y="491"/>
      <point x="251" y="454"/>
      <point x="251" y="410" type="curve"/>
    </contour>
  </outline>
</glyph>
<glyph name="r" format="1">
  <advance width="152"/>
  <unicode hex="0072"/>
  <outline>
    <contour>
      <point x="134" y="525" type="curve" smooth="yes"/>
      <point x="70" y="525"/>
      <point x="18" y="473"/>
      <point x="18" y="410" type="curve"/>
      <point x="18" y="17" type="line"/>
      <point x="18" y="7"/>
      <point x="26" y="-1"/>
      <point x="36" y="-1" type="curve" smooth="yes"/>
      <point x="46" y="-1"/>
      <point x="54" y="7"/>
      <point x="54" y="17" type="curve"/>
      <point x="54" y="410" type="line"/>
      <point x="54" y="454"/>
      <point x="90" y="489"/>
      <point x="134" y="489" type="curve" smooth="yes"/>
      <point x="144" y="489"/>
      <point x="152" y="497"/>
      <point x="152" y="507" type="curve" smooth="yes"/>
      <point x="152" y="517"/>
      <point x="144" y="525"/>
    </contour>
  </outline>
</glyph>
<glyph name="s" format="1">
  <advance width="264"/>
  <unicode hex="0073"/>
  <outline>
    <contour>
      <point x="249" y="390" type="line"/>
      <point x="249" y="410" type="line"/>
      <point x="249" y="474"/>
      <point x="196" y="527"/>
      <point x="132" y="527" type="curve" smooth="yes"/>
      <point x="67" y="527"/>
      <point x="15" y="474"/>
      <point x="15" y="410" type="curve"/>
      <point x="15" y="346" type="line"/>
      <point x="15" y="319"/>
      <point x="24" y="294"/>
      <point x="38" y="275" type="curve" smooth="yes"/>
      <point x="42" y="270"/>
      <point x="46" y="264"/>
      <point x="51" y="260" type="curve" smooth="yes"/>
      <point x="65" y="248"/>
      <point x="82" y="240"/>
      <point x="101" y="239" type="curve"/>
      <point x="161" y="239" type="line"/>
      <point x="163" y="239"/>
      <point x="164" y="239"/>
      <point x="165" y="239" type="curve" smooth="yes"/>
      <point x="185" y="237"/>
      <point x="203" y="224"/>
      <point x="212" y="204" type="curve"/>
      <point x="212" y="171" type="line"/>
      <point x="212" y="170"/>
      <point x="212" y="170"/>
      <point x="213" y="170" type="curve"/>
      <point x="213" y="116" type="line"/>
      <point x="213" y="71"/>
      <point x="176" y="35"/>
      <point x="132" y="35" type="curve" smooth="yes"/>
      <point x="87" y="35"/>
      <point x="51" y="71"/>
      <point x="51" y="116" type="curve"/>
      <point x="51" y="140" type="line"/>
      <point x="15" y="140" type="line"/>
      <point x="15" y="116" type="line"/>
      <point x="15" y="51"/>
      <point x="68" y="-1"/>
      <point x="132" y="-1" type="curve" smooth="yes"/>
      <point x="196" y="-1"/>
      <point x="249" y="51"/>
      <point x="249" y="116" type="curve"/>
      <point x="249" y="194" type="line"/>
      <point x="245" y="211"/>
      <point x="238" y="226"/>
      <point x="229" y="239" type="curve" smooth="yes"/>
      <point x="224" y="245"/>
      <point x="219" y="251"/>
      <point x="212" y="256" type="curve" smooth="yes"/>
      <point x="199" y="267"/>
      <point x="183" y="274"/>
      <point x="166" y="275" type="curve"/>
      <point x="105" y="275" type="line"/>
      <point x="104" y="275"/>
      <point x="103" y="275"/>
      <point x="101" y="275" type="curve" smooth="yes"/>
      <point x="79" y="277"/>
      <point x="60" y="293"/>
      <point x="51" y="316" type="curve"/>
      <point x="51" y="410" type="line"/>
      <point x="51" y="454"/>
      <point x="87" y="490"/>
      <point x="132" y="490" type="curve" smooth="yes"/>
      <point x="176" y="490"/>
      <point x="212" y="454"/>
      <point x="212" y="410" type="curve"/>
      <point x="212" y="390" type="line"/>
    </contour>
  </outline>
</glyph>
<glyph name="t" format="1">
  <advance width="297"/>
  <unicode hex="0074"/>
  <outline>
    <contour>
      <point x="234" y="36" type="curve" smooth="yes"/>
      <point x="189" y="36"/>
      <point x="153" y="73"/>
      <point x="153" y="117" type="curve"/>
      <point x="153" y="535" type="line"/>
      <point x="208" y="538"/>
      <point x="250" y="561"/>
      <point x="250" y="617" type="curve" smooth="yes"/>
      <point x="250" y="627"/>
      <point x="242" y="635"/>
      <point x="232" y="635" type="curve" smooth="yes"/>
      <point x="222" y="635"/>
      <point x="214" y="627"/>
      <point x="214" y="617" type="curve" smooth="yes"/>
      <point x="214" y="581"/>
      <point x="187" y="573"/>
      <point x="153" y="572" type="curve"/>
      <point x="153" y="755" type="line"/>
      <point x="153" y="765"/>
      <point x="145" y="773"/>
      <point x="135" y="773" type="curve" smooth="yes"/>
      <point x="124" y="773"/>
      <point x="116" y="765"/>
      <point x="116" y="755" type="curve"/>
      <point x="116" y="571" type="line"/>
      <point x="50" y="571" type="line"/>
      <point x="40" y="571"/>
      <point x="31" y="563"/>
      <point x="31" y="553" type="curve" smooth="yes"/>
      <point x="31" y="543"/>
      <point x="40" y="535"/>
      <point x="50" y="535" type="curve"/>
      <point x="116" y="535" type="line"/>
      <point x="116" y="117" type="line"/>
      <point x="116" y="53"/>
      <point x="169" y="0"/>
      <point x="234" y="0" type="curve" smooth="yes"/>
      <point x="244" y="0"/>
      <point x="252" y="8"/>
      <point x="252" y="18" type="curve" smooth="yes"/>
      <point x="252" y="28"/>
      <point x="244" y="36"/>
    </contour>
  </outline>
</glyph>
<glyph name="u" format="1">
  <advance width="329"/>
  <unicode hex="0075"/>
  <outline>
    <contour>
      <point x="301" y="36" type="curve" smooth="yes"/>
      <point x="257" y="36"/>
      <point x="251" y="72"/>
      <point x="251" y="116" type="curve"/>
      <point x="251" y="237" type="line"/>
      <point x="251" y="238"/>
      <point x="251" y="238"/>
      <point x="251" y="239" type="curve"/>
      <point x="251" y="509" type="line"/>
      <point x="251" y="519"/>
      <point x="243" y="527"/>
      <point x="233" y="527" type="curve" smooth="yes"/>
      <point x="223" y="527"/>
      <point x="215" y="519"/>
      <point x="215" y="509" type="curve"/>
      <point x="215" y="116" type="line"/>
      <point x="215" y="72"/>
      <point x="179" y="36"/>
      <point x="135" y="36" type="curve" smooth="yes"/>
      <point x="90" y="36"/>
      <point x="55" y="72"/>
      <point x="55" y="116" type="curve"/>
      <point x="55" y="509" type="line"/>
      <point x="55" y="519"/>
      <point x="46" y="527"/>
      <point x="37" y="527" type="curve" smooth="yes"/>
      <point x="27" y="527"/>
      <point x="19" y="519"/>
      <point x="19" y="509" type="curve"/>
      <point x="19" y="116" type="line"/>
      <point x="19" y="52"/>
      <point x="71" y="0"/>
      <point x="135" y="0" type="curve" smooth="yes"/>
      <point x="173" y="0"/>
      <point x="206" y="18"/>
      <point x="227" y="46" type="curve"/>
      <point x="240" y="18"/>
      <point x="264" y="0"/>
      <point x="301" y="0" type="curve" smooth="yes"/>
      <point x="311" y="0"/>
      <point x="319" y="8"/>
      <point x="319" y="18" type="curve" smooth="yes"/>
      <point x="319" y="28"/>
      <point x="311" y="36"/>
    </contour>
  </outline>
</glyph>
<glyph name="v" format="1">
  <advance width="324"/>
  <unicode hex="0076"/>
  <outline>
    <contour>
      <point x="238" y="523" type="curve" smooth="yes"/>
      <point x="229" y="526"/>
      <point x="219" y="520"/>
      <point x="216" y="511" type="curve" smooth="yes"/>
      <point x="213" y="502"/>
      <point x="218" y="492"/>
      <point x="227" y="489" type="curve" smooth="yes"/>
      <point x="269" y="476"/>
      <point x="264" y="440"/>
      <point x="251" y="399" type="curve"/>
      <point x="167" y="83" type="line"/>
      <point x="88" y="399" type="line"/>
      <point x="76" y="441"/>
      <point x="72" y="477"/>
      <point x="113" y="489" type="curve" smooth="yes"/>
      <point x="123" y="492"/>
      <point x="128" y="502"/>
      <point x="125" y="511" type="curve" smooth="yes"/>
      <point x="123" y="521"/>
      <point x="113" y="526"/>
      <point x="103" y="523" type="curve" smooth="yes"/>
      <point x="43" y="505"/>
      <point x="36" y="450"/>
      <point x="54" y="389" type="curve"/>
      <point x="148" y="11" type="line"/>
      <point x="151" y="1"/>
      <point x="161" y="-4"/>
      <point x="170" y="-1" type="curve" smooth="yes"/>
      <point x="170" y="-1"/>
      <point x="170" y="-1"/>
      <point x="171" y="-1" type="curve"/>
      <point x="177" y="0"/>
      <point x="182" y="4"/>
      <point x="184" y="11" type="curve"/>
      <point x="285" y="388" type="line"/>
      <point x="304" y="448"/>
      <point x="298" y="504"/>
    </contour>
  </outline>
</glyph>
<glyph name="w" format="1">
  <advance width="561"/>
  <unicode hex="0077"/>
  <outline>
    <contour>
      <point x="460" y="524" type="curve" smooth="yes"/>
      <point x="450" y="527"/>
      <point x="440" y="522"/>
      <point x="437" y="513" type="curve" smooth="yes"/>
      <point x="434" y="503"/>
      <point x="440" y="493"/>
      <point x="449" y="490" type="curve" smooth="yes"/>
      <point x="491" y="477"/>
      <point x="486" y="442"/>
      <point x="473" y="400" type="curve"/>
      <point x="388" y="82" type="line"/>
      <point x="309" y="324" type="line"/>
      <point x="297" y="366"/>
      <point x="293" y="402"/>
      <point x="334" y="414" type="curve" smooth="yes"/>
      <point x="344" y="417"/>
      <point x="349" y="427"/>
      <point x="347" y="436" type="curve" smooth="yes"/>
      <point x="344" y="446"/>
      <point x="334" y="451"/>
      <point x="324" y="448" type="curve" smooth="yes"/>
      <point x="306" y="443"/>
      <point x="293" y="434"/>
      <point x="283" y="423" type="curve"/>
      <point x="274" y="434"/>
      <point x="261" y="443"/>
      <point x="243" y="449" type="curve" smooth="yes"/>
      <point x="233" y="452"/>
      <point x="223" y="447"/>
      <point x="220" y="437" type="curve" smooth="yes"/>
      <point x="217" y="428"/>
      <point x="223" y="418"/>
      <point x="232" y="415" type="curve" smooth="yes"/>
      <point x="274" y="402"/>
      <point x="269" y="366"/>
      <point x="256" y="324" type="curve"/>
      <point x="171" y="84" type="line"/>
      <point x="92" y="402" type="line"/>
      <point x="80" y="444"/>
      <point x="76" y="480"/>
      <point x="118" y="492" type="curve" smooth="yes"/>
      <point x="127" y="495"/>
      <point x="132" y="505"/>
      <point x="130" y="514" type="curve" smooth="yes"/>
      <point x="127" y="524"/>
      <point x="117" y="529"/>
      <point x="108" y="527" type="curve" smooth="yes"/>
      <point x="47" y="509"/>
      <point x="40" y="453"/>
      <point x="58" y="392" type="curve"/>
      <point x="153" y="11" type="line"/>
      <point x="155" y="2"/>
      <point x="165" y="-4"/>
      <point x="175" y="-1" type="curve" smooth="yes"/>
      <point x="175" y="-1"/>
      <point x="175" y="-1"/>
      <point x="175" y="-1" type="curve"/>
      <point x="181" y="1"/>
      <point x="187" y="5"/>
      <point x="189" y="11" type="curve"/>
      <point x="282" y="290" type="line"/>
      <point x="369" y="10" type="line"/>
      <point x="372" y="0"/>
      <point x="382" y="-5"/>
      <point x="392" y="-2" type="curve" smooth="yes"/>
      <point x="392" y="-2"/>
      <point x="392" y="-2"/>
      <point x="392" y="-2" type="curve"/>
      <point x="398" y="-1"/>
      <point x="404" y="4"/>
      <point x="406" y="10" type="curve"/>
      <point x="507" y="389" type="line"/>
      <point x="526" y="450"/>
      <point x="520" y="506"/>
    </contour>
  </outline>
</glyph>
<glyph name="x" format="1">
  <advance width="394"/>
  <unicode hex="0078"/>
  <outline>
    <contour>
      <point x="217" y="228" type="line"/>
      <point x="308" y="378" type="line"/>
      <point x="346" y="430"/>
      <point x="359" y="485"/>
      <point x="307" y="523" type="curve" smooth="yes"/>
      <point x="299" y="529"/>
      <point x="288" y="527"/>
      <point x="282" y="519" type="curve" smooth="yes"/>
      <point x="276" y="511"/>
      <point x="278" y="500"/>
      <point x="286" y="494" type="curve" smooth="yes"/>
      <point x="321" y="468"/>
      <point x="305" y="435"/>
      <point x="279" y="400" type="curve"/>
      <point x="196" y="262" type="line"/>
      <point x="113" y="400" type="line"/>
      <point x="87" y="435"/>
      <point x="71" y="468"/>
      <point x="106" y="494" type="curve" smooth="yes"/>
      <point x="114" y="500"/>
      <point x="116" y="511"/>
      <point x="110" y="519" type="curve" smooth="yes"/>
      <point x="104" y="527"/>
      <point x="93" y="529"/>
      <point x="85" y="523" type="curve" smooth="yes"/>
      <point x="33" y="485"/>
      <point x="46" y="430"/>
      <point x="84" y="378" type="curve"/>
      <point x="175" y="228" type="line"/>
      <point x="54" y="28" type="line"/>
      <point x="48" y="20"/>
      <point x="50" y="8"/>
      <point x="58" y="2" type="curve" smooth="yes"/>
      <point x="66" y="-3"/>
      <point x="77" y="-2"/>
      <point x="83" y="6" type="curve"/>
      <point x="196" y="193" type="line"/>
      <point x="309" y="6" type="line"/>
      <point x="315" y="-2"/>
      <point x="326" y="-3"/>
      <point x="334" y="2" type="curve" smooth="yes"/>
      <point x="342" y="8"/>
      <point x="344" y="20"/>
      <point x="338" y="28" type="curve"/>
    </contour>
  </outline>
</glyph>
<glyph name="y" format="1">
  <advance width="353"/>
  <unicode hex="0079"/>
  <outline>
    <contour>
      <point x="285" y="508" type="curve" smooth="yes"/>
      <point x="285" y="509"/>
      <point x="284" y="509"/>
      <point x="284" y="510" type="curve"/>
      <point x="284" y="510"/>
      <point x="284" y="510"/>
      <point x="284" y="510" type="curve"/>
      <point x="283" y="519"/>
      <point x="276" y="525"/>
      <point x="267" y="525" type="curve" smooth="yes"/>
      <point x="258" y="525"/>
      <point x="250" y="519"/>
      <point x="249" y="510" type="curve"/>
      <point x="249" y="510"/>
      <point x="249" y="510"/>
      <point x="249" y="510" type="curve"/>
      <point x="249" y="509"/>
      <point x="249" y="509"/>
      <point x="249" y="508" type="curve" smooth="yes"/>
      <point x="249" y="508"/>
      <point x="249" y="507"/>
      <point x="249" y="507" type="curve"/>
      <point x="249" y="116" type="line"/>
      <point x="249" y="72"/>
      <point x="213" y="36"/>
      <point x="169" y="36" type="curve" smooth="yes"/>
      <point x="125" y="36"/>
      <point x="89" y="72"/>
      <point x="89" y="116" type="curve"/>
      <point x="89" y="507" type="line"/>
      <point x="89" y="517"/>
      <point x="81" y="525"/>
      <point x="71" y="525" type="curve" smooth="yes"/>
      <point x="61" y="525"/>
      <point x="53" y="517"/>
      <point x="53" y="507" type="curve"/>
      <point x="53" y="116" type="line"/>
      <point x="53" y="52"/>
      <point x="105" y="0"/>
      <point x="169" y="0" type="curve" smooth="yes"/>
      <point x="200" y="0"/>
      <point x="228" y="12"/>
      <point x="249" y="32" type="curve"/>
      <point x="249" y="-118" type="line"/>
      <point x="249" y="-162"/>
      <point x="213" y="-198"/>
      <point x="169" y="-198" type="curve" smooth="yes"/>
      <point x="159" y="-198"/>
      <point x="151" y="-206"/>
      <point x="151" y="-216" type="curve" smooth="yes"/>
      <point x="151" y="-226"/>
      <point x="159" y="-234"/>
      <point x="169" y="-234" type="curve" smooth="yes"/>
      <point x="233" y="-234"/>
      <point x="285" y="-182"/>
      <point x="285" y="-118" type="curve"/>
      <point x="285" y="507" type="line"/>
      <point x="285" y="507"/>
      <point x="285" y="508"/>
    </contour>
  </outline>
</glyph>
<glyph name="z" format="1">
  <advance width="270"/>
  <unicode hex="007A"/>
  <outline>
    <contour>
      <point x="235" y="103" type="curve" smooth="yes"/>
      <point x="225" y="103"/>
      <point x="217" y="94"/>
      <point x="217" y="84" type="curve" smooth="yes"/>
      <point x="217" y="46"/>
      <point x="208" y="36"/>
      <point x="169" y="36" type="curve"/>
      <point x="60" y="36" type="line"/>
      <point x="248" y="500" type="line"/>
      <point x="250" y="503"/>
      <point x="251" y="506"/>
      <point x="251" y="509" type="curve" smooth="yes"/>
      <point x="251" y="519"/>
      <point x="243" y="527"/>
      <point x="233" y="527" type="curve"/>
      <point x="104" y="527" type="line"/>
      <point x="45" y="527"/>
      <point x="19" y="501"/>
      <point x="19" y="443" type="curve" smooth="yes"/>
      <point x="19" y="433"/>
      <point x="27" y="424"/>
      <point x="37" y="424" type="curve" smooth="yes"/>
      <point x="47" y="424"/>
      <point x="55" y="433"/>
      <point x="55" y="443" type="curve" smooth="yes"/>
      <point x="55" y="481"/>
      <point x="65" y="491"/>
      <point x="104" y="491" type="curve"/>
      <point x="207" y="491" type="line"/>
      <point x="21" y="30" type="line"/>
      <point x="20" y="30"/>
      <point x="20" y="29"/>
      <point x="20" y="28" type="curve"/>
      <point x="19" y="26"/>
      <point x="18" y="22"/>
      <point x="18" y="18" type="curve" smooth="yes"/>
      <point x="18" y="17"/>
      <point x="18" y="16"/>
      <point x="19" y="16" type="curve"/>
      <point x="19" y="12"/>
      <point x="20" y="8"/>
      <point x="23" y="5" type="curve" smooth="yes"/>
      <point x="26" y="2"/>
      <point x="29" y="1"/>
      <point x="32" y="0" type="curve"/>
      <point x="34" y="0"/>
      <point x="35" y="0"/>
      <point x="36" y="0" type="curve"/>
      <point x="169" y="0" type="line"/>
      <point x="228" y="0"/>
      <point x="253" y="26"/>
      <point x="253" y="84" type="curve" smooth="yes"/>
      <point x="253" y="94"/>
      <point x="245" y="103"/>
    </contour>
  </outline>
</glyph>
<glyph name="braceleft" format="1">
  <advance width="205"/>
  <unicode hex="007B"/>
  <outline>
    <contour>
      <point x="90" y="432" type="curve"/>
      <point x="90" y="773" type="line"/>
      <point x="179" y="773" type="line"/>
      <point x="190" y="773"/>
      <point x="198" y="762"/>
      <point x="198" y="749" type="curve" smooth="yes"/>
      <point x="198" y="736"/>
      <point x="190" y="725"/>
      <point x="179" y="725" type="curve"/>
      <point x="128" y="725" type="line"/>
      <point x="128" y="425" type="line"/>
      <point x="124" y="420" type="line"/>
      <point x="90" y="374" type="line"/>
      <point x="50" y="321" type="line"/>
      <point x="90" y="268" type="line"/>
      <point x="124" y="224" type="line"/>
      <point x="128" y="218" type="line"/>
      <point x="128" y="-84" type="line"/>
      <point x="179" y="-84" type="line"/>
      <point x="190" y="-84"/>
      <point x="198" y="-95"/>
      <point x="198" y="-108" type="curve" smooth="yes"/>
      <point x="198" y="-121"/>
      <point x="190" y="-132"/>
      <point x="179" y="-132" type="curve"/>
      <point x="90" y="-132" type="line"/>
      <point x="90" y="209" type="line"/>
      <point x="90" y="209"/>
      <point x="2" y="296"/>
      <point x="2" y="321" type="curve" smooth="yes"/>
      <point x="2" y="345"/>
      <point x="90" y="432"/>
    </contour>
  </outline>
</glyph>
<glyph name="bar" format="1">
  <advance width="82"/>
  <unicode hex="007C"/>
  <outline>
    <contour>
      <point x="39" y="732" type="curve" smooth="yes"/>
      <point x="28" y="732"/>
      <point x="20" y="723"/>
      <point x="20" y="713" type="curve"/>
      <point x="20" y="614" type="line"/>
      <point x="20" y="118" type="line"/>
      <point x="20" y="19" type="line"/>
      <point x="20" y="8"/>
      <point x="28" y="0"/>
      <point x="39" y="0" type="curve" smooth="yes"/>
      <point x="49" y="0"/>
      <point x="58" y="8"/>
      <point x="58" y="19" type="curve"/>
      <point x="58" y="118" type="line"/>
      <point x="58" y="614" type="line"/>
      <point x="58" y="713" type="line"/>
      <point x="58" y="723"/>
      <point x="49" y="732"/>
    </contour>
  </outline>
</glyph>
<glyph name="braceright" format="1">
  <advance width="287"/>
  <unicode hex="007D"/>
  <outline>
    <contour>
      <point x="158" y="432" type="curve"/>
      <point x="158" y="773" type="line"/>
      <point x="69" y="773" type="line"/>
      <point x="58" y="773"/>
      <point x="50" y="762"/>
      <point x="50" y="749" type="curve" smooth="yes"/>
      <point x="50" y="736"/>
      <point x="58" y="725"/>
      <point x="69" y="725" type="curve"/>
      <point x="120" y="725" type="line"/>
      <point x="120" y="425" type="line"/>
      <point x="124" y="420" type="line"/>
      <point x="158" y="374" type="line"/>
      <point x="198" y="321" type="line"/>
      <point x="158" y="268" type="line"/>
      <point x="124" y="224" type="line"/>
      <point x="120" y="218" type="line"/>
      <point x="120" y="-84" type="line"/>
      <point x="69" y="-84" type="line"/>
      <point x="58" y="-84"/>
      <point x="50" y="-95"/>
      <point x="50" y="-108" type="curve" smooth="yes"/>
      <point x="50" y="-121"/>
      <point x="58" y="-132"/>
      <point x="69" y="-132" type="curve"/>
      <point x="158" y="-132" type="line"/>
      <point x="158" y="209" type="line"/>
      <point x="158" y="209"/>
      <point x="246" y="296"/>
      <point x="246" y="321" type="curve" smooth="yes"/>
      <point x="246" y="345"/>
      <point x="158" y="432"/>
    </contour>
  </outline>
</glyph>
<glyph name="asciitilde" format="1">
  <advance width="331"/>
  <unicode hex="007E"/>
  <outline>
    <contour>
      <point x="3" y="386" type="curve"/>
      <point x="3" y="375"/>
      <point x="19" y="376"/>
      <point x="37" y="381" type="curve"/>
      <point x="97" y="398"/>
      <point x="156" y="364"/>
      <point x="216" y="350" type="curve"/>
      <point x="182" y="358"/>
      <point x="149" y="372"/>
      <point x="116" y="380" type="curve"/>
      <point x="176" y="366"/>
      <point x="235" y="332"/>
      <point x="294" y="349" type="curve"/>
      <point x="313" y="355"/>
      <point x="328" y="375"/>
      <point x="328" y="386" type="curve" smooth="yes"/>
      <point x="328" y="398"/>
      <point x="313" y="397"/>
      <point x="294" y="392" type="curve"/>
      <point x="235" y="375"/>
      <point x="176" y="408"/>
      <point x="116" y="422" type="curve"/>
      <point x="149" y="415"/>
      <point x="182" y="401"/>
      <point x="216" y="393" type="curve"/>
      <point x="156" y="407"/>
      <point x="97" y="440"/>
      <point x="37" y="423" type="curve"/>
      <point x="19" y="418"/>
      <point x="3" y="398"/>
    </contour>
  </outline>
</glyph>
<glyph name="exclamdown" format="1">
  <advance width="76"/>
  <unicode hex="00A1"/>
  <outline>
    <contour>
      <point x="36" y="654" type="curve" smooth="yes"/>
      <point x="27" y="654"/>
      <point x="19" y="646"/>
      <point x="19" y="637" type="curve"/>
      <point x="19" y="547" type="line"/>
      <point x="19" y="99" type="line"/>
      <point x="19" y="16" type="line"/>
      <point x="19" y="7"/>
      <point x="27" y="-1"/>
      <point x="36" y="-1" type="curve" smooth="yes"/>
      <point x="46" y="-1"/>
      <point x="53" y="7"/>
      <point x="53" y="16" type="curve"/>
      <point x="53" y="99" type="line"/>
      <point x="53" y="547" type="line"/>
      <point x="53" y="637" type="line"/>
      <point x="53" y="646"/>
      <point x="46" y="654"/>
    </contour>
    <contour>
      <point x="36" y="731" type="curve" smooth="yes"/>
      <point x="27" y="731"/>
      <point x="19" y="723"/>
      <point x="19" y="714" type="curve"/>
      <point x="19" y="701" type="line"/>
      <point x="19" y="692"/>
      <point x="27" y="684"/>
      <point x="36" y="684" type="curve" smooth="yes"/>
      <point x="46" y="684"/>
      <point x="53" y="692"/>
      <point x="53" y="701" type="curve"/>
      <point x="53" y="714" type="line"/>
      <point x="53" y="723"/>
      <point x="46" y="731"/>
    </contour>
  </outline>
</glyph>
<glyph name="cent" format="1">
  <advance width="250"/>
  <unicode hex="00A2"/>
  <outline>
    <contour>
      <point x="245" y="390" type="line"/>
      <point x="245" y="412" type="line"/>
      <point x="245" y="477"/>
      <point x="193" y="530"/>
      <point x="128" y="530" type="curve" smooth="yes"/>
      <point x="63" y="530"/>
      <point x="11" y="477"/>
      <point x="11" y="412" type="curve"/>
      <point x="11" y="117" type="line"/>
      <point x="11" y="53"/>
      <point x="63" y="0"/>
      <point x="128" y="0" type="curve" smooth="yes"/>
      <point x="193" y="0"/>
      <point x="245" y="53"/>
      <point x="245" y="117" type="curve"/>
      <point x="245" y="140" type="line"/>
      <point x="209" y="140" type="line"/>
      <point x="209" y="117" type="line"/>
      <point x="209" y="73"/>
      <point x="173" y="36"/>
      <point x="128" y="36" type="curve" smooth="yes"/>
      <point x="83" y="36"/>
      <point x="47" y="73"/>
      <point x="47" y="117" type="curve"/>
      <point x="47" y="412" type="line"/>
      <point x="47" y="457"/>
      <point x="83" y="493"/>
      <point x="128" y="493" type="curve" smooth="yes"/>
      <point x="173" y="493"/>
      <point x="209" y="457"/>
      <point x="209" y="412" type="curve"/>
      <point x="209" y="390" type="line"/>
    </contour>
    <contour>
      <point x="131" y="641" type="curve" smooth="yes"/>
      <point x="120" y="641"/>
      <point x="112" y="632"/>
      <point x="112" y="622" type="curve"/>
      <point x="112" y="523" type="line"/>
      <point x="112" y="27" type="line"/>
      <point x="112" y="-72" type="line"/>
      <point x="112" y="-83"/>
      <point x="120" y="-91"/>
      <point x="131" y="-91" type="curve" smooth="yes"/>
      <point x="141" y="-91"/>
      <point x="150" y="-83"/>
      <point x="150" y="-72" type="curve"/>
      <point x="150" y="27" type="line"/>
      <point x="150" y="523" type="line"/>
      <point x="150" y="622" type="line"/>
      <point x="150" y="632"/>
      <point x="141" y="641"/>
    </contour>
  </outline>
</glyph>
<glyph name="sterling" format="1">
  <advance width="524"/>
  <unicode hex="00A3"/>
  <outline>
    <contour>
      <point x="466" y="137" type="curve" smooth="yes"/>
      <point x="455" y="137"/>
      <point x="446" y="128"/>
      <point x="446" y="117" type="curve" smooth="yes"/>
      <point x="446" y="74"/>
      <point x="410" y="38"/>
      <point x="367" y="38" type="curve"/>
      <point x="232" y="38" type="line"/>
      <point x="232" y="82" type="line"/>
      <point x="232" y="363" type="line"/>
      <point x="404" y="363" type="line"/>
      <point x="415" y="363"/>
      <point x="424" y="372"/>
      <point x="424" y="383" type="curve" smooth="yes"/>
      <point x="424" y="394"/>
      <point x="415" y="403"/>
      <point x="404" y="403" type="curve"/>
      <point x="232" y="403" type="line"/>
      <point x="232" y="608" type="line"/>
      <point x="232" y="623" type="line"/>
      <point x="306" y="623" type="line"/>
      <point x="371" y="623"/>
      <point x="424" y="676"/>
      <point x="424" y="742" type="curve" smooth="yes"/>
      <point x="424" y="753"/>
      <point x="415" y="762"/>
      <point x="404" y="762" type="curve" smooth="yes"/>
      <point x="393" y="762"/>
      <point x="384" y="753"/>
      <point x="384" y="742" type="curve" smooth="yes"/>
      <point x="384" y="698"/>
      <point x="349" y="663"/>
      <point x="306" y="663" type="curve"/>
      <point x="232" y="663" type="line"/>
      <point x="232" y="714" type="line"/>
      <point x="232" y="725"/>
      <point x="223" y="734"/>
      <point x="212" y="734" type="curve" smooth="yes"/>
      <point x="201" y="734"/>
      <point x="192" y="725"/>
      <point x="192" y="714" type="curve"/>
      <point x="192" y="663" type="line"/>
      <point x="159" y="663" type="line"/>
      <point x="148" y="663"/>
      <point x="139" y="654"/>
      <point x="139" y="643" type="curve" smooth="yes"/>
      <point x="139" y="632"/>
      <point x="148" y="623"/>
      <point x="159" y="623" type="curve"/>
      <point x="192" y="623" type="line"/>
      <point x="192" y="608" type="line"/>
      <point x="192" y="403" type="line"/>
      <point x="159" y="403" type="line"/>
      <point x="93" y="403"/>
      <point x="40" y="350"/>
      <point x="40" y="285" type="curve" smooth="yes"/>
      <point x="40" y="273"/>
      <point x="49" y="265"/>
      <point x="60" y="265" type="curve" smooth="yes"/>
      <point x="71" y="265"/>
      <point x="80" y="273"/>
      <point x="80" y="285" type="curve" smooth="yes"/>
      <point x="80" y="328"/>
      <point x="115" y="363"/>
      <point x="159" y="363" type="curve"/>
      <point x="192" y="363" type="line"/>
      <point x="192" y="82" type="line"/>
      <point x="192" y="38" type="line"/>
      <point x="121" y="38" type="line"/>
      <point x="110" y="38"/>
      <point x="101" y="29"/>
      <point x="101" y="18" type="curve" smooth="yes"/>
      <point x="101" y="7"/>
      <point x="110" y="-2"/>
      <point x="121" y="-2" type="curve"/>
      <point x="192" y="-2" type="line"/>
      <point x="192" y="-23" type="line"/>
      <point x="192" y="-34"/>
      <point x="201" y="-43"/>
      <point x="212" y="-43" type="curve" smooth="yes"/>
      <point x="223" y="-43"/>
      <point x="232" y="-34"/>
      <point x="232" y="-23" type="curve"/>
      <point x="232" y="-2" type="line"/>
      <point x="367" y="-2" type="line"/>
      <point x="433" y="-2"/>
      <point x="486" y="51"/>
      <point x="486" y="117" type="curve" smooth="yes"/>
      <point x="486" y="128"/>
      <point x="477" y="137"/>
    </contour>
  </outline>
</glyph>
<glyph name="currency" format="1">
  <advance width="541"/>
  <unicode hex="00A4"/>
  <outline>
    <contour>
      <point x="516" y="121" type="curve"/>
      <point x="456" y="181" type="line"/>
      <point x="402" y="236" type="line"/>
      <point x="411" y="252"/>
      <point x="416" y="270"/>
      <point x="416" y="289" type="curve"/>
      <point x="416" y="459" type="line"/>
      <point x="416" y="484"/>
      <point x="407" y="508"/>
      <point x="391" y="528" type="curve"/>
      <point x="393" y="529"/>
      <point x="395" y="530"/>
      <point x="396" y="531" type="curve"/>
      <point x="436" y="572" type="line"/>
      <point x="516" y="652" type="line"/>
      <point x="525" y="661"/>
      <point x="525" y="675"/>
      <point x="516" y="684" type="curve" smooth="yes"/>
      <point x="508" y="692"/>
      <point x="493" y="692"/>
      <point x="485" y="684" type="curve"/>
      <point x="424" y="623" type="line"/>
      <point x="364" y="563" type="line"/>
      <point x="362" y="561"/>
      <point x="361" y="559"/>
      <point x="360" y="557" type="curve"/>
      <point x="335" y="573"/>
      <point x="304" y="582"/>
      <point x="271" y="582" type="curve" smooth="yes"/>
      <point x="238" y="582"/>
      <point x="207" y="573"/>
      <point x="182" y="557" type="curve"/>
      <point x="181" y="559"/>
      <point x="180" y="561"/>
      <point x="178" y="563" type="curve"/>
      <point x="117" y="623" type="line"/>
      <point x="57" y="684" type="line"/>
      <point x="48" y="692"/>
      <point x="34" y="693"/>
      <point x="25" y="684" type="curve" smooth="yes"/>
      <point x="17" y="675"/>
      <point x="17" y="661"/>
      <point x="25" y="652" type="curve"/>
      <point x="86" y="592" type="line"/>
      <point x="146" y="531" type="line"/>
      <point x="147" y="530"/>
      <point x="149" y="529"/>
      <point x="150" y="528" type="curve"/>
      <point x="135" y="508"/>
      <point x="126" y="484"/>
      <point x="126" y="459" type="curve"/>
      <point x="126" y="289" type="line"/>
      <point x="126" y="270"/>
      <point x="131" y="252"/>
      <point x="140" y="236" type="curve"/>
      <point x="86" y="181" type="line"/>
      <point x="25" y="121" type="line"/>
      <point x="17" y="112"/>
      <point x="17" y="98"/>
      <point x="25" y="89" type="curve" smooth="yes"/>
      <point x="34" y="80"/>
      <point x="48" y="80"/>
      <point x="57" y="89" type="curve"/>
      <point x="99" y="131" type="line"/>
      <point x="169" y="201" type="line"/>
      <point x="195" y="179"/>
      <point x="231" y="165"/>
      <point x="271" y="165" type="curve" smooth="yes"/>
      <point x="311" y="165"/>
      <point x="347" y="179"/>
      <point x="373" y="201" type="curve"/>
      <point x="424" y="149" type="line"/>
      <point x="485" y="89" type="line"/>
      <point x="493" y="80"/>
      <point x="508" y="80"/>
      <point x="516" y="89" type="curve" smooth="yes"/>
      <point x="525" y="98"/>
      <point x="525" y="112"/>
    </contour>
    <contour>
      <point x="271" y="204" type="curve" smooth="yes"/>
      <point x="216" y="204"/>
      <point x="171" y="242"/>
      <point x="171" y="289" type="curve"/>
      <point x="171" y="459" type="line"/>
      <point x="171" y="506"/>
      <point x="216" y="544"/>
      <point x="271" y="544" type="curve" smooth="yes"/>
      <point x="326" y="544"/>
      <point x="371" y="506"/>
      <point x="371" y="459" type="curve"/>
      <point x="371" y="347" type="line"/>
      <point x="371" y="347"/>
      <point x="371" y="346"/>
      <point x="371" y="346" type="curve"/>
      <point x="371" y="289" type="line"/>
      <point x="371" y="242"/>
      <point x="326" y="204"/>
    </contour>
  </outline>
</glyph>
<glyph name="yen" format="1">
  <advance width="510"/>
  <unicode hex="00A5"/>
  <outline>
    <contour>
      <point x="364" y="734" type="curve" smooth="yes"/>
      <point x="353" y="734"/>
      <point x="345" y="725"/>
      <point x="345" y="715" type="curve"/>
      <point x="345" y="470" type="line"/>
      <point x="345" y="423"/>
      <point x="307" y="386"/>
      <point x="261" y="386" type="curve" smooth="yes"/>
      <point x="215" y="386"/>
      <point x="177" y="423"/>
      <point x="177" y="470" type="curve"/>
      <point x="177" y="715" type="line"/>
      <point x="177" y="726"/>
      <point x="169" y="734"/>
      <point x="158" y="734" type="curve" smooth="yes"/>
      <point x="148" y="734"/>
      <point x="139" y="726"/>
      <point x="139" y="715" type="curve"/>
      <point x="139" y="470" type="line"/>
      <point x="139" y="409"/>
      <point x="184" y="359"/>
      <point x="242" y="349" type="curve"/>
      <point x="242" y="19" type="line"/>
      <point x="242" y="9"/>
      <point x="251" y="0"/>
      <point x="261" y="0" type="curve" smooth="yes"/>
      <point x="271" y="0"/>
      <point x="280" y="9"/>
      <point x="280" y="19" type="curve"/>
      <point x="280" y="349" type="line"/>
      <point x="338" y="359"/>
      <point x="383" y="409"/>
      <point x="383" y="470" type="curve"/>
      <point x="383" y="715" type="line"/>
      <point x="383" y="725"/>
      <point x="374" y="734"/>
    </contour>
    <contour>
      <point x="3" y="271" type="curve" smooth="yes"/>
      <point x="3" y="264"/>
      <point x="9" y="258"/>
      <point x="16" y="258" type="curve"/>
      <point x="85" y="258" type="line"/>
      <point x="425" y="258" type="line"/>
      <point x="493" y="258" type="line"/>
      <point x="501" y="258"/>
      <point x="506" y="264"/>
      <point x="506" y="271" type="curve" smooth="yes"/>
      <point x="506" y="278"/>
      <point x="501" y="284"/>
      <point x="493" y="284" type="curve"/>
      <point x="425" y="284" type="line"/>
      <point x="85" y="284" type="line"/>
      <point x="16" y="284" type="line"/>
      <point x="9" y="284"/>
      <point x="3" y="278"/>
    </contour>
    <contour>
      <point x="3" y="155" type="curve" smooth="yes"/>
      <point x="3" y="148"/>
      <point x="9" y="142"/>
      <point x="16" y="142" type="curve"/>
      <point x="85" y="142" type="line"/>
      <point x="425" y="142" type="line"/>
      <point x="493" y="142" type="line"/>
      <point x="501" y="142"/>
      <point x="506" y="148"/>
      <point x="506" y="155" type="curve" smooth="yes"/>
      <point x="506" y="162"/>
      <point x="501" y="168"/>
      <point x="493" y="168" type="curve"/>
      <point x="425" y="168" type="line"/>
      <point x="85" y="168" type="line"/>
      <point x="16" y="168" type="line"/>
      <point x="9" y="168"/>
      <point x="3" y="162"/>
    </contour>
  </outline>
</glyph>
<glyph name="brokenbar" format="1">
  <advance width="81"/>
  <unicode hex="00A6"/>
  <outline>
    <contour>
      <point x="39" y="773" type="curve" smooth="yes"/>
      <point x="28" y="773"/>
      <point x="20" y="763"/>
      <point x="20" y="750" type="curve"/>
      <point x="20" y="374" type="line"/>
      <point x="58" y="374" type="line"/>
      <point x="58" y="750" type="line"/>
      <point x="58" y="763"/>
      <point x="49" y="773"/>
    </contour>
    <contour>
      <point x="20" y="-95" type="line"/>
      <point x="20" y="-108"/>
      <point x="28" y="-118"/>
      <point x="39" y="-118" type="curve" smooth="yes"/>
      <point x="49" y="-118"/>
      <point x="58" y="-108"/>
      <point x="58" y="-95" type="curve"/>
      <point x="58" y="280" type="line"/>
      <point x="20" y="280" type="line"/>
    </contour>
  </outline>
</glyph>
<glyph name="section" format="1">
  <advance width="394"/>
  <unicode hex="00A7"/>
  <outline>
    <contour>
      <point x="365" y="736" type="curve"/>
      <point x="198" y="736" type="line"/>
      <point x="126" y="736"/>
      <point x="68" y="686"/>
      <point x="68" y="625" type="curve" smooth="yes"/>
      <point x="68" y="589"/>
      <point x="89" y="555"/>
      <point x="125" y="534" type="curve"/>
      <point x="89" y="513"/>
      <point x="68" y="479"/>
      <point x="68" y="442" type="curve"/>
      <point x="68" y="293" type="line"/>
      <point x="68" y="267"/>
      <point x="79" y="242"/>
      <point x="99" y="222" type="curve" smooth="yes"/>
      <point x="119" y="202"/>
      <point x="146" y="189"/>
      <point x="176" y="184" type="curve"/>
      <point x="178" y="184"/>
      <point x="180" y="183"/>
      <point x="183" y="183" type="curve"/>
      <point x="184" y="183" type="line"/>
      <point x="189" y="183"/>
      <point x="193" y="183"/>
      <point x="198" y="183" type="curve" smooth="yes"/>
      <point x="200" y="183"/>
      <point x="202" y="183"/>
      <point x="205" y="183" type="curve"/>
      <point x="249" y="179"/>
      <point x="282" y="148"/>
      <point x="282" y="111" type="curve" smooth="yes"/>
      <point x="282" y="70"/>
      <point x="244" y="38"/>
      <point x="196" y="38" type="curve"/>
      <point x="28" y="38" type="line"/>
      <point x="16" y="38"/>
      <point x="7" y="29"/>
      <point x="7" y="19" type="curve" smooth="yes"/>
      <point x="7" y="8"/>
      <point x="16" y="0"/>
      <point x="28" y="0" type="curve"/>
      <point x="196" y="0" type="line"/>
      <point x="268" y="0"/>
      <point x="326" y="50"/>
      <point x="326" y="111" type="curve" smooth="yes"/>
      <point x="326" y="147"/>
      <point x="305" y="181"/>
      <point x="270" y="202" type="curve"/>
      <point x="306" y="222"/>
      <point x="327" y="256"/>
      <point x="327" y="293" type="curve"/>
      <point x="327" y="442" type="line"/>
      <point x="327" y="469"/>
      <point x="316" y="495"/>
      <point x="296" y="515" type="curve" smooth="yes"/>
      <point x="276" y="534"/>
      <point x="248" y="547"/>
      <point x="218" y="552" type="curve"/>
      <point x="216" y="552"/>
      <point x="213" y="552"/>
      <point x="211" y="552" type="curve"/>
      <point x="208" y="552" type="line"/>
      <point x="204" y="553"/>
      <point x="201" y="553"/>
      <point x="198" y="553" type="curve" smooth="yes"/>
      <point x="196" y="553"/>
      <point x="193" y="553"/>
      <point x="191" y="553" type="curve"/>
      <point x="147" y="556"/>
      <point x="112" y="588"/>
      <point x="112" y="625" type="curve" smooth="yes"/>
      <point x="112" y="666"/>
      <point x="150" y="698"/>
      <point x="198" y="698" type="curve"/>
      <point x="365" y="698" type="line"/>
      <point x="377" y="698"/>
      <point x="387" y="707"/>
      <point x="387" y="717" type="curve" smooth="yes"/>
      <point x="387" y="728"/>
      <point x="377" y="736"/>
    </contour>
    <contour>
      <point x="198" y="515" type="curve"/>
      <point x="206" y="515" type="line"/>
      <point x="250" y="511"/>
      <point x="284" y="480"/>
      <point x="284" y="442" type="curve"/>
      <point x="284" y="344" type="line"/>
      <point x="284" y="344"/>
      <point x="284" y="344"/>
      <point x="284" y="343" type="curve"/>
      <point x="284" y="293" type="line"/>
      <point x="284" y="256"/>
      <point x="249" y="224"/>
      <point x="205" y="221" type="curve"/>
      <point x="202" y="221"/>
      <point x="199" y="221"/>
      <point x="196" y="221" type="curve"/>
      <point x="187" y="221" type="line"/>
      <point x="144" y="226"/>
      <point x="112" y="257"/>
      <point x="112" y="293" type="curve"/>
      <point x="112" y="442" type="line"/>
      <point x="112" y="480"/>
      <point x="147" y="512"/>
      <point x="191" y="515" type="curve"/>
      <point x="193" y="515"/>
      <point x="196" y="515"/>
    </contour>
  </outline>
</glyph>
<glyph name="dieresis" format="1">
  <advance width="223"/>
  <unicode hex="00A8"/>
  <outline>
    <contour>
      <point x="49" y="635" type="curve" smooth="yes"/>
      <point x="32" y="635"/>
      <point x="19" y="622"/>
      <point x="19" y="604" type="curve"/>
      <point x="19" y="581" type="line"/>
      <point x="19" y="562"/>
      <point x="32" y="549"/>
      <point x="49" y="549" type="curve" smooth="yes"/>
      <point x="67" y="549"/>
      <point x="81" y="562"/>
      <point x="81" y="581" type="curve"/>
      <point x="81" y="604" type="line"/>
      <point x="81" y="622"/>
      <point x="67" y="635"/>
    </contour>
    <contour>
      <point x="172" y="635" type="curve" smooth="yes"/>
      <point x="156" y="635"/>
      <point x="142" y="622"/>
      <point x="142" y="604" type="curve"/>
      <point x="142" y="581" type="line"/>
      <point x="142" y="562"/>
      <point x="156" y="549"/>
      <point x="172" y="549" type="curve" smooth="yes"/>
      <point x="191" y="549"/>
      <point x="204" y="562"/>
      <point x="204" y="581" type="curve"/>
      <point x="204" y="604" type="line"/>
      <point x="204" y="622"/>
      <point x="191" y="635"/>
    </contour>
  </outline>
</glyph>
<glyph name="copyright" format="1">
  <advance width="468"/>
  <unicode hex="00A9"/>
  <outline>
    <contour>
      <point x="316" y="488" type="line"/>
      <point x="316" y="532" type="line"/>
      <point x="316" y="578"/>
      <point x="279" y="615"/>
      <point x="234" y="615" type="curve" smooth="yes"/>
      <point x="189" y="615"/>
      <point x="152" y="578"/>
      <point x="152" y="532" type="curve"/>
      <point x="152" y="240" type="line"/>
      <point x="152" y="195"/>
      <point x="189" y="158"/>
      <point x="234" y="158" type="curve" smooth="yes"/>
      <point x="279" y="158"/>
      <point x="316" y="195"/>
      <point x="316" y="240" type="curve"/>
      <point x="316" y="271" type="line"/>
      <point x="275" y="271" type="line"/>
      <point x="275" y="240" type="line"/>
      <point x="275" y="218"/>
      <point x="256" y="200"/>
      <point x="234" y="200" type="curve" smooth="yes"/>
      <point x="212" y="200"/>
      <point x="193" y="218"/>
      <point x="193" y="240" type="curve"/>
      <point x="193" y="532" type="line"/>
      <point x="193" y="555"/>
      <point x="212" y="573"/>
      <point x="234" y="573" type="curve" smooth="yes"/>
      <point x="256" y="573"/>
      <point x="275" y="555"/>
      <point x="275" y="532" type="curve"/>
      <point x="275" y="488" type="line"/>
    </contour>
    <contour>
      <point x="234" y="711" type="curve" smooth="yes"/>
      <point x="114" y="711"/>
      <point x="17" y="637"/>
      <point x="17" y="547" type="curve"/>
      <point x="17" y="226" type="line"/>
      <point x="17" y="135"/>
      <point x="115" y="62"/>
      <point x="234" y="62" type="curve" smooth="yes"/>
      <point x="353" y="62"/>
      <point x="451" y="135"/>
      <point x="451" y="226" type="curve"/>
      <point x="451" y="547" type="line"/>
      <point x="451" y="637"/>
      <point x="353" y="711"/>
    </contour>
    <contour>
      <point x="421" y="226" type="curve"/>
      <point x="421" y="164"/>
      <point x="320" y="96"/>
      <point x="238" y="96" type="curve" smooth="yes"/>
      <point x="156" y="96"/>
      <point x="55" y="159"/>
      <point x="55" y="221" type="curve"/>
      <point x="49" y="540" type="line"/>
      <point x="49" y="602"/>
      <point x="152" y="675"/>
      <point x="234" y="675" type="curve" smooth="yes"/>
      <point x="316" y="675"/>
      <point x="417" y="608"/>
      <point x="417" y="546" type="curve" smooth="yes"/>
      <point x="417" y="328"/>
      <point x="421" y="329"/>
    </contour>
  </outline>
</glyph>
